<?xml version="1.0" encoding="UTF-8" standalone="no"?>
<!DOCTYPE svg PUBLIC "-//W3C//DTD SVG 1.1//EN"
 "http://www.w3.org/Graphics/SVG/1.1/DTD/svg11.dtd">
<!-- Generated by graphviz version 2.43.0 (0)
 -->
<!-- Title: G Pages: 1 -->
<svg width="233pt" height="640pt"
 viewBox="0.00 0.00 232.50 640.00" xmlns="http://www.w3.org/2000/svg" xmlns:xlink="http://www.w3.org/1999/xlink">
<g id="graph0" class="graph" transform="scale(1 1) rotate(0) translate(4 636)">
<title>G</title>
<polygon fill="white" stroke="transparent" points="-4,4 -4,-636 228.5,-636 228.5,4 -4,4"/>
<!-- n0in1 -->
<!-- n1 -->
<!-- Wolf_eat -->
<g id="n1" class="node">
<title>n1</title>
<polygon fill="lightblue" stroke="transparent" points="142.5,-580 71.5,-580 71.5,-555 142.5,-555 142.5,-580"/>
<polygon fill="none" stroke="black" points="72,-554.5 72,-579.5 143,-579.5 143,-554.5 72,-554.5"/>
<text text-anchor="start" x="77" y="-563.3" font-family="Serif" font-size="14.00">Wolf_eat</text>
</g>
<!-- n0in1&#45;&gt;n1 -->
<!-- W -->
<g id="e1" class="edge">
<title>n0in1:s&#45;&gt;n1:n</title>
<path fill="none" stroke="black" d="M108,-631C108,-610.1 108,-603.66 108,-585.02"/>
<polygon fill="black" stroke="black" points="109.75,-585 108,-580 106.25,-585 109.75,-585"/>
<text text-anchor="middle" x="115.5" y="-601.8" font-family="Serif" font-size="14.00">W</text>
</g>
<!-- n0out1 -->
<!-- n2 -->
<!-- turn -->
<g id="n2" class="node">
<title>n2</title>
<polygon fill="lightpink" stroke="transparent" points="144,-504 72,-504 72,-479 144,-479 144,-504"/>
<polygon fill="none" stroke="black" points="72,-478.5 72,-503.5 144,-503.5 144,-478.5 72,-478.5"/>
<text text-anchor="start" x="92.5" y="-487.3" font-family="Serif" font-size="14.00">turn</text>
</g>
<!-- n1&#45;&gt;n2 -->
<!-- W -->
<g id="e6" class="edge">
<title>n1:s&#45;&gt;n2:n</title>
<path fill="none" stroke="black" d="M90,-555C90,-540.33 84.39,-535.55 90,-522 93.52,-513.51 103.2,-514.4 106.71,-508.97"/>
<polygon fill="black" stroke="black" points="108.44,-509.28 108,-504 105.05,-508.4 108.44,-509.28"/>
<text text-anchor="middle" x="97.5" y="-525.8" font-family="Serif" font-size="14.00">W</text>
</g>
<!-- n1&#45;&gt;n2 -->
<!-- W -->
<g id="e7" class="edge">
<title>n1:s&#45;&gt;n2:n</title>
<path fill="none" stroke="black" d="M126,-555C126,-532.84 110.7,-528.62 108.31,-509.27"/>
<polygon fill="black" stroke="black" points="110.04,-508.89 108,-504 106.55,-509.09 110.04,-508.89"/>
<text text-anchor="middle" x="129.5" y="-525.8" font-family="Serif" font-size="14.00">W</text>
</g>
<!-- n3 -->
<!-- turn_left -->
<g id="n3" class="node">
<title>n3</title>
<polygon fill="lightblue" stroke="transparent" points="72,-428 0,-428 0,-403 72,-403 72,-428"/>
<polygon fill="none" stroke="black" points="0,-402.5 0,-427.5 72,-427.5 72,-402.5 0,-402.5"/>
<text text-anchor="start" x="5" y="-411.3" font-family="Serif" font-size="14.00">turn_left</text>
</g>
<!-- n2&#45;&gt;n3 -->
<!-- W -->
<g id="e4" class="edge">
<title>n2:s&#45;&gt;n3:n</title>
<path fill="none" stroke="black" d="M84,-479C84,-449.7 41.46,-457.95 36.48,-433.05"/>
<polygon fill="black" stroke="black" points="38.21,-432.81 36,-428 34.73,-433.14 38.21,-432.81"/>
<text text-anchor="middle" x="82.5" y="-449.8" font-family="Serif" font-size="14.00">W</text>
</g>
<!-- n4 -->
<!-- turn_right -->
<g id="n4" class="node">
<title>n4</title>
<polygon fill="lightblue" stroke="transparent" points="224.5,-428 141.5,-428 141.5,-403 224.5,-403 224.5,-428"/>
<polygon fill="none" stroke="black" points="142,-402.5 142,-427.5 225,-427.5 225,-402.5 142,-402.5"/>
<text text-anchor="start" x="147" y="-411.3" font-family="Serif" font-size="14.00">turn_right</text>
</g>
<!-- n2&#45;&gt;n4 -->
<!-- W -->
<g id="e3" class="edge">
<title>n2:s&#45;&gt;n4:n</title>
<path fill="none" stroke="black" d="M132,-479C132,-448.53 178.08,-458.92 183.49,-433.23"/>
<polygon fill="black" stroke="black" points="185.25,-433.15 184,-428 181.77,-432.8 185.25,-433.15"/>
<text text-anchor="middle" x="181.5" y="-449.8" font-family="Serif" font-size="14.00">W</text>
</g>
<!-- n5 -->
<!-- move_fwd -->
<g id="n5" class="node">
<title>n5</title>
<polygon fill="lightblue" stroke="transparent" points="149,-352 67,-352 67,-327 149,-327 149,-352"/>
<polygon fill="none" stroke="black" points="67,-326.5 67,-351.5 149,-351.5 149,-326.5 67,-326.5"/>
<text text-anchor="start" x="72" y="-335.3" font-family="Serif" font-size="14.00">move_fwd</text>
</g>
<!-- n2&#45;&gt;n5 -->
<!-- W -->
<g id="e8" class="edge">
<title>n2:s&#45;&gt;n5:n</title>
<path fill="none" stroke="black" d="M108,-479C108,-424.32 108,-409.37 108,-357.17"/>
<polygon fill="black" stroke="black" points="109.75,-357 108,-352 106.25,-357 109.75,-357"/>
<text text-anchor="middle" x="115.5" y="-411.8" font-family="Serif" font-size="14.00">W</text>
</g>
<!-- n3&#45;&gt;n5 -->
<!-- W -->
<g id="e9" class="edge">
<title>n3:s&#45;&gt;n5:n</title>
<path fill="none" stroke="black" d="M18,-403C18,-386.29 22.78,-380.22 36,-370 60.56,-351.01 102.69,-381.05 107.54,-357.12"/>
<polygon fill="black" stroke="black" points="109.3,-357.14 108,-352 105.81,-356.82 109.3,-357.14"/>
<text text-anchor="middle" x="43.5" y="-373.8" font-family="Serif" font-size="14.00">W</text>
</g>
<!-- n3&#45;&gt;n5 -->
<!-- W -->
<g id="e10" class="edge">
<title>n3:s&#45;&gt;n5:n</title>
<path fill="none" stroke="black" d="M54,-403C54,-384.6 65.4,-382.39 79,-370 88.64,-361.22 103.13,-365.44 107.01,-357.17"/>
<polygon fill="black" stroke="black" points="108.78,-357.24 108,-352 105.34,-356.58 108.78,-357.24"/>
<text text-anchor="middle" x="86.5" y="-373.8" font-family="Serif" font-size="14.00">W</text>
</g>
<!-- n4&#45;&gt;n5 -->
<!-- W -->
<g id="e11" class="edge">
<title>n4:s&#45;&gt;n5:n</title>
<path fill="none" stroke="black" d="M163,-403C163,-388.02 118.6,-372.25 109.59,-357.11"/>
<polygon fill="black" stroke="black" points="111.15,-356.26 108,-352 107.81,-357.29 111.15,-356.26"/>
<text text-anchor="middle" x="153.5" y="-373.8" font-family="Serif" font-size="14.00">W</text>
</g>
<!-- n4&#45;&gt;n5 -->
<!-- W -->
<g id="e12" class="edge">
<title>n4:s&#45;&gt;n5:n</title>
<path fill="none" stroke="black" d="M205,-403C205,-379.95 185.25,-381.01 165,-370 143.48,-358.3 113.2,-375.45 108.6,-357.39"/>
<polygon fill="black" stroke="black" points="110.29,-356.78 108,-352 106.81,-357.16 110.29,-356.78"/>
<text text-anchor="middle" x="203.5" y="-373.8" font-family="Serif" font-size="14.00">W</text>
</g>
<!-- n6 -->
<!-- reprod -->
<g id="n6" class="node">
<title>n6</title>
<polygon fill="lightpink" stroke="transparent" points="136.5,-276 77.5,-276 77.5,-251 136.5,-251 136.5,-276"/>
<polygon fill="none" stroke="black" points="78,-250.5 78,-275.5 137,-275.5 137,-250.5 78,-250.5"/>
<text text-anchor="start" x="83" y="-259.3" font-family="Serif" font-size="14.00">reprod</text>
</g>
<!-- n5&#45;&gt;n6 -->
<!-- W -->
<g id="e16" class="edge">
<title>n5:s&#45;&gt;n6:n</title>
<path fill="none" stroke="black" d="M87,-327C87,-312.23 84.72,-307.37 91,-294 94.8,-285.91 103.65,-286.35 106.83,-280.89"/>
<polygon fill="black" stroke="black" points="108.54,-281.27 108,-276 105.14,-280.46 108.54,-281.27"/>
<text text-anchor="middle" x="98.5" y="-297.8" font-family="Serif" font-size="14.00">W</text>
</g>
<!-- n5&#45;&gt;n6 -->
<!-- W -->
<g id="e17" class="edge">
<title>n5:s&#45;&gt;n6:n</title>
<path fill="none" stroke="black" d="M129,-327C129,-304.31 111,-300.93 108.33,-281.1"/>
<polygon fill="black" stroke="black" points="110.07,-280.88 108,-276 106.58,-281.1 110.07,-280.88"/>
<text text-anchor="middle" x="131.5" y="-297.8" font-family="Serif" font-size="14.00">W</text>
</g>
<!-- n7 -->
<!-- reproduce -->
<g id="n7" class="node">
<title>n7</title>
<polygon fill="lightblue" stroke="transparent" points="98.5,-200 15.5,-200 15.5,-175 98.5,-175 98.5,-200"/>
<polygon fill="none" stroke="black" points="16,-174.5 16,-199.5 99,-199.5 99,-174.5 16,-174.5"/>
<text text-anchor="start" x="21" y="-183.3" font-family="Serif" font-size="14.00">reproduce</text>
</g>
<!-- n6&#45;&gt;n7 -->
<!-- W -->
<g id="e14" class="edge">
<title>n6:s&#45;&gt;n7:n</title>
<path fill="none" stroke="black" d="M93,-251C93,-225.33 62.49,-227.1 58.44,-205.08"/>
<polygon fill="black" stroke="black" points="60.18,-204.83 58,-200 56.69,-205.13 60.18,-204.83"/>
<text text-anchor="middle" x="92.5" y="-221.8" font-family="Serif" font-size="14.00">W</text>
</g>
<!-- n8 -->
<!-- starve -->
<g id="n8" class="node">
<title>n8</title>
<polygon fill="lightblue" stroke="transparent" points="107,-124 51,-124 51,-99 107,-99 107,-124"/>
<polygon fill="none" stroke="black" points="51,-98.5 51,-123.5 107,-123.5 107,-98.5 51,-98.5"/>
<text text-anchor="start" x="56" y="-107.3" font-family="Serif" font-size="14.00">starve</text>
</g>
<!-- n6&#45;&gt;n8 -->
<!-- W -->
<g id="e5" class="edge">
<title>n6:s&#45;&gt;n8:n</title>
<path fill="none" stroke="black" d="M123,-251C123,-201.3 123.53,-184.65 98,-142 93.15,-133.89 83.64,-134.76 80.24,-129.13"/>
<polygon fill="black" stroke="black" points="81.88,-128.45 79,-124 78.48,-129.27 81.88,-128.45"/>
<text text-anchor="middle" x="128.5" y="-183.8" font-family="Serif" font-size="14.00">W</text>
</g>
<!-- n7&#45;&gt;n8 -->
<!-- W -->
<g id="e2" class="edge">
<title>n7:s&#45;&gt;n8:n</title>
<path fill="none" stroke="black" d="M37,-175C37,-160.17 33.21,-153.95 42,-142 51.57,-129 73.08,-139.18 77.99,-129.16"/>
<polygon fill="black" stroke="black" points="79.76,-129.24 79,-124 76.32,-128.57 79.76,-129.24"/>
<text text-anchor="middle" x="49.5" y="-145.8" font-family="Serif" font-size="14.00">W</text>
</g>
<!-- n7&#45;&gt;n8 -->
<!-- W -->
<g id="e13" class="edge">
<title>n7:s&#45;&gt;n8:n</title>
<path fill="none" stroke="black" d="M79,-175C79,-154.1 79,-147.66 79,-129.02"/>
<polygon fill="black" stroke="black" points="80.75,-129 79,-124 77.25,-129 80.75,-129"/>
<text text-anchor="middle" x="86.5" y="-145.8" font-family="Serif" font-size="14.00">W</text>
</g>
<!-- n8&#45;&gt;n0out1 -->
<g id="e18" class="edge">
<title>n8:s&#45;&gt;n0out1:n</title>
<path fill="none" stroke="black" d="M65,-99C65,-57.1 74.16,-45.74 74.95,-6.46"/>
<polygon fill="black" stroke="black" points="76.7,-6.02 75,-1 73.2,-5.98 76.7,-6.02"/>
</g>
<!-- n9 -->
<g id="n9" class="node">
<title>n9</title>
<polygon fill="lavender" stroke="transparent" points="115,-48 91,-48 91,-38 115,-38 115,-48"/>
<polygon fill="none" stroke="black" points="91,-38 91,-48 115,-48 115,-38 91,-38"/>
</g>
<!-- n8&#45;&gt;n9 -->
<!-- W -->
<g id="e15" class="edge">
<title>n8:s&#45;&gt;n9:n</title>
<path fill="none" stroke="black" d="M93,-99C93,-77.71 101.5,-71.96 102.83,-53.1"/>
<polygon fill="black" stroke="black" points="104.58,-53.06 103,-48 101.08,-52.94 104.58,-53.06"/>
<text text-anchor="middle" x="108.5" y="-69.8" font-family="Serif" font-size="14.00">W</text>
</g>
<!-- n9&#45;&gt;n0out1 -->
<g id="e19" class="edge">
<title>n9:s&#45;&gt;n0out1:n</title>
<path fill="none" stroke="black" d="M103,-38C103,-19.31 80,-21.05 75.69,-6.19"/>
<polygon fill="black" stroke="black" points="77.4,-5.72 75,-1 73.93,-6.19 77.4,-5.72"/>
</g>
</g>
</svg>
