<?xml version="1.0" encoding="UTF-8" standalone="no"?>
<!DOCTYPE svg PUBLIC "-//W3C//DTD SVG 1.1//EN"
 "http://www.w3.org/Graphics/SVG/1.1/DTD/svg11.dtd">
<!-- Generated by graphviz version 2.43.0 (0)
 -->
<!-- Title: G Pages: 1 -->
<svg width="396pt" height="396pt"
 viewBox="0.00 0.00 395.99 395.95" xmlns="http://www.w3.org/2000/svg" xmlns:xlink="http://www.w3.org/1999/xlink">
<g id="graph0" class="graph" transform="scale(1 1) rotate(0) translate(4 391.95)">
<title>G</title>
<polygon fill="white" stroke="transparent" points="-4,4 -4,-391.95 391.99,-391.95 391.99,4 -4,4"/>
<!-- n1 -->
<g id="node1" class="node">
<title>n1</title>
<ellipse fill="green" stroke="black" cx="178.09" cy="-18" rx="18" ry="18"/>
</g>
<!-- n2 -->
<g id="node2" class="node">
<title>n2</title>
<ellipse fill="red" stroke="black" cx="226.02" cy="-58.76" rx="18" ry="18"/>
</g>
<!-- n1&#45;&gt;n2 -->
<g id="edge2" class="edge">
<title>n1&#45;&gt;n2</title>
<path fill="none" stroke="black" d="M191.95,-29.79C198.25,-35.15 205.7,-41.48 212.02,-46.85"/>
</g>
<!-- n6 -->
<g id="node6" class="node">
<title>n6</title>
<ellipse fill="red" stroke="black" cx="139.05" cy="-66.6" rx="18" ry="18"/>
</g>
<!-- n1&#45;&gt;n6 -->
<g id="edge1" class="edge">
<title>n1&#45;&gt;n6</title>
<path fill="none" stroke="black" d="M166.8,-32.06C161.66,-38.45 155.6,-46 150.45,-52.41"/>
</g>
<!-- n7 -->
<g id="node7" class="node">
<title>n7</title>
<ellipse fill="green" stroke="black" cx="186.52" cy="-105.38" rx="18" ry="18"/>
</g>
<!-- n1&#45;&gt;n7 -->
<g id="edge3" class="edge">
<title>n1&#45;&gt;n7</title>
<path fill="none" stroke="black" d="M179.84,-36.1C181.28,-51.1 183.33,-72.31 184.78,-87.3"/>
</g>
<!-- n3 -->
<g id="node3" class="node">
<title>n3</title>
<ellipse fill="green" stroke="black" cx="273.72" cy="-99.06" rx="18" ry="18"/>
</g>
<!-- n2&#45;&gt;n3 -->
<g id="edge5" class="edge">
<title>n2&#45;&gt;n3</title>
<path fill="none" stroke="black" d="M239.82,-70.42C246.09,-75.72 253.5,-81.98 259.79,-87.29"/>
</g>
<!-- n2&#45;&gt;n6 -->
<g id="edge7" class="edge">
<title>n2&#45;&gt;n6</title>
<path fill="none" stroke="black" d="M208,-60.38C193.07,-61.73 171.97,-63.63 157.05,-64.98"/>
</g>
<!-- n2&#45;&gt;n7 -->
<g id="edge4" class="edge">
<title>n2&#45;&gt;n7</title>
<path fill="none" stroke="black" d="M214.38,-72.49C209.28,-78.51 203.32,-85.56 198.21,-91.58"/>
</g>
<!-- n8 -->
<g id="node8" class="node">
<title>n8</title>
<ellipse fill="red" stroke="black" cx="234.26" cy="-146.21" rx="18" ry="18"/>
</g>
<!-- n2&#45;&gt;n8 -->
<g id="edge6" class="edge">
<title>n2&#45;&gt;n8</title>
<path fill="none" stroke="black" d="M227.73,-76.88C229.14,-91.89 231.14,-113.11 232.55,-128.12"/>
</g>
<!-- n4 -->
<g id="node4" class="node">
<title>n4</title>
<ellipse fill="red" stroke="black" cx="321.55" cy="-139.09" rx="18" ry="18"/>
</g>
<!-- n3&#45;&gt;n4 -->
<g id="edge9" class="edge">
<title>n3&#45;&gt;n4</title>
<path fill="none" stroke="black" d="M287.56,-110.64C293.85,-115.9 301.28,-122.12 307.58,-127.4"/>
</g>
<!-- n3&#45;&gt;n7 -->
<g id="edge11" class="edge">
<title>n3&#45;&gt;n7</title>
<path fill="none" stroke="black" d="M255.65,-100.37C240.69,-101.46 219.53,-102.99 204.57,-104.07"/>
</g>
<!-- n3&#45;&gt;n8 -->
<g id="edge8" class="edge">
<title>n3&#45;&gt;n8</title>
<path fill="none" stroke="black" d="M262.09,-112.95C257,-119.04 251.04,-126.17 245.94,-132.26"/>
</g>
<!-- n9 -->
<g id="node9" class="node">
<title>n9</title>
<ellipse fill="green" stroke="black" cx="282.6" cy="-186.31" rx="18" ry="18"/>
</g>
<!-- n3&#45;&gt;n9 -->
<g id="edge10" class="edge">
<title>n3&#45;&gt;n9</title>
<path fill="none" stroke="black" d="M275.56,-117.14C277.08,-132.11 279.24,-153.29 280.76,-168.25"/>
</g>
<!-- n5 -->
<g id="node5" class="node">
<title>n5</title>
<ellipse fill="green" stroke="black" cx="369.99" cy="-178.87" rx="18" ry="18"/>
</g>
<!-- n4&#45;&gt;n5 -->
<g id="edge13" class="edge">
<title>n4&#45;&gt;n5</title>
<path fill="none" stroke="black" d="M335.56,-150.59C341.93,-155.83 349.46,-162 355.84,-167.25"/>
</g>
<!-- n4&#45;&gt;n8 -->
<g id="edge15" class="edge">
<title>n4&#45;&gt;n8</title>
<path fill="none" stroke="black" d="M303.46,-140.56C288.48,-141.79 267.3,-143.52 252.32,-144.74"/>
</g>
<!-- n4&#45;&gt;n9 -->
<g id="edge12" class="edge">
<title>n4&#45;&gt;n9</title>
<path fill="none" stroke="black" d="M310.08,-153C305.05,-159.09 299.16,-166.23 294.13,-172.33"/>
</g>
<!-- n10 -->
<g id="node10" class="node">
<title>n10</title>
<ellipse fill="red" stroke="black" cx="328.96" cy="-226.23" rx="18" ry="18"/>
</g>
<!-- n4&#45;&gt;n10 -->
<g id="edge14" class="edge">
<title>n4&#45;&gt;n10</title>
<path fill="none" stroke="black" d="M323.09,-157.14C324.36,-172.1 326.16,-193.25 327.43,-208.2"/>
</g>
<!-- n5&#45;&gt;n9 -->
<g id="edge17" class="edge">
<title>n5&#45;&gt;n9</title>
<path fill="none" stroke="black" d="M351.88,-180.41C336.89,-181.68 315.68,-183.49 300.68,-184.77"/>
</g>
<!-- n5&#45;&gt;n10 -->
<g id="edge16" class="edge">
<title>n5&#45;&gt;n10</title>
<path fill="none" stroke="black" d="M358.12,-192.57C352.73,-198.79 346.35,-206.15 340.94,-212.4"/>
</g>
<!-- n6&#45;&gt;n7 -->
<g id="edge19" class="edge">
<title>n6&#45;&gt;n7</title>
<path fill="none" stroke="black" d="M153.04,-78.03C159.16,-83.03 166.34,-88.89 172.47,-93.9"/>
</g>
<!-- n11 -->
<g id="node11" class="node">
<title>n11</title>
<ellipse fill="red" stroke="black" cx="99.46" cy="-114.33" rx="18" ry="18"/>
</g>
<!-- n6&#45;&gt;n11 -->
<g id="edge18" class="edge">
<title>n6&#45;&gt;n11</title>
<path fill="none" stroke="black" d="M127.39,-80.67C122.28,-86.83 116.29,-94.04 111.18,-100.21"/>
</g>
<!-- n12 -->
<g id="node12" class="node">
<title>n12</title>
<ellipse fill="green" stroke="black" cx="146.59" cy="-153.88" rx="18" ry="18"/>
</g>
<!-- n6&#45;&gt;n12 -->
<g id="edge20" class="edge">
<title>n6&#45;&gt;n12</title>
<path fill="none" stroke="black" d="M140.61,-84.69C141.91,-99.67 143.73,-120.85 145.03,-135.82"/>
</g>
<!-- n7&#45;&gt;n8 -->
<g id="edge22" class="edge">
<title>n7&#45;&gt;n8</title>
<path fill="none" stroke="black" d="M200.33,-117.19C206.61,-122.56 214.02,-128.9 220.32,-134.29"/>
</g>
<!-- n7&#45;&gt;n11 -->
<g id="edge24" class="edge">
<title>n7&#45;&gt;n11</title>
<path fill="none" stroke="black" d="M168.48,-107.23C153.54,-108.77 132.41,-110.95 117.48,-112.48"/>
</g>
<!-- n7&#45;&gt;n12 -->
<g id="edge21" class="edge">
<title>n7&#45;&gt;n12</title>
<path fill="none" stroke="black" d="M174.97,-119.41C169.72,-125.79 163.52,-133.32 158.25,-139.72"/>
</g>
<!-- n13 -->
<g id="node13" class="node">
<title>n13</title>
<ellipse fill="red" stroke="black" cx="194.16" cy="-193.91" rx="18" ry="18"/>
</g>
<!-- n7&#45;&gt;n13 -->
<g id="edge23" class="edge">
<title>n7&#45;&gt;n13</title>
<path fill="none" stroke="black" d="M188.11,-123.72C189.43,-139.02 191.3,-160.69 192.61,-175.9"/>
</g>
<!-- n8&#45;&gt;n9 -->
<g id="edge26" class="edge">
<title>n8&#45;&gt;n9</title>
<path fill="none" stroke="black" d="M248.24,-157.81C254.6,-163.08 262.11,-169.31 268.48,-174.6"/>
</g>
<!-- n8&#45;&gt;n12 -->
<g id="edge28" class="edge">
<title>n8&#45;&gt;n12</title>
<path fill="none" stroke="black" d="M216.09,-147.8C201.05,-149.12 179.77,-150.98 164.73,-152.3"/>
</g>
<!-- n8&#45;&gt;n13 -->
<g id="edge25" class="edge">
<title>n8&#45;&gt;n13</title>
<path fill="none" stroke="black" d="M222.66,-160.01C217.39,-166.28 211.16,-173.69 205.87,-179.98"/>
</g>
<!-- n14 -->
<g id="node14" class="node">
<title>n14</title>
<ellipse fill="green" stroke="black" cx="241.7" cy="-234.06" rx="18" ry="18"/>
</g>
<!-- n8&#45;&gt;n14 -->
<g id="edge27" class="edge">
<title>n8&#45;&gt;n14</title>
<path fill="none" stroke="black" d="M235.8,-164.42C237.08,-179.49 238.89,-200.81 240.16,-215.89"/>
</g>
<!-- n9&#45;&gt;n10 -->
<g id="edge30" class="edge">
<title>n9&#45;&gt;n10</title>
<path fill="none" stroke="black" d="M296.26,-198.07C302.24,-203.22 309.25,-209.25 315.24,-214.41"/>
</g>
<!-- n9&#45;&gt;n13 -->
<g id="edge32" class="edge">
<title>n9&#45;&gt;n13</title>
<path fill="none" stroke="black" d="M264.28,-187.88C249,-189.2 227.35,-191.06 212.16,-192.37"/>
</g>
<!-- n9&#45;&gt;n14 -->
<g id="edge29" class="edge">
<title>n9&#45;&gt;n14</title>
<path fill="none" stroke="black" d="M270.77,-200.12C265.39,-206.4 259.04,-213.82 253.65,-220.12"/>
</g>
<!-- n15 -->
<g id="node15" class="node">
<title>n15</title>
<ellipse fill="red" stroke="black" cx="288.61" cy="-273.77" rx="18" ry="18"/>
</g>
<!-- n9&#45;&gt;n15 -->
<g id="edge31" class="edge">
<title>n9&#45;&gt;n15</title>
<path fill="none" stroke="black" d="M283.85,-204.43C284.88,-219.44 286.33,-240.66 287.36,-255.67"/>
</g>
<!-- n10&#45;&gt;n14 -->
<g id="edge34" class="edge">
<title>n10&#45;&gt;n14</title>
<path fill="none" stroke="black" d="M310.88,-227.85C295.91,-229.2 274.73,-231.1 259.76,-232.44"/>
</g>
<!-- n10&#45;&gt;n15 -->
<g id="edge33" class="edge">
<title>n10&#45;&gt;n15</title>
<path fill="none" stroke="black" d="M317.29,-239.98C311.98,-246.23 305.71,-253.62 300.39,-259.88"/>
</g>
<!-- n11&#45;&gt;n12 -->
<g id="edge36" class="edge">
<title>n11&#45;&gt;n12</title>
<path fill="none" stroke="black" d="M113.35,-125.99C119.43,-131.09 126.55,-137.07 132.64,-142.18"/>
</g>
<!-- n16 -->
<g id="node16" class="node">
<title>n16</title>
<ellipse fill="green" stroke="black" cx="59.18" cy="-161.53" rx="18" ry="18"/>
</g>
<!-- n11&#45;&gt;n16 -->
<g id="edge35" class="edge">
<title>n11&#45;&gt;n16</title>
<path fill="none" stroke="black" d="M87.59,-128.24C82.39,-134.33 76.31,-141.46 71.1,-147.56"/>
</g>
<!-- n17 -->
<g id="node17" class="node">
<title>n17</title>
<ellipse fill="red" stroke="black" cx="105.57" cy="-201.5" rx="18" ry="18"/>
</g>
<!-- n11&#45;&gt;n17 -->
<g id="edge37" class="edge">
<title>n11&#45;&gt;n17</title>
<path fill="none" stroke="black" d="M100.73,-132.39C101.77,-147.35 103.26,-168.51 104.3,-183.46"/>
</g>
<!-- n12&#45;&gt;n13 -->
<g id="edge39" class="edge">
<title>n12&#45;&gt;n13</title>
<path fill="none" stroke="black" d="M160.6,-165.68C166.74,-170.84 173.93,-176.89 180.08,-182.07"/>
</g>
<!-- n12&#45;&gt;n16 -->
<g id="edge41" class="edge">
<title>n12&#45;&gt;n16</title>
<path fill="none" stroke="black" d="M128.48,-155.47C113.47,-156.78 92.26,-158.64 77.27,-159.95"/>
</g>
<!-- n12&#45;&gt;n17 -->
<g id="edge38" class="edge">
<title>n12&#45;&gt;n17</title>
<path fill="none" stroke="black" d="M134.72,-167.65C129.33,-173.92 122.96,-181.31 117.55,-187.59"/>
</g>
<!-- n18 -->
<g id="node18" class="node">
<title>n18</title>
<ellipse fill="green" stroke="black" cx="153.94" cy="-241.49" rx="18" ry="18"/>
</g>
<!-- n12&#45;&gt;n18 -->
<g id="edge40" class="edge">
<title>n12&#45;&gt;n18</title>
<path fill="none" stroke="black" d="M148.11,-172.03C149.37,-187.07 151.16,-208.33 152.42,-223.36"/>
</g>
<!-- n13&#45;&gt;n14 -->
<g id="edge43" class="edge">
<title>n13&#45;&gt;n14</title>
<path fill="none" stroke="black" d="M208.17,-205.74C214.31,-210.93 221.49,-216.99 227.63,-222.18"/>
</g>
<!-- n13&#45;&gt;n17 -->
<g id="edge45" class="edge">
<title>n13&#45;&gt;n17</title>
<path fill="none" stroke="black" d="M175.81,-195.49C160.5,-196.8 138.81,-198.65 123.6,-199.95"/>
</g>
<!-- n13&#45;&gt;n18 -->
<g id="edge42" class="edge">
<title>n13&#45;&gt;n18</title>
<path fill="none" stroke="black" d="M182.53,-207.67C177.24,-213.93 170.99,-221.32 165.69,-227.59"/>
</g>
<!-- n19 -->
<g id="node19" class="node">
<title>n19</title>
<ellipse fill="red" stroke="black" cx="201.58" cy="-282.42" rx="18" ry="18"/>
</g>
<!-- n13&#45;&gt;n19 -->
<g id="edge44" class="edge">
<title>n13&#45;&gt;n19</title>
<path fill="none" stroke="black" d="M195.7,-212.25C196.98,-227.54 198.79,-249.21 200.07,-264.41"/>
</g>
<!-- n14&#45;&gt;n15 -->
<g id="edge47" class="edge">
<title>n14&#45;&gt;n15</title>
<path fill="none" stroke="black" d="M255.52,-245.76C261.58,-250.89 268.67,-256.89 274.73,-262.02"/>
</g>
<!-- n14&#45;&gt;n18 -->
<g id="edge49" class="edge">
<title>n14&#45;&gt;n18</title>
<path fill="none" stroke="black" d="M223.52,-235.6C208.46,-236.88 187.16,-238.68 172.1,-239.95"/>
</g>
<!-- n14&#45;&gt;n19 -->
<g id="edge46" class="edge">
<title>n14&#45;&gt;n19</title>
<path fill="none" stroke="black" d="M230.1,-248.05C224.82,-254.41 218.59,-261.92 213.3,-268.3"/>
</g>
<!-- n20 -->
<g id="node20" class="node">
<title>n20</title>
<ellipse fill="green" stroke="black" cx="248.53" cy="-321.63" rx="18" ry="18"/>
</g>
<!-- n14&#45;&gt;n20 -->
<g id="edge48" class="edge">
<title>n14&#45;&gt;n20</title>
<path fill="none" stroke="black" d="M243.12,-252.21C244.29,-267.24 245.95,-288.49 247.12,-303.51"/>
</g>
<!-- n15&#45;&gt;n19 -->
<g id="edge51" class="edge">
<title>n15&#45;&gt;n19</title>
<path fill="none" stroke="black" d="M270.57,-275.56C255.64,-277.04 234.52,-279.14 219.59,-280.63"/>
</g>
<!-- n15&#45;&gt;n20 -->
<g id="edge50" class="edge">
<title>n15&#45;&gt;n20</title>
<path fill="none" stroke="black" d="M277.02,-287.61C271.74,-293.9 265.52,-301.34 260.24,-307.65"/>
</g>
<!-- n16&#45;&gt;n17 -->
<g id="edge53" class="edge">
<title>n16&#45;&gt;n17</title>
<path fill="none" stroke="black" d="M72.85,-173.31C78.83,-178.46 85.84,-184.5 91.84,-189.67"/>
</g>
<!-- n21 -->
<g id="node21" class="node">
<title>n21</title>
<ellipse fill="green" stroke="black" cx="18" cy="-208.46" rx="18" ry="18"/>
</g>
<!-- n16&#45;&gt;n21 -->
<g id="edge52" class="edge">
<title>n16&#45;&gt;n21</title>
<path fill="none" stroke="black" d="M47.27,-175.11C41.85,-181.28 35.46,-188.57 30.03,-194.76"/>
</g>
<!-- n22 -->
<g id="node22" class="node">
<title>n22</title>
<ellipse fill="red" stroke="black" cx="66.37" cy="-248.46" rx="18" ry="18"/>
</g>
<!-- n16&#45;&gt;n22 -->
<g id="edge54" class="edge">
<title>n16&#45;&gt;n22</title>
<path fill="none" stroke="black" d="M60.67,-179.54C61.9,-194.46 63.65,-215.56 64.88,-230.47"/>
</g>
<!-- n17&#45;&gt;n18 -->
<g id="edge56" class="edge">
<title>n17&#45;&gt;n18</title>
<path fill="none" stroke="black" d="M119.56,-213.06C125.92,-218.32 133.43,-224.53 139.81,-229.81"/>
</g>
<!-- n17&#45;&gt;n21 -->
<g id="edge58" class="edge">
<title>n17&#45;&gt;n21</title>
<path fill="none" stroke="black" d="M87.42,-202.94C72.39,-204.14 51.14,-205.83 36.12,-207.02"/>
</g>
<!-- n17&#45;&gt;n22 -->
<g id="edge55" class="edge">
<title>n17&#45;&gt;n22</title>
<path fill="none" stroke="black" d="M94.02,-215.33C88.96,-221.39 83.03,-228.49 77.97,-234.56"/>
</g>
<!-- n23 -->
<g id="node23" class="node">
<title>n23</title>
<ellipse fill="green" stroke="black" cx="114.11" cy="-288.43" rx="18" ry="18"/>
</g>
<!-- n17&#45;&gt;n23 -->
<g id="edge57" class="edge">
<title>n17&#45;&gt;n23</title>
<path fill="none" stroke="black" d="M107.34,-219.51C108.8,-234.43 110.88,-255.53 112.34,-270.44"/>
</g>
<!-- n18&#45;&gt;n19 -->
<g id="edge60" class="edge">
<title>n18&#45;&gt;n19</title>
<path fill="none" stroke="black" d="M167.72,-253.33C173.98,-258.71 181.38,-265.07 187.66,-270.46"/>
</g>
<!-- n18&#45;&gt;n22 -->
<g id="edge62" class="edge">
<title>n18&#45;&gt;n22</title>
<path fill="none" stroke="black" d="M135.79,-242.93C120.76,-244.13 99.51,-245.82 84.49,-247.01"/>
</g>
<!-- n18&#45;&gt;n23 -->
<g id="edge59" class="edge">
<title>n18&#45;&gt;n23</title>
<path fill="none" stroke="black" d="M142.2,-255.32C137.07,-261.38 131.05,-268.47 125.9,-274.54"/>
</g>
<!-- n24 -->
<g id="node24" class="node">
<title>n24</title>
<ellipse fill="red" stroke="black" cx="161.48" cy="-328.67" rx="18" ry="18"/>
</g>
<!-- n18&#45;&gt;n24 -->
<g id="edge61" class="edge">
<title>n18&#45;&gt;n24</title>
<path fill="none" stroke="black" d="M155.5,-259.55C156.8,-274.51 158.63,-295.67 159.92,-310.63"/>
</g>
<!-- n19&#45;&gt;n20 -->
<g id="edge64" class="edge">
<title>n19&#45;&gt;n20</title>
<path fill="none" stroke="black" d="M215.41,-293.97C221.47,-299.03 228.57,-304.96 234.63,-310.02"/>
</g>
<!-- n19&#45;&gt;n23 -->
<g id="edge66" class="edge">
<title>n19&#45;&gt;n23</title>
<path fill="none" stroke="black" d="M183.45,-283.66C168.44,-284.7 147.22,-286.15 132.21,-287.18"/>
</g>
<!-- n19&#45;&gt;n24 -->
<g id="edge63" class="edge">
<title>n19&#45;&gt;n24</title>
<path fill="none" stroke="black" d="M189.76,-296.05C184.59,-302.01 178.53,-309 173.35,-314.98"/>
</g>
<!-- n25 -->
<g id="node25" class="node">
<title>n25</title>
<ellipse fill="green" stroke="black" cx="208.21" cy="-369.95" rx="18" ry="18"/>
</g>
<!-- n19&#45;&gt;n25 -->
<g id="edge65" class="edge">
<title>n19&#45;&gt;n25</title>
<path fill="none" stroke="black" d="M202.95,-300.55C204.09,-315.58 205.7,-336.82 206.83,-351.83"/>
</g>
<!-- n20&#45;&gt;n24 -->
<g id="edge68" class="edge">
<title>n20&#45;&gt;n24</title>
<path fill="none" stroke="black" d="M230.49,-323.09C215.55,-324.29 194.43,-326 179.5,-327.21"/>
</g>
<!-- n20&#45;&gt;n25 -->
<g id="edge67" class="edge">
<title>n20&#45;&gt;n25</title>
<path fill="none" stroke="black" d="M236.87,-335.6C231.56,-341.96 225.3,-349.46 219.98,-355.84"/>
</g>
<!-- n21&#45;&gt;n22 -->
<g id="edge69" class="edge">
<title>n21&#45;&gt;n22</title>
<path fill="none" stroke="black" d="M31.99,-220.03C38.35,-225.29 45.86,-231.5 52.24,-236.78"/>
</g>
<!-- n22&#45;&gt;n23 -->
<g id="edge70" class="edge">
<title>n22&#45;&gt;n23</title>
<path fill="none" stroke="black" d="M80.18,-260.02C86.46,-265.27 93.87,-271.48 100.17,-276.75"/>
</g>
<!-- n23&#45;&gt;n24 -->
<g id="edge71" class="edge">
<title>n23&#45;&gt;n24</title>
<path fill="none" stroke="black" d="M128.07,-300.28C134.18,-305.48 141.34,-311.56 147.46,-316.76"/>
</g>
<!-- n24&#45;&gt;n25 -->
<g id="edge72" class="edge">
<title>n24&#45;&gt;n25</title>
<path fill="none" stroke="black" d="M175,-340.61C181.14,-346.04 188.4,-352.45 194.56,-357.89"/>
</g>
</g>
</svg>
