<?xml version="1.0" encoding="UTF-8" standalone="no"?>
<!DOCTYPE svg PUBLIC "-//W3C//DTD SVG 1.1//EN"
 "http://www.w3.org/Graphics/SVG/1.1/DTD/svg11.dtd">
<!-- Generated by graphviz version 2.43.0 (0)
 -->
<!-- Title: G Pages: 1 -->
<svg width="415pt" height="412pt"
 viewBox="0.00 0.00 414.50 412.00" xmlns="http://www.w3.org/2000/svg" xmlns:xlink="http://www.w3.org/1999/xlink">
<g id="graph0" class="graph" transform="scale(1 1) rotate(0) translate(4 408)">
<title>G</title>
<polygon fill="white" stroke="transparent" points="-4,4 -4,-408 410.5,-408 410.5,4 -4,4"/>
<!-- n0in1 -->
<!-- n1 -->
<!-- for 1:1 -->
<g id="n1" class="node">
<title>n1</title>
<polygon fill="lightpink" stroke="transparent" points="166,-367 108,-367 108,-342 166,-342 166,-367"/>
<polygon fill="none" stroke="black" points="108,-341.5 108,-366.5 166,-366.5 166,-341.5 108,-341.5"/>
<text text-anchor="start" x="113" y="-350.3" font-family="Serif" font-size="14.00">for 1:1</text>
</g>
<!-- n0in1&#45;&gt;n1 -->
<g id="e1" class="edge">
<title>n0in1:s&#45;&gt;n1:n</title>
<path fill="none" stroke="black" d="M137,-403C137,-388.88 137,-384.1 137,-372.17"/>
<polygon fill="black" stroke="black" points="138.75,-372 137,-367 135.25,-372 138.75,-372"/>
</g>
<!-- n0out1 -->
<!-- n1&#45;&gt;n0out1 -->
<g id="e19" class="edge">
<title>n1:s&#45;&gt;n0out1:n</title>
<path fill="none" stroke="black" d="M122,-342C122,-273.33 12,-302.17 12,-233.5 12,-233.5 12,-233.5 12,-109.5 12,-63.07 12,-50.17 12,-6.22"/>
<polygon fill="black" stroke="black" points="13.75,-6 12,-1 10.25,-6 13.75,-6"/>
</g>
<!-- n2 -->
<!-- Query Cell -->
<g id="n2" class="node">
<title>n2</title>
<polygon fill="yellow" stroke="transparent" points="294,-306 208,-306 208,-281 294,-281 294,-306"/>
<polygon fill="none" stroke="black" points="208,-280.5 208,-305.5 294,-305.5 294,-280.5 208,-280.5"/>
<text text-anchor="start" x="213" y="-289.3" font-family="Serif" font-size="14.00">Query Cell</text>
</g>
<!-- n1&#45;&gt;n2 -->
<g id="e7" class="edge">
<title>n1:s&#45;&gt;n2:n</title>
<path fill="none" stroke="black" d="M152,-342C152,-306.14 221.38,-339.96 228.42,-311.18"/>
<polygon fill="black" stroke="black" points="230.19,-311.16 229,-306 226.71,-310.78 230.19,-311.16"/>
</g>
<!-- n3 -->
<!-- Fail -->
<g id="n3" class="node">
<title>n3</title>
<polygon fill="red" stroke="transparent" points="406.5,-245 369.5,-245 369.5,-220 406.5,-220 406.5,-245"/>
<polygon fill="none" stroke="black" points="370,-219.5 370,-244.5 407,-244.5 407,-219.5 370,-219.5"/>
<text text-anchor="start" x="375" y="-228.3" font-family="Serif" font-size="14.00">Fail</text>
</g>
<!-- n2&#45;&gt;n3 -->
<g id="e12" class="edge">
<title>n2:s&#45;&gt;n3:n</title>
<path fill="none" stroke="black" d="M280,-281C280,-231.97 380.65,-291.04 388.51,-250.46"/>
<polygon fill="black" stroke="black" points="390.3,-250.14 389,-245 386.81,-249.83 390.3,-250.14"/>
</g>
<!-- n4 -->
<!-- Birth -->
<g id="n4" class="node">
<title>n4</title>
<polygon fill="lightblue" stroke="transparent" points="313,-245 265,-245 265,-220 313,-220 313,-245"/>
<polygon fill="none" stroke="black" points="265,-219.5 265,-244.5 313,-244.5 313,-219.5 265,-219.5"/>
<text text-anchor="start" x="270.5" y="-228.3" font-family="Serif" font-size="14.00">Birth</text>
</g>
<!-- n2&#45;&gt;n4 -->
<g id="e9" class="edge">
<title>n2:s&#45;&gt;n4:n</title>
<path fill="none" stroke="black" d="M252,-281C252,-260.03 282.91,-266.49 288.23,-250.23"/>
<polygon fill="black" stroke="black" points="290,-250.2 289,-245 286.54,-249.69 290,-250.2"/>
</g>
<!-- n6 -->
<!-- Query Cell -->
<g id="n6" class="node">
<title>n6</title>
<polygon fill="yellow" stroke="transparent" points="209,-245 123,-245 123,-220 209,-220 209,-245"/>
<polygon fill="none" stroke="black" points="123,-219.5 123,-244.5 209,-244.5 209,-219.5 123,-219.5"/>
<text text-anchor="start" x="128" y="-228.3" font-family="Serif" font-size="14.00">Query Cell</text>
</g>
<!-- n2&#45;&gt;n6 -->
<g id="e17" class="edge">
<title>n2:s&#45;&gt;n6:n</title>
<path fill="none" stroke="black" d="M222,-281C222,-244.76 151.72,-279.28 144.58,-250.23"/>
<polygon fill="black" stroke="black" points="146.29,-249.78 144,-245 142.81,-250.16 146.29,-249.78"/>
</g>
<!-- n5 -->
<!-- Persist -->
<g id="n5" class="node">
<title>n5</title>
<polygon fill="lightblue" stroke="transparent" points="332,-184 272,-184 272,-159 332,-159 332,-184"/>
<polygon fill="none" stroke="black" points="272,-158.5 272,-183.5 332,-183.5 332,-158.5 272,-158.5"/>
<text text-anchor="start" x="277" y="-167.3" font-family="Serif" font-size="14.00">Persist</text>
</g>
<!-- n4&#45;&gt;n5 -->
<g id="e10" class="edge">
<title>n4:s&#45;&gt;n5:n</title>
<path fill="none" stroke="black" d="M301,-220C301,-205.87 301.78,-201.11 301.96,-189.17"/>
<polygon fill="black" stroke="black" points="303.71,-189.01 302,-184 300.21,-188.99 303.71,-189.01"/>
</g>
<!-- n4&#45;&gt;n5 -->
<g id="e11" class="edge">
<title>n4:s&#45;&gt;n5:n</title>
<path fill="none" stroke="black" d="M277,-220C277,-202.5 297.18,-203.11 301.28,-189.29"/>
<polygon fill="black" stroke="black" points="303.06,-189.19 302,-184 299.59,-188.72 303.06,-189.19"/>
</g>
<!-- n5&#45;&gt;n2 -->
<g id="e13" class="edge">
<title>n5:s&#45;&gt;n2:n</title>
<path fill="none" stroke="black" d="M287,-157.5C287,-150.82 277.15,-154.24 272,-158.5 261.12,-167.5 257.79,-205.99 256,-220 254.59,-231.02 251.61,-234.79 256,-245 265.19,-266.37 284.81,-259.63 294,-281 298.3,-291 301.51,-297.62 294,-305.5 289.16,-310.57 279.77,-313.85 275.37,-311.24"/>
<polygon fill="black" stroke="black" points="276.81,-310.19 273,-306.5 273.68,-311.75 276.81,-310.19"/>
</g>
<!-- n5&#45;&gt;n2 -->
<g id="e14" class="edge">
<title>n5:s&#45;&gt;n2:n</title>
<path fill="none" stroke="black" d="M317,-157.5C317,-150.82 327.44,-153.62 332,-158.5 358.44,-186.76 333.36,-208 322,-245 313.3,-273.32 318.58,-288.96 294,-305.5 288.19,-309.41 279.28,-313.28 275.19,-311.02"/>
<polygon fill="black" stroke="black" points="276.76,-310.24 273,-306.5 273.61,-311.76 276.76,-310.24"/>
</g>
<!-- n6&#45;&gt;n1 -->
<g id="e5" class="edge">
<title>n6:s&#45;&gt;n1:n</title>
<path fill="none" stroke="black" d="M137,-218.5C137,-212.26 127.25,-214.93 123,-219.5 115.28,-227.79 120.65,-233.91 123,-245 132.77,-291.13 156.23,-295.87 166,-342 168.26,-352.65 173.57,-358.67 166,-366.5 158.58,-374.18 143.56,-378.67 138.62,-372.66"/>
<polygon fill="black" stroke="black" points="140.17,-371.75 137,-367.5 136.83,-372.79 140.17,-371.75"/>
</g>
<!-- n7 -->
<!-- Fail -->
<g id="n7" class="node">
<title>n7</title>
<polygon fill="red" stroke="transparent" points="253.5,-184 216.5,-184 216.5,-159 253.5,-159 253.5,-184"/>
<polygon fill="none" stroke="black" points="217,-158.5 217,-183.5 254,-183.5 254,-158.5 217,-158.5"/>
<text text-anchor="start" x="222" y="-167.3" font-family="Serif" font-size="14.00">Fail</text>
</g>
<!-- n6&#45;&gt;n7 -->
<g id="e15" class="edge">
<title>n6:s&#45;&gt;n7:n</title>
<path fill="none" stroke="black" d="M195,-220C195,-197.64 229.84,-206.52 235.29,-189.05"/>
<polygon fill="black" stroke="black" points="237.03,-189.2 236,-184 233.57,-188.71 237.03,-189.2"/>
</g>
<!-- n8 -->
<!-- ClearCurr -->
<g id="n8" class="node">
<title>n8</title>
<polygon fill="lightblue" stroke="transparent" points="160,-184 78,-184 78,-159 160,-159 160,-184"/>
<polygon fill="none" stroke="black" points="78,-158.5 78,-183.5 160,-183.5 160,-158.5 78,-158.5"/>
<text text-anchor="start" x="83" y="-167.3" font-family="Serif" font-size="14.00">ClearCurr</text>
</g>
<!-- n6&#45;&gt;n8 -->
<g id="e8" class="edge">
<title>n6:s&#45;&gt;n8:n</title>
<path fill="none" stroke="black" d="M167,-220C167,-195.21 125.51,-208.45 119.68,-189"/>
<polygon fill="black" stroke="black" points="121.41,-188.72 119,-184 117.94,-189.19 121.41,-188.72"/>
</g>
<!-- n9 -->
<!-- CopyNext -->
<g id="n9" class="node">
<title>n9</title>
<polygon fill="lightblue" stroke="transparent" points="159.5,-123 78.5,-123 78.5,-98 159.5,-98 159.5,-123"/>
<polygon fill="none" stroke="black" points="79,-97.5 79,-122.5 160,-122.5 160,-97.5 79,-97.5"/>
<text text-anchor="start" x="84" y="-106.3" font-family="Serif" font-size="14.00">CopyNext</text>
</g>
<!-- n8&#45;&gt;n9 -->
<g id="e4" class="edge">
<title>n8:s&#45;&gt;n9:n</title>
<path fill="none" stroke="black" d="M98,-159C98,-142.15 115.76,-141.65 119.37,-128.13"/>
<polygon fill="black" stroke="black" points="121.12,-128.18 120,-123 117.65,-127.75 121.12,-128.18"/>
</g>
<!-- n8&#45;&gt;n9 -->
<g id="e18" class="edge">
<title>n8:s&#45;&gt;n9:n</title>
<path fill="none" stroke="black" d="M140,-159C140,-142.56 123.86,-141.38 120.58,-128.03"/>
<polygon fill="black" stroke="black" points="122.31,-127.77 120,-123 118.83,-128.17 122.31,-127.77"/>
</g>
<!-- n10 -->
<!-- ClearNext -->
<g id="n10" class="node">
<title>n10</title>
<polygon fill="lightblue" stroke="transparent" points="159.5,-62 76.5,-62 76.5,-37 159.5,-37 159.5,-62"/>
<polygon fill="none" stroke="black" points="77,-36.5 77,-61.5 160,-61.5 160,-36.5 77,-36.5"/>
<text text-anchor="start" x="82" y="-45.3" font-family="Serif" font-size="14.00">ClearNext</text>
</g>
<!-- n9&#45;&gt;n10 -->
<g id="e2" class="edge">
<title>n9:s&#45;&gt;n10:n</title>
<path fill="none" stroke="black" d="M99,-98C99,-81.56 115.14,-80.38 118.42,-67.03"/>
<polygon fill="black" stroke="black" points="120.17,-67.17 119,-62 116.69,-66.77 120.17,-67.17"/>
</g>
<!-- n9&#45;&gt;n10 -->
<g id="e6" class="edge">
<title>n9:s&#45;&gt;n10:n</title>
<path fill="none" stroke="black" d="M140,-98C140,-81.36 123.05,-80.51 119.61,-67.08"/>
<polygon fill="black" stroke="black" points="121.33,-66.76 119,-62 117.85,-67.17 121.33,-66.76"/>
</g>
<!-- n10&#45;&gt;n6 -->
<g id="e3" class="edge">
<title>n10:s&#45;&gt;n6:n</title>
<path fill="none" stroke="black" d="M98,-35.5C98,-25.93 83.51,-29.99 76.5,-36.5 28.38,-81.14 28.78,-132.13 69,-184 108.37,-234.77 169.63,-169.23 209,-220 215.67,-228.61 216.51,-236.62 209,-244.5 204.16,-249.57 194.77,-252.85 190.37,-250.24"/>
<polygon fill="black" stroke="black" points="191.81,-249.19 188,-245.5 188.68,-250.75 191.81,-249.19"/>
</g>
<!-- n10&#45;&gt;n6 -->
<g id="e16" class="edge">
<title>n10:s&#45;&gt;n6:n</title>
<path fill="none" stroke="black" d="M140,-35.5C140,-26.82 152.75,-31.05 159.5,-36.5 225.22,-89.57 197.9,-136.26 209,-220 210.43,-230.79 216.51,-236.62 209,-244.5 204.16,-249.57 194.77,-252.85 190.37,-250.24"/>
<polygon fill="black" stroke="black" points="191.81,-249.19 188,-245.5 188.68,-250.75 191.81,-249.19"/>
</g>
</g>
</svg>
