<?xml version="1.0" encoding="UTF-8" standalone="no"?>
<!DOCTYPE svg PUBLIC "-//W3C//DTD SVG 1.1//EN"
 "http://www.w3.org/Graphics/SVG/1.1/DTD/svg11.dtd">
<!-- Generated by graphviz version 2.43.0 (0)
 -->
<!-- Title: G Pages: 1 -->
<svg width="228pt" height="564pt"
 viewBox="0.00 0.00 227.50 564.00" xmlns="http://www.w3.org/2000/svg" xmlns:xlink="http://www.w3.org/1999/xlink">
<g id="graph0" class="graph" transform="scale(1 1) rotate(0) translate(4 560)">
<title>G</title>
<polygon fill="white" stroke="transparent" points="-4,4 -4,-560 223.5,-560 223.5,4 -4,4"/>
<!-- n0in1 -->
<!-- n1 -->
<!-- turn -->
<g id="n1" class="node">
<title>n1</title>
<polygon fill="lightpink" stroke="transparent" points="144,-504 72,-504 72,-479 144,-479 144,-504"/>
<polygon fill="none" stroke="black" points="72,-478.5 72,-503.5 144,-503.5 144,-478.5 72,-478.5"/>
<text text-anchor="start" x="92.5" y="-487.3" font-family="Serif" font-size="14.00">turn</text>
</g>
<!-- n0in1&#45;&gt;n1 -->
<!-- S -->
<g id="e1" class="edge">
<title>n0in1:s&#45;&gt;n1:n</title>
<path fill="none" stroke="black" d="M108,-555C108,-534.1 108,-527.66 108,-509.02"/>
<polygon fill="black" stroke="black" points="109.75,-509 108,-504 106.25,-509 109.75,-509"/>
<text text-anchor="middle" x="113" y="-525.8" font-family="Serif" font-size="14.00">S</text>
</g>
<!-- n0out1 -->
<!-- n2 -->
<!-- turn_left -->
<g id="n2" class="node">
<title>n2</title>
<polygon fill="lightblue" stroke="transparent" points="72,-428 0,-428 0,-403 72,-403 72,-428"/>
<polygon fill="none" stroke="black" points="0,-402.5 0,-427.5 72,-427.5 72,-402.5 0,-402.5"/>
<text text-anchor="start" x="5" y="-411.3" font-family="Serif" font-size="14.00">turn_left</text>
</g>
<!-- n1&#45;&gt;n2 -->
<!-- S -->
<g id="e15" class="edge">
<title>n1:s&#45;&gt;n2:n</title>
<path fill="none" stroke="black" d="M84,-479C84,-449.7 41.46,-457.95 36.48,-433.05"/>
<polygon fill="black" stroke="black" points="38.21,-432.81 36,-428 34.73,-433.14 38.21,-432.81"/>
<text text-anchor="middle" x="80" y="-449.8" font-family="Serif" font-size="14.00">S</text>
</g>
<!-- n3 -->
<!-- turn_right -->
<g id="n3" class="node">
<title>n3</title>
<polygon fill="lightblue" stroke="transparent" points="219.5,-428 136.5,-428 136.5,-403 219.5,-403 219.5,-428"/>
<polygon fill="none" stroke="black" points="137,-402.5 137,-427.5 220,-427.5 220,-402.5 137,-402.5"/>
<text text-anchor="start" x="142" y="-411.3" font-family="Serif" font-size="14.00">turn_right</text>
</g>
<!-- n1&#45;&gt;n3 -->
<!-- S -->
<g id="e14" class="edge">
<title>n1:s&#45;&gt;n3:n</title>
<path fill="none" stroke="black" d="M132,-479C132,-449.98 173.65,-457.72 178.53,-433.01"/>
<polygon fill="black" stroke="black" points="180.28,-433.14 179,-428 176.79,-432.82 180.28,-433.14"/>
<text text-anchor="middle" x="173" y="-449.8" font-family="Serif" font-size="14.00">S</text>
</g>
<!-- n4 -->
<!-- move_fwd -->
<g id="n4" class="node">
<title>n4</title>
<polygon fill="lightblue" stroke="transparent" points="149,-352 67,-352 67,-327 149,-327 149,-352"/>
<polygon fill="none" stroke="black" points="67,-326.5 67,-351.5 149,-351.5 149,-326.5 67,-326.5"/>
<text text-anchor="start" x="72" y="-335.3" font-family="Serif" font-size="14.00">move_fwd</text>
</g>
<!-- n1&#45;&gt;n4 -->
<!-- S -->
<g id="e2" class="edge">
<title>n1:s&#45;&gt;n4:n</title>
<path fill="none" stroke="black" d="M108,-479C108,-424.32 108,-409.37 108,-357.17"/>
<polygon fill="black" stroke="black" points="109.75,-357 108,-352 106.25,-357 109.75,-357"/>
<text text-anchor="middle" x="113" y="-411.8" font-family="Serif" font-size="14.00">S</text>
</g>
<!-- n2&#45;&gt;n4 -->
<!-- S -->
<g id="e3" class="edge">
<title>n2:s&#45;&gt;n4:n</title>
<path fill="none" stroke="black" d="M18,-403C18,-384.6 27.78,-380.33 43,-370 66.16,-354.28 102.73,-378.35 107.48,-357.22"/>
<polygon fill="black" stroke="black" points="109.25,-357.15 108,-352 105.77,-356.8 109.25,-357.15"/>
<text text-anchor="middle" x="48" y="-373.8" font-family="Serif" font-size="14.00">S</text>
</g>
<!-- n2&#45;&gt;n4 -->
<!-- S -->
<g id="e4" class="edge">
<title>n2:s&#45;&gt;n4:n</title>
<path fill="none" stroke="black" d="M54,-403C54,-383.18 69.34,-383.34 84,-370 92.32,-362.43 103.69,-364.31 107.03,-357.08"/>
<polygon fill="black" stroke="black" points="108.79,-357.24 108,-352 105.35,-356.59 108.79,-357.24"/>
<text text-anchor="middle" x="89" y="-373.8" font-family="Serif" font-size="14.00">S</text>
</g>
<!-- n3&#45;&gt;n4 -->
<!-- S -->
<g id="e5" class="edge">
<title>n3:s&#45;&gt;n4:n</title>
<path fill="none" stroke="black" d="M158,-403C158,-388.74 117.64,-371.75 109.44,-356.93"/>
<polygon fill="black" stroke="black" points="111.08,-356.31 108,-352 107.72,-357.29 111.08,-356.31"/>
<text text-anchor="middle" x="148" y="-373.8" font-family="Serif" font-size="14.00">S</text>
</g>
<!-- n3&#45;&gt;n4 -->
<!-- S -->
<g id="e6" class="edge">
<title>n3:s&#45;&gt;n4:n</title>
<path fill="none" stroke="black" d="M200,-403C200,-378.91 178.1,-381.62 157,-370 138.42,-359.77 112.87,-372.59 108.61,-357.15"/>
<polygon fill="black" stroke="black" points="110.33,-356.76 108,-352 106.85,-357.17 110.33,-356.76"/>
<text text-anchor="middle" x="196" y="-373.8" font-family="Serif" font-size="14.00">S</text>
</g>
<!-- n5 -->
<!-- reprod -->
<g id="n5" class="node">
<title>n5</title>
<polygon fill="lightpink" stroke="transparent" points="135.5,-276 76.5,-276 76.5,-251 135.5,-251 135.5,-276"/>
<polygon fill="none" stroke="black" points="77,-250.5 77,-275.5 136,-275.5 136,-250.5 77,-250.5"/>
<text text-anchor="start" x="82" y="-259.3" font-family="Serif" font-size="14.00">reprod</text>
</g>
<!-- n4&#45;&gt;n5 -->
<!-- S -->
<g id="e10" class="edge">
<title>n4:s&#45;&gt;n5:n</title>
<path fill="none" stroke="black" d="M87,-327C87,-312.01 87.92,-307.71 94,-294 97.12,-286.95 103.3,-285.95 105.85,-281.15"/>
<polygon fill="black" stroke="black" points="107.62,-281.26 107,-276 104.21,-280.5 107.62,-281.26"/>
<text text-anchor="middle" x="99" y="-297.8" font-family="Serif" font-size="14.00">S</text>
</g>
<!-- n4&#45;&gt;n5 -->
<!-- S -->
<g id="e11" class="edge">
<title>n4:s&#45;&gt;n5:n</title>
<path fill="none" stroke="black" d="M129,-327C129,-304.15 110.14,-301.05 107.35,-281.13"/>
<polygon fill="black" stroke="black" points="109.08,-280.87 107,-276 105.59,-281.11 109.08,-280.87"/>
<text text-anchor="middle" x="128" y="-297.8" font-family="Serif" font-size="14.00">S</text>
</g>
<!-- n6 -->
<!-- reproduce -->
<g id="n6" class="node">
<title>n6</title>
<polygon fill="lightblue" stroke="transparent" points="97.5,-200 14.5,-200 14.5,-175 97.5,-175 97.5,-200"/>
<polygon fill="none" stroke="black" points="15,-174.5 15,-199.5 98,-199.5 98,-174.5 15,-174.5"/>
<text text-anchor="start" x="20" y="-183.3" font-family="Serif" font-size="14.00">reproduce</text>
</g>
<!-- n5&#45;&gt;n6 -->
<!-- S -->
<g id="e8" class="edge">
<title>n5:s&#45;&gt;n6:n</title>
<path fill="none" stroke="black" d="M92,-251C92,-225.33 61.49,-227.1 57.44,-205.08"/>
<polygon fill="black" stroke="black" points="59.18,-204.83 57,-200 55.69,-205.13 59.18,-204.83"/>
<text text-anchor="middle" x="88" y="-221.8" font-family="Serif" font-size="14.00">S</text>
</g>
<!-- n7 -->
<!-- starve -->
<g id="n7" class="node">
<title>n7</title>
<polygon fill="lightblue" stroke="transparent" points="106,-124 50,-124 50,-99 106,-99 106,-124"/>
<polygon fill="none" stroke="black" points="50,-98.5 50,-123.5 106,-123.5 106,-98.5 50,-98.5"/>
<text text-anchor="start" x="55" y="-107.3" font-family="Serif" font-size="14.00">starve</text>
</g>
<!-- n5&#45;&gt;n7 -->
<!-- S -->
<g id="e12" class="edge">
<title>n5:s&#45;&gt;n7:n</title>
<path fill="none" stroke="black" d="M122,-251C122,-200.87 119.12,-184.79 93,-142 88.68,-134.92 81.72,-134.31 79.07,-129.08"/>
<polygon fill="black" stroke="black" points="80.74,-128.53 78,-124 77.32,-129.25 80.74,-128.53"/>
<text text-anchor="middle" x="123" y="-183.8" font-family="Serif" font-size="14.00">S</text>
</g>
<!-- n6&#45;&gt;n7 -->
<!-- S -->
<g id="e7" class="edge">
<title>n6:s&#45;&gt;n7:n</title>
<path fill="none" stroke="black" d="M78,-175C78,-154.1 78,-147.66 78,-129.02"/>
<polygon fill="black" stroke="black" points="79.75,-129 78,-124 76.25,-129 79.75,-129"/>
<text text-anchor="middle" x="84" y="-145.8" font-family="Serif" font-size="14.00">S</text>
</g>
<!-- n6&#45;&gt;n7 -->
<!-- S -->
<g id="e13" class="edge">
<title>n6:s&#45;&gt;n7:n</title>
<path fill="none" stroke="black" d="M36,-175C36,-168.69 67.02,-140.98 75.74,-128.65"/>
<polygon fill="black" stroke="black" points="77.39,-129.26 78,-124 74.24,-127.73 77.39,-129.26"/>
<text text-anchor="middle" x="69" y="-145.8" font-family="Serif" font-size="14.00">S</text>
</g>
<!-- n7&#45;&gt;n0out1 -->
<g id="e17" class="edge">
<title>n7:s&#45;&gt;n0out1:n</title>
<path fill="none" stroke="black" d="M64,-99C64,-57.1 73.16,-45.74 73.95,-6.46"/>
<polygon fill="black" stroke="black" points="75.7,-6.02 74,-1 72.2,-5.98 75.7,-6.02"/>
</g>
<!-- n8 -->
<g id="n8" class="node">
<title>n8</title>
<polygon fill="lavender" stroke="transparent" points="114,-48 90,-48 90,-38 114,-38 114,-48"/>
<polygon fill="none" stroke="black" points="90,-38 90,-48 114,-48 114,-38 90,-38"/>
</g>
<!-- n7&#45;&gt;n8 -->
<!-- S -->
<g id="e9" class="edge">
<title>n7:s&#45;&gt;n8:n</title>
<path fill="none" stroke="black" d="M92,-99C92,-77.71 100.5,-71.96 101.83,-53.1"/>
<polygon fill="black" stroke="black" points="103.58,-53.06 102,-48 100.08,-52.94 103.58,-53.06"/>
<text text-anchor="middle" x="104" y="-69.8" font-family="Serif" font-size="14.00">S</text>
</g>
<!-- n8&#45;&gt;n0out1 -->
<g id="e16" class="edge">
<title>n8:s&#45;&gt;n0out1:n</title>
<path fill="none" stroke="black" d="M102,-38C102,-19.31 79,-21.05 74.69,-6.19"/>
<polygon fill="black" stroke="black" points="76.4,-5.72 74,-1 72.93,-6.19 76.4,-5.72"/>
</g>
</g>
</svg>
