<?xml version="1.0" encoding="UTF-8" standalone="no"?>
<!DOCTYPE svg PUBLIC "-//W3C//DTD SVG 1.1//EN"
 "http://www.w3.org/Graphics/SVG/1.1/DTD/svg11.dtd">
<!-- Generated by graphviz version 2.43.0 (0)
 -->
<!-- Title: G Pages: 1 -->
<svg width="209pt" height="197pt"
 viewBox="0.00 0.00 209.20 197.50" xmlns="http://www.w3.org/2000/svg" xmlns:xlink="http://www.w3.org/1999/xlink">
<g id="graph0" class="graph" transform="scale(1 1) rotate(0) translate(4 193.5)">
<title>G</title>
<polygon fill="white" stroke="transparent" points="-4,4 -4,-193.5 205.2,-193.5 205.2,4 -4,4"/>
<!-- v1 -->
<g id="node1" class="node">
<title>v1</title>
<ellipse fill="tan" stroke="tan" cx="22.75" cy="-22.75" rx="23" ry="23"/>
<text text-anchor="middle" x="22.75" y="-19.05" font-family="Times,serif" font-size="14.00">30</text>
</g>
<!-- v2 -->
<g id="node2" class="node">
<title>v2</title>
<ellipse fill="tan" stroke="tan" cx="22.75" cy="-94.75" rx="23" ry="23"/>
<text text-anchor="middle" x="22.75" y="-91.05" font-family="Times,serif" font-size="14.00">13</text>
</g>
<!-- v3 -->
<g id="node3" class="node">
<title>v3</title>
<ellipse fill="lightgreen" stroke="lightgreen" cx="22.75" cy="-166.75" rx="18" ry="18"/>
</g>
<!-- v4 -->
<g id="node4" class="node">
<title>v4</title>
<ellipse fill="lightgreen" stroke="lightgreen" cx="94.75" cy="-22.75" rx="18" ry="18"/>
</g>
<!-- v5 -->
<g id="node5" class="node">
<title>v5</title>
<ellipse fill="tan" stroke="tan" cx="94.75" cy="-94.75" rx="18" ry="18"/>
<text text-anchor="middle" x="94.75" y="-91.05" font-family="Times,serif" font-size="14.00">5</text>
</g>
<!-- v6 -->
<g id="node6" class="node">
<title>v6</title>
<ellipse fill="lightgreen" stroke="lightgreen" cx="94.75" cy="-166.75" rx="18" ry="18"/>
</g>
<!-- v7 -->
<g id="node7" class="node">
<title>v7</title>
<ellipse fill="lightgreen" stroke="lightgreen" cx="166.75" cy="-22.75" rx="18" ry="18"/>
</g>
<!-- v8 -->
<g id="node8" class="node">
<title>v8</title>
<ellipse fill="lightgreen" stroke="lightgreen" cx="166.75" cy="-94.75" rx="18" ry="18"/>
</g>
<!-- v9 -->
<g id="node9" class="node">
<title>v9</title>
<ellipse fill="tan" stroke="tan" cx="166.75" cy="-166.75" rx="23" ry="23"/>
<text text-anchor="middle" x="166.75" y="-163.05" font-family="Times,serif" font-size="14.00">30</text>
</g>
<!-- w1 -->
<g id="node10" class="node">
<title>w1</title>
<polygon fill="red" stroke="red" points="40.81,-56.79 18.81,-56.79 18.81,-34.79 40.81,-34.79 40.81,-56.79"/>
<text text-anchor="middle" x="29.81" y="-42.09" font-family="Times,serif" font-size="14.00">1⁵</text>
</g>
<!-- w2 -->
<g id="node11" class="node">
<title>w2</title>
<polygon fill="red" stroke="red" points="201.2,-111.66 179.2,-111.66 179.2,-89.66 201.2,-89.66 201.2,-111.66"/>
<text text-anchor="middle" x="190.2" y="-96.96" font-family="Times,serif" font-size="14.00">2⁵</text>
</g>
<!-- s5 -->
<g id="node12" class="node">
<title>s5</title>
<polygon fill="lightblue" stroke="lightblue" points="183.29,-89.42 161.29,-89.42 161.29,-67.42 183.29,-67.42 183.29,-89.42"/>
<text text-anchor="middle" x="172.29" y="-74.72" font-family="Times,serif" font-size="14.00">5⁸</text>
</g>
<!-- s7 -->
<g id="node13" class="node">
<title>s7</title>
<polygon fill="lightblue" stroke="lightblue" points="38.03,-129.56 16.03,-129.56 16.03,-107.56 38.03,-107.56 38.03,-129.56"/>
<text text-anchor="middle" x="27.03" y="-114.86" font-family="Times,serif" font-size="14.00">7⁸*</text>
</g>
</g>
</svg>
