<?xml version="1.0" encoding="UTF-8" standalone="no"?>
<!DOCTYPE svg PUBLIC "-//W3C//DTD SVG 1.1//EN"
 "http://www.w3.org/Graphics/SVG/1.1/DTD/svg11.dtd">
<!-- Generated by graphviz version 2.43.0 (0)
 -->
<!-- Title: G Pages: 1 -->
<svg width="967pt" height="844pt"
 viewBox="0.00 0.00 967.00 844.00" xmlns="http://www.w3.org/2000/svg" xmlns:xlink="http://www.w3.org/1999/xlink">
<g id="graph0" class="graph" transform="scale(1 1) rotate(0) translate(4 840)">
<title>G</title>
<polygon fill="white" stroke="transparent" points="-4,4 -4,-840 963,-840 963,4 -4,4"/>
<text text-anchor="middle" x="479.5" y="-820.8" font-family="Serif" font-size="14.00">Success</text>
<!-- n0in1 -->
<!-- n1 -->
<!-- while -->
<g id="n1" class="node">
<title>n1</title>
<polygon fill="lightpink" stroke="transparent" points="800.5,-775 751.5,-775 751.5,-750 800.5,-750 800.5,-775"/>
<polygon fill="none" stroke="black" points="752,-749.5 752,-774.5 801,-774.5 801,-749.5 752,-749.5"/>
<text text-anchor="start" x="757" y="-758.3" font-family="Serif" font-size="14.00">while</text>
</g>
<!-- n0in1&#45;&gt;n1 -->
<g id="e1" class="edge">
<title>n0in1:s&#45;&gt;n1:n</title>
<path fill="none" stroke="black" d="M777,-812C777,-797.48 777,-792.58 777,-780.31"/>
<polygon fill="black" stroke="black" points="778.75,-780 777,-775 775.25,-780 778.75,-780"/>
</g>
<!-- n0out1 -->
<!-- n1&#45;&gt;n0out1 -->
<g id="e50" class="edge">
<title>n1:s&#45;&gt;n0out1:n</title>
<path fill="none" stroke="black" d="M789,-750C789,-676.54 947,-774.96 947,-701.5 947,-701.5 947,-701.5 947,-53.5 947,-31.99 947,-25.35 947,-6.17"/>
<polygon fill="black" stroke="black" points="948.75,-6 947,-1 945.25,-6 948.75,-6"/>
</g>
<!-- n2 -->
<!-- Query sheep -->
<g id="n2" class="node">
<title>n2</title>
<polygon fill="yellow" stroke="transparent" points="839.5,-713 738.5,-713 738.5,-688 839.5,-688 839.5,-713"/>
<polygon fill="none" stroke="black" points="739,-687.5 739,-712.5 840,-712.5 840,-687.5 739,-687.5"/>
<text text-anchor="start" x="744" y="-696.3" font-family="Serif" font-size="14.00">Query sheep</text>
</g>
<!-- n1&#45;&gt;n2 -->
<g id="e7" class="edge">
<title>n1:s&#45;&gt;n2:n</title>
<path fill="none" stroke="black" d="M764,-750C764,-735.48 764,-730.58 764,-718.31"/>
<polygon fill="black" stroke="black" points="765.75,-718 764,-713 762.25,-718 765.75,-718"/>
</g>
<!-- n3 -->
<!-- Fail -->
<g id="n3" class="node">
<title>n3</title>
<polygon fill="red" stroke="transparent" points="918.5,-637 881.5,-637 881.5,-612 918.5,-612 918.5,-637"/>
<polygon fill="none" stroke="black" points="882,-611.5 882,-636.5 919,-636.5 919,-611.5 882,-611.5"/>
<text text-anchor="start" x="887" y="-620.3" font-family="Serif" font-size="14.00">Fail</text>
</g>
<!-- n2&#45;&gt;n3 -->
<g id="e17" class="edge">
<title>n2:s&#45;&gt;n3:n</title>
<path fill="none" stroke="black" d="M824,-688C824,-667.28 849.71,-681.41 867,-670 883.06,-659.4 898.17,-658.2 900.65,-641.99"/>
<polygon fill="black" stroke="black" points="902.39,-642.11 901,-637 898.9,-641.86 902.39,-642.11"/>
</g>
<!-- n4 -->
<!-- Sheep_eat -->
<g id="n4" class="node">
<title>n4</title>
<polygon fill="lightblue" stroke="transparent" points="740,-637 656,-637 656,-612 740,-612 740,-637"/>
<polygon fill="none" stroke="black" points="656,-611.5 656,-636.5 740,-636.5 740,-611.5 656,-611.5"/>
<text text-anchor="start" x="661" y="-620.3" font-family="Serif" font-size="14.00">Sheep_eat</text>
</g>
<!-- n2&#45;&gt;n4 -->
<!-- S -->
<g id="e19" class="edge">
<title>n2:s&#45;&gt;n4:n</title>
<path fill="none" stroke="black" d="M790,-688C790,-643.07 705.05,-680.57 698.41,-642.08"/>
<polygon fill="black" stroke="black" points="700.15,-641.84 698,-637 696.66,-642.12 700.15,-641.84"/>
<text text-anchor="middle" x="785" y="-658.8" font-family="Serif" font-size="14.00">S</text>
</g>
<!-- n13 -->
<!-- Query wolves -->
<g id="n13" class="node">
<title>n13</title>
<polygon fill="yellow" stroke="transparent" points="347.5,-637 240.5,-637 240.5,-612 347.5,-612 347.5,-637"/>
<polygon fill="none" stroke="black" points="241,-611.5 241,-636.5 348,-636.5 348,-611.5 241,-611.5"/>
<text text-anchor="start" x="246" y="-620.3" font-family="Serif" font-size="14.00">Query wolves</text>
</g>
<!-- n2&#45;&gt;n13 -->
<g id="e32" class="edge">
<title>n2:s&#45;&gt;n13:n</title>
<path fill="none" stroke="black" d="M756,-688C756,-662.07 314.49,-663.99 271.38,-640.78"/>
<polygon fill="black" stroke="black" points="272.64,-639.56 268,-637 270.03,-641.89 272.64,-639.56"/>
</g>
<!-- n5 -->
<!-- turn -->
<g id="n5" class="node">
<title>n5</title>
<polygon fill="lightpink" stroke="transparent" points="713,-561 641,-561 641,-536 713,-536 713,-561"/>
<polygon fill="none" stroke="black" points="641,-535.5 641,-560.5 713,-560.5 713,-535.5 641,-535.5"/>
<text text-anchor="start" x="661.5" y="-544.3" font-family="Serif" font-size="14.00">turn</text>
</g>
<!-- n4&#45;&gt;n5 -->
<!-- S -->
<g id="e24" class="edge">
<title>n4:s&#45;&gt;n5:n</title>
<path fill="none" stroke="black" d="M677,-612C677,-591.1 677,-584.66 677,-566.02"/>
<polygon fill="black" stroke="black" points="678.75,-566 677,-561 675.25,-566 678.75,-566"/>
<text text-anchor="middle" x="682" y="-582.8" font-family="Serif" font-size="14.00">S</text>
</g>
<!-- n4&#45;&gt;n5 -->
<!-- S -->
<g id="e25" class="edge">
<title>n4:s&#45;&gt;n5:n</title>
<path fill="none" stroke="black" d="M719,-612C719,-608.9 689.1,-577.34 679.76,-565.34"/>
<polygon fill="black" stroke="black" points="681.16,-564.28 677,-561 678.2,-566.16 681.16,-564.28"/>
<text text-anchor="middle" x="709" y="-582.8" font-family="Serif" font-size="14.00">S</text>
</g>
<!-- n6 -->
<!-- turn_left -->
<g id="n6" class="node">
<title>n6</title>
<polygon fill="lightblue" stroke="transparent" points="610,-485 538,-485 538,-460 610,-460 610,-485"/>
<polygon fill="none" stroke="black" points="538,-459.5 538,-484.5 610,-484.5 610,-459.5 538,-459.5"/>
<text text-anchor="start" x="543" y="-468.3" font-family="Serif" font-size="14.00">turn_left</text>
</g>
<!-- n5&#45;&gt;n6 -->
<!-- S -->
<g id="e22" class="edge">
<title>n5:s&#45;&gt;n6:n</title>
<path fill="none" stroke="black" d="M653,-536C653,-520.07 635.46,-526.52 622,-518 601.66,-505.13 577.65,-510.04 574.38,-490"/>
<polygon fill="black" stroke="black" points="576.12,-489.85 574,-485 572.63,-490.12 576.12,-489.85"/>
<text text-anchor="middle" x="627" y="-506.8" font-family="Serif" font-size="14.00">S</text>
</g>
<!-- n7 -->
<!-- turn_right -->
<g id="n7" class="node">
<title>n7</title>
<polygon fill="lightblue" stroke="transparent" points="786.5,-485 703.5,-485 703.5,-460 786.5,-460 786.5,-485"/>
<polygon fill="none" stroke="black" points="704,-459.5 704,-484.5 787,-484.5 787,-459.5 704,-459.5"/>
<text text-anchor="start" x="709" y="-468.3" font-family="Serif" font-size="14.00">turn_right</text>
</g>
<!-- n5&#45;&gt;n7 -->
<!-- S -->
<g id="e21" class="edge">
<title>n5:s&#45;&gt;n7:n</title>
<path fill="none" stroke="black" d="M701,-536C701,-507.66 740.55,-514.2 745.49,-490.22"/>
<polygon fill="black" stroke="black" points="747.26,-490.15 746,-485 743.78,-489.81 747.26,-490.15"/>
<text text-anchor="middle" x="741" y="-506.8" font-family="Serif" font-size="14.00">S</text>
</g>
<!-- n8 -->
<!-- move_fwd -->
<g id="n8" class="node">
<title>n8</title>
<polygon fill="lightblue" stroke="transparent" points="705,-409 623,-409 623,-384 705,-384 705,-409"/>
<polygon fill="none" stroke="black" points="623,-383.5 623,-408.5 705,-408.5 705,-383.5 623,-383.5"/>
<text text-anchor="start" x="628" y="-392.3" font-family="Serif" font-size="14.00">move_fwd</text>
</g>
<!-- n5&#45;&gt;n8 -->
<!-- S (in) -->
<g id="e26" class="edge">
<title>n5:s&#45;&gt;n8:n</title>
<path fill="none" stroke="black" d="M677,-536C677,-511.49 660.76,-509.05 656,-485 649.77,-453.5 662.47,-443.99 663.87,-414.35"/>
<polygon fill="black" stroke="black" points="665.63,-414.04 664,-409 662.13,-413.96 665.63,-414.04"/>
<text text-anchor="middle" x="675.5" y="-468.8" font-family="Serif" font-size="14.00">S (in)</text>
</g>
<!-- n6&#45;&gt;n8 -->
<!-- S -->
<g id="e27" class="edge">
<title>n6:s&#45;&gt;n8:n</title>
<path fill="none" stroke="black" d="M556,-460C556,-443.08 561.27,-436.89 575,-427 606.22,-404.53 658.78,-445.2 663.64,-414.12"/>
<polygon fill="black" stroke="black" points="665.39,-414.11 664,-409 661.9,-413.86 665.39,-414.11"/>
<text text-anchor="middle" x="580" y="-430.8" font-family="Serif" font-size="14.00">S</text>
</g>
<!-- n6&#45;&gt;n8 -->
<!-- S -->
<g id="e28" class="edge">
<title>n6:s&#45;&gt;n8:n</title>
<path fill="none" stroke="black" d="M592,-460C592,-440.18 605.86,-438.5 622,-427 636.86,-416.41 658.92,-426.71 663.25,-414.19"/>
<polygon fill="black" stroke="black" points="665.01,-414.2 664,-409 661.55,-413.7 665.01,-414.2"/>
<text text-anchor="middle" x="627" y="-430.8" font-family="Serif" font-size="14.00">S</text>
</g>
<!-- n7&#45;&gt;n8 -->
<!-- S -->
<g id="e13" class="edge">
<title>n7:s&#45;&gt;n8:n</title>
<path fill="none" stroke="black" d="M767,-460C767,-433 740.27,-438.83 716,-427 695.74,-417.12 668.64,-430.94 664.53,-414"/>
<polygon fill="black" stroke="black" points="666.27,-413.79 664,-409 662.79,-414.16 666.27,-413.79"/>
<text text-anchor="middle" x="763" y="-430.8" font-family="Serif" font-size="14.00">S</text>
</g>
<!-- n7&#45;&gt;n8 -->
<!-- S -->
<g id="e29" class="edge">
<title>n7:s&#45;&gt;n8:n</title>
<path fill="none" stroke="black" d="M725,-460C725,-447.02 712.01,-450.26 702,-442 686.23,-428.99 667.54,-430.88 664.44,-414.22"/>
<polygon fill="black" stroke="black" points="666.17,-413.83 664,-409 662.68,-414.13 666.17,-413.83"/>
<text text-anchor="middle" x="707" y="-430.8" font-family="Serif" font-size="14.00">S</text>
</g>
<!-- n9 -->
<!-- reprod -->
<g id="n9" class="node">
<title>n9</title>
<polygon fill="lightpink" stroke="transparent" points="743.5,-333 684.5,-333 684.5,-308 743.5,-308 743.5,-333"/>
<polygon fill="none" stroke="black" points="685,-307.5 685,-332.5 744,-332.5 744,-307.5 685,-307.5"/>
<text text-anchor="start" x="690" y="-316.3" font-family="Serif" font-size="14.00">reprod</text>
</g>
<!-- n8&#45;&gt;n9 -->
<!-- S (out) -->
<g id="e11" class="edge">
<title>n8:s&#45;&gt;n9:n</title>
<path fill="none" stroke="black" d="M643,-384C643,-369.33 634.81,-362.44 644,-351 663.18,-327.1 709.17,-361.1 714.49,-338"/>
<polygon fill="black" stroke="black" points="716.24,-338.15 715,-333 712.76,-337.8 716.24,-338.15"/>
<text text-anchor="middle" x="668.5" y="-354.8" font-family="Serif" font-size="14.00">S (out)</text>
</g>
<!-- n8&#45;&gt;n9 -->
<!-- S -->
<g id="e12" class="edge">
<title>n8:s&#45;&gt;n9:n</title>
<path fill="none" stroke="black" d="M685,-384C685,-372.39 708.38,-351.78 713.86,-338.06"/>
<polygon fill="black" stroke="black" points="715.61,-338.26 715,-333 712.19,-337.49 715.61,-338.26"/>
<text text-anchor="middle" x="710" y="-354.8" font-family="Serif" font-size="14.00">S</text>
</g>
<!-- n10 -->
<!-- reproduce -->
<g id="n10" class="node">
<title>n10</title>
<polygon fill="lightblue" stroke="transparent" points="740.5,-257 657.5,-257 657.5,-232 740.5,-232 740.5,-257"/>
<polygon fill="none" stroke="black" points="658,-231.5 658,-256.5 741,-256.5 741,-231.5 658,-231.5"/>
<text text-anchor="start" x="663" y="-240.3" font-family="Serif" font-size="14.00">reproduce</text>
</g>
<!-- n9&#45;&gt;n10 -->
<!-- S -->
<g id="e18" class="edge">
<title>n9:s&#45;&gt;n10:n</title>
<path fill="none" stroke="black" d="M700,-308C700,-287.1 700,-280.66 700,-262.02"/>
<polygon fill="black" stroke="black" points="701.75,-262 700,-257 698.25,-262 701.75,-262"/>
<text text-anchor="middle" x="705" y="-278.8" font-family="Serif" font-size="14.00">S</text>
</g>
<!-- n11 -->
<!-- starve -->
<g id="n11" class="node">
<title>n11</title>
<polygon fill="lightblue" stroke="transparent" points="818,-181 762,-181 762,-156 818,-156 818,-181"/>
<polygon fill="none" stroke="black" points="762,-155.5 762,-180.5 818,-180.5 818,-155.5 762,-155.5"/>
<text text-anchor="start" x="767" y="-164.3" font-family="Serif" font-size="14.00">starve</text>
</g>
<!-- n9&#45;&gt;n11 -->
<!-- S -->
<g id="e23" class="edge">
<title>n9:s&#45;&gt;n11:n</title>
<path fill="none" stroke="black" d="M730,-308C730,-257.71 778.37,-262.12 793,-214 796.75,-201.67 791.64,-196.93 790.3,-186.07"/>
<polygon fill="black" stroke="black" points="792.05,-185.89 790,-181 788.55,-186.1 792.05,-185.89"/>
<text text-anchor="middle" x="789" y="-240.8" font-family="Serif" font-size="14.00">S</text>
</g>
<!-- n10&#45;&gt;n11 -->
<!-- S -->
<g id="e16" class="edge">
<title>n10:s&#45;&gt;n11:n</title>
<path fill="none" stroke="black" d="M721,-232C721,-195.8 783.17,-216.73 789.48,-186.34"/>
<polygon fill="black" stroke="black" points="791.26,-186.15 790,-181 787.78,-185.81 791.26,-186.15"/>
<text text-anchor="middle" x="784" y="-202.8" font-family="Serif" font-size="14.00">S</text>
</g>
<!-- n10&#45;&gt;n11 -->
<!-- S -->
<g id="e20" class="edge">
<title>n10:s&#45;&gt;n11:n</title>
<path fill="none" stroke="black" d="M679,-232C679,-203.87 707.4,-210.65 733,-199 755.29,-188.85 784.92,-204.69 789.42,-186.42"/>
<polygon fill="black" stroke="black" points="791.21,-186.16 790,-181 787.73,-185.78 791.21,-186.16"/>
<text text-anchor="middle" x="738" y="-202.8" font-family="Serif" font-size="14.00">S</text>
</g>
<!-- n11&#45;&gt;n2 -->
<g id="e15" class="edge">
<title>n11:s&#45;&gt;n2:n</title>
<path fill="none" stroke="black" d="M776,-154.5C776,-148.26 766.25,-150.93 762,-155.5 754.28,-163.79 760.5,-169.77 762,-181 764.02,-196.07 766.96,-199.35 771,-214 776.28,-233.13 775.78,-238.52 783,-257 794.36,-286.06 815,-288.29 815,-319.5 815,-625.5 815,-625.5 815,-625.5 815,-655.34 833.96,-658.68 839.5,-688 841.52,-698.7 847.04,-704.64 839.5,-712.5 833.49,-718.76 821.5,-722.6 816.88,-718.39"/>
<polygon fill="black" stroke="black" points="818.43,-717.54 815,-713.5 815.16,-718.8 818.43,-717.54"/>
</g>
<!-- n12 -->
<g id="n12" class="node">
<title>n12</title>
<polygon fill="lavender" stroke="transparent" points="853,-97.5 829,-97.5 829,-87.5 853,-87.5 853,-97.5"/>
<polygon fill="none" stroke="black" points="829,-87.5 829,-97.5 853,-97.5 853,-87.5 829,-87.5"/>
</g>
<!-- n11&#45;&gt;n12 -->
<!-- S -->
<g id="e10" class="edge">
<title>n11:s&#45;&gt;n12:n</title>
<path fill="none" stroke="black" d="M804,-156C804,-127.39 836.79,-128.62 840.63,-103.51"/>
<polygon fill="black" stroke="black" points="842.38,-103.61 841,-98.5 838.89,-103.36 842.38,-103.61"/>
<text text-anchor="middle" x="832" y="-126.8" font-family="Serif" font-size="14.00">S</text>
</g>
<!-- n12&#45;&gt;n2 -->
<g id="e14" class="edge">
<title>n12:s&#45;&gt;n2:n</title>
<path fill="none" stroke="black" d="M841,-86.5C841,-81.15 849.38,-83.56 853,-87.5 877.08,-113.66 853,-131.94 853,-167.5 853,-625.5 853,-625.5 853,-625.5 853,-664.63 868.69,-686.44 839.5,-712.5 833.02,-718.28 821.31,-722.4 816.82,-718.33"/>
<polygon fill="black" stroke="black" points="818.4,-717.56 815,-713.5 815.13,-718.8 818.4,-717.56"/>
</g>
<!-- n14 -->
<!-- Fail -->
<g id="n14" class="node">
<title>n14</title>
<polygon fill="red" stroke="transparent" points="484.5,-561 447.5,-561 447.5,-536 484.5,-536 484.5,-561"/>
<polygon fill="none" stroke="black" points="448,-535.5 448,-560.5 485,-560.5 485,-535.5 448,-535.5"/>
<text text-anchor="start" x="453" y="-544.3" font-family="Serif" font-size="14.00">Fail</text>
</g>
<!-- n13&#45;&gt;n14 -->
<g id="e40" class="edge">
<title>n13:s&#45;&gt;n14:n</title>
<path fill="none" stroke="black" d="M331,-612C331,-549.34 459.15,-621.1 466.66,-566.31"/>
<polygon fill="black" stroke="black" points="468.42,-566.1 467,-561 464.93,-565.88 468.42,-566.1"/>
</g>
<!-- n15 -->
<!-- Wolf_eat -->
<g id="n15" class="node">
<title>n15</title>
<polygon fill="lightblue" stroke="transparent" points="177.5,-561 106.5,-561 106.5,-536 177.5,-536 177.5,-561"/>
<polygon fill="none" stroke="black" points="107,-535.5 107,-560.5 178,-560.5 178,-535.5 107,-535.5"/>
<text text-anchor="start" x="112" y="-544.3" font-family="Serif" font-size="14.00">Wolf_eat</text>
</g>
<!-- n13&#45;&gt;n15 -->
<!-- W -->
<g id="e42" class="edge">
<title>n13:s&#45;&gt;n15:n</title>
<path fill="none" stroke="black" d="M295,-612C295,-579.45 254.93,-604.17 224,-594 188.8,-582.43 147.12,-598.25 143.29,-566.1"/>
<polygon fill="black" stroke="black" points="145.03,-565.89 143,-561 141.53,-566.09 145.03,-565.89"/>
<text text-anchor="middle" x="231.5" y="-582.8" font-family="Serif" font-size="14.00">W</text>
</g>
<!-- n24 -->
<!-- Query grass -->
<g id="n24" class="node">
<title>n24</title>
<polygon fill="yellow" stroke="transparent" points="429,-561 331,-561 331,-536 429,-536 429,-561"/>
<polygon fill="none" stroke="black" points="331,-535.5 331,-560.5 429,-560.5 429,-535.5 331,-535.5"/>
<text text-anchor="start" x="336" y="-544.3" font-family="Serif" font-size="14.00">Query grass</text>
</g>
<!-- n13&#45;&gt;n24 -->
<g id="e2" class="edge">
<title>n13:s&#45;&gt;n24:n</title>
<path fill="none" stroke="black" d="M259,-612C259,-565.57 347.65,-605.89 354.57,-566.24"/>
<polygon fill="black" stroke="black" points="356.34,-566.13 355,-561 352.85,-565.84 356.34,-566.13"/>
</g>
<!-- n16 -->
<!-- turn -->
<g id="n16" class="node">
<title>n16</title>
<polygon fill="lightpink" stroke="transparent" points="159,-485 87,-485 87,-460 159,-460 159,-485"/>
<polygon fill="none" stroke="black" points="87,-459.5 87,-484.5 159,-484.5 159,-459.5 87,-459.5"/>
<text text-anchor="start" x="107.5" y="-468.3" font-family="Serif" font-size="14.00">turn</text>
</g>
<!-- n15&#45;&gt;n16 -->
<!-- W -->
<g id="e47" class="edge">
<title>n15:s&#45;&gt;n16:n</title>
<path fill="none" stroke="black" d="M125,-536C125,-527.99 124.34,-526 124,-518 123.45,-505.17 123.1,-500.76 123.02,-490.03"/>
<polygon fill="black" stroke="black" points="124.77,-489.99 123,-485 121.27,-490.01 124.77,-489.99"/>
<text text-anchor="middle" x="131.5" y="-506.8" font-family="Serif" font-size="14.00">W</text>
</g>
<!-- n15&#45;&gt;n16 -->
<!-- W -->
<g id="e48" class="edge">
<title>n15:s&#45;&gt;n16:n</title>
<path fill="none" stroke="black" d="M161,-536C161,-518.37 149.77,-516.95 139,-503 133.79,-496.25 126.72,-495.62 124.07,-490.23"/>
<polygon fill="black" stroke="black" points="125.71,-489.55 123,-485 122.28,-490.25 125.71,-489.55"/>
<text text-anchor="middle" x="161.5" y="-506.8" font-family="Serif" font-size="14.00">W</text>
</g>
<!-- n17 -->
<!-- turn_left -->
<g id="n17" class="node">
<title>n17</title>
<polygon fill="lightblue" stroke="transparent" points="72,-409 0,-409 0,-384 72,-384 72,-409"/>
<polygon fill="none" stroke="black" points="0,-383.5 0,-408.5 72,-408.5 72,-383.5 0,-383.5"/>
<text text-anchor="start" x="5" y="-392.3" font-family="Serif" font-size="14.00">turn_left</text>
</g>
<!-- n16&#45;&gt;n17 -->
<!-- W -->
<g id="e45" class="edge">
<title>n16:s&#45;&gt;n17:n</title>
<path fill="none" stroke="black" d="M99,-460C99,-452.12 50.77,-425.88 38.71,-413.41"/>
<polygon fill="black" stroke="black" points="40.11,-412.34 36,-409 37.13,-414.18 40.11,-412.34"/>
<text text-anchor="middle" x="86.5" y="-430.8" font-family="Serif" font-size="14.00">W</text>
</g>
<!-- n18 -->
<!-- turn_right -->
<g id="n18" class="node">
<title>n18</title>
<polygon fill="lightblue" stroke="transparent" points="224.5,-409 141.5,-409 141.5,-384 224.5,-384 224.5,-409"/>
<polygon fill="none" stroke="black" points="142,-383.5 142,-408.5 225,-408.5 225,-383.5 142,-383.5"/>
<text text-anchor="start" x="147" y="-392.3" font-family="Serif" font-size="14.00">turn_right</text>
</g>
<!-- n16&#45;&gt;n18 -->
<!-- W -->
<g id="e44" class="edge">
<title>n16:s&#45;&gt;n18:n</title>
<path fill="none" stroke="black" d="M147,-460C147,-433.86 179.25,-436.48 183.53,-414.16"/>
<polygon fill="black" stroke="black" points="185.29,-414.14 184,-409 181.81,-413.82 185.29,-414.14"/>
<text text-anchor="middle" x="184.5" y="-430.8" font-family="Serif" font-size="14.00">W</text>
</g>
<!-- n19 -->
<!-- move_fwd -->
<g id="n19" class="node">
<title>n19</title>
<polygon fill="lightblue" stroke="transparent" points="180,-333 98,-333 98,-308 180,-308 180,-333"/>
<polygon fill="none" stroke="black" points="98,-307.5 98,-332.5 180,-332.5 180,-307.5 98,-307.5"/>
<text text-anchor="start" x="103" y="-316.3" font-family="Serif" font-size="14.00">move_fwd</text>
</g>
<!-- n16&#45;&gt;n19 -->
<!-- W -->
<g id="e49" class="edge">
<title>n16:s&#45;&gt;n19:n</title>
<path fill="none" stroke="black" d="M123,-460C123,-426.12 110.15,-417.18 117,-384 121.62,-361.62 136.54,-358.12 138.73,-338.14"/>
<polygon fill="black" stroke="black" points="140.49,-338.08 139,-333 136.99,-337.9 140.49,-338.08"/>
<text text-anchor="middle" x="124.5" y="-392.8" font-family="Serif" font-size="14.00">W</text>
</g>
<!-- n17&#45;&gt;n19 -->
<!-- W -->
<g id="e9" class="edge">
<title>n17:s&#45;&gt;n19:n</title>
<path fill="none" stroke="black" d="M54,-384C54,-365.6 63.89,-361.49 79,-351 100.26,-336.24 133.85,-357.43 138.47,-338.11"/>
<polygon fill="black" stroke="black" points="140.22,-338.15 139,-333 136.74,-337.79 140.22,-338.15"/>
<text text-anchor="middle" x="86.5" y="-354.8" font-family="Serif" font-size="14.00">W</text>
</g>
<!-- n17&#45;&gt;n19 -->
<!-- W -->
<g id="e31" class="edge">
<title>n17:s&#45;&gt;n19:n</title>
<path fill="none" stroke="black" d="M18,-384C18,-366.12 25.97,-360.68 41,-351 58.02,-340.05 125.81,-352.58 137.33,-337.9"/>
<polygon fill="black" stroke="black" points="139.04,-338.3 139,-333 135.73,-337.17 139.04,-338.3"/>
<text text-anchor="middle" x="48.5" y="-354.8" font-family="Serif" font-size="14.00">W</text>
</g>
<!-- n18&#45;&gt;n19 -->
<!-- W -->
<g id="e30" class="edge">
<title>n18:s&#45;&gt;n19:n</title>
<path fill="none" stroke="black" d="M163,-384C163,-360.81 142.43,-358.32 139.38,-338.2"/>
<polygon fill="black" stroke="black" points="141.11,-337.86 139,-333 137.62,-338.11 141.11,-337.86"/>
<text text-anchor="middle" x="165.5" y="-354.8" font-family="Serif" font-size="14.00">W</text>
</g>
<!-- n18&#45;&gt;n19 -->
<!-- W -->
<g id="e36" class="edge">
<title>n18:s&#45;&gt;n19:n</title>
<path fill="none" stroke="black" d="M205,-384C205,-364.77 192.26,-362.71 177,-351 163.8,-340.86 143.97,-349.33 139.79,-338.1"/>
<polygon fill="black" stroke="black" points="141.5,-337.67 139,-333 138.04,-338.21 141.5,-337.67"/>
<text text-anchor="middle" x="205.5" y="-354.8" font-family="Serif" font-size="14.00">W</text>
</g>
<!-- n20 -->
<!-- reprod -->
<g id="n20" class="node">
<title>n20</title>
<polygon fill="lightpink" stroke="transparent" points="188.5,-257 129.5,-257 129.5,-232 188.5,-232 188.5,-257"/>
<polygon fill="none" stroke="black" points="130,-231.5 130,-256.5 189,-256.5 189,-231.5 130,-231.5"/>
<text text-anchor="start" x="135" y="-240.3" font-family="Serif" font-size="14.00">reprod</text>
</g>
<!-- n19&#45;&gt;n20 -->
<!-- W -->
<g id="e34" class="edge">
<title>n19:s&#45;&gt;n20:n</title>
<path fill="none" stroke="black" d="M118,-308C118,-293.17 114.21,-286.95 123,-275 132.57,-262 154.08,-272.18 158.99,-262.16"/>
<polygon fill="black" stroke="black" points="160.76,-262.24 160,-257 157.32,-261.57 160.76,-262.24"/>
<text text-anchor="middle" x="130.5" y="-278.8" font-family="Serif" font-size="14.00">W</text>
</g>
<!-- n19&#45;&gt;n20 -->
<!-- W -->
<g id="e35" class="edge">
<title>n19:s&#45;&gt;n20:n</title>
<path fill="none" stroke="black" d="M160,-308C160,-287.1 160,-280.66 160,-262.02"/>
<polygon fill="black" stroke="black" points="161.75,-262 160,-257 158.25,-262 161.75,-262"/>
<text text-anchor="middle" x="167.5" y="-278.8" font-family="Serif" font-size="14.00">W</text>
</g>
<!-- n21 -->
<!-- reproduce -->
<g id="n21" class="node">
<title>n21</title>
<polygon fill="lightblue" stroke="transparent" points="185.5,-181 102.5,-181 102.5,-156 185.5,-156 185.5,-181"/>
<polygon fill="none" stroke="black" points="103,-155.5 103,-180.5 186,-180.5 186,-155.5 103,-155.5"/>
<text text-anchor="start" x="108" y="-164.3" font-family="Serif" font-size="14.00">reproduce</text>
</g>
<!-- n20&#45;&gt;n21 -->
<!-- W -->
<g id="e41" class="edge">
<title>n20:s&#45;&gt;n21:n</title>
<path fill="none" stroke="black" d="M145,-232C145,-211.1 145,-204.66 145,-186.02"/>
<polygon fill="black" stroke="black" points="146.75,-186 145,-181 143.25,-186 146.75,-186"/>
<text text-anchor="middle" x="152.5" y="-202.8" font-family="Serif" font-size="14.00">W</text>
</g>
<!-- n22 -->
<!-- starve -->
<g id="n22" class="node">
<title>n22</title>
<polygon fill="lightblue" stroke="transparent" points="258,-105 202,-105 202,-80 258,-80 258,-105"/>
<polygon fill="none" stroke="black" points="202,-79.5 202,-104.5 258,-104.5 258,-79.5 202,-79.5"/>
<text text-anchor="start" x="207" y="-88.3" font-family="Serif" font-size="14.00">starve</text>
</g>
<!-- n20&#45;&gt;n22 -->
<!-- W -->
<g id="e46" class="edge">
<title>n20:s&#45;&gt;n22:n</title>
<path fill="none" stroke="black" d="M175,-232C175,-181.46 224.12,-186.3 239,-138 240.96,-131.63 240.53,-129.49 239,-123 237.43,-116.34 232.99,-114.57 230.99,-110.09"/>
<polygon fill="black" stroke="black" points="232.67,-109.57 230,-105 229.24,-110.24 232.67,-109.57"/>
<text text-anchor="middle" x="237.5" y="-164.8" font-family="Serif" font-size="14.00">W</text>
</g>
<!-- n21&#45;&gt;n22 -->
<!-- W -->
<g id="e39" class="edge">
<title>n21:s&#45;&gt;n22:n</title>
<path fill="none" stroke="black" d="M166,-156C166,-121.48 223.67,-139.31 229.52,-110.11"/>
<polygon fill="black" stroke="black" points="231.28,-110.14 230,-105 227.79,-109.81 231.28,-110.14"/>
<text text-anchor="middle" x="227.5" y="-126.8" font-family="Serif" font-size="14.00">W</text>
</g>
<!-- n21&#45;&gt;n22 -->
<!-- W -->
<g id="e43" class="edge">
<title>n21:s&#45;&gt;n22:n</title>
<path fill="none" stroke="black" d="M124,-156C124,-131.56 146.13,-133.92 168,-123 191.97,-111.03 225.22,-130.73 229.53,-110.05"/>
<polygon fill="black" stroke="black" points="231.28,-110.14 230,-105 227.8,-109.82 231.28,-110.14"/>
<text text-anchor="middle" x="175.5" y="-126.8" font-family="Serif" font-size="14.00">W</text>
</g>
<!-- n22&#45;&gt;n13 -->
<g id="e38" class="edge">
<title>n22:s&#45;&gt;n13:n</title>
<path fill="none" stroke="black" d="M216,-78.5C216,-72.26 206.25,-74.93 202,-79.5 194.28,-87.79 200.5,-93.77 202,-105 204.02,-120.07 206.2,-123.58 211,-138 217.49,-157.5 220.41,-161.9 228,-181 239.06,-208.8 253,-213.58 253,-243.5 253,-549.5 253,-549.5 253,-549.5 253,-570.23 251.73,-579.97 267,-594 294,-618.8 324.58,-583.39 347.5,-612 354.31,-620.5 355.05,-628.65 347.5,-636.5 341.11,-643.14 328.27,-647.14 323.68,-642.32"/>
<polygon fill="black" stroke="black" points="325.3,-641.65 322,-637.5 321.99,-642.8 325.3,-641.65"/>
</g>
<!-- n23 -->
<g id="n23" class="node">
<title>n23</title>
<polygon fill="lavender" stroke="transparent" points="293,-29 269,-29 269,-19 293,-19 293,-29"/>
<polygon fill="none" stroke="black" points="269,-19 269,-29 293,-29 293,-19 269,-19"/>
</g>
<!-- n22&#45;&gt;n23 -->
<!-- W -->
<g id="e33" class="edge">
<title>n22:s&#45;&gt;n23:n</title>
<path fill="none" stroke="black" d="M244,-80C244,-53.86 276.25,-56.48 280.53,-34.16"/>
<polygon fill="black" stroke="black" points="282.29,-34.14 281,-29 278.81,-33.82 282.29,-34.14"/>
<text text-anchor="middle" x="281.5" y="-50.8" font-family="Serif" font-size="14.00">W</text>
</g>
<!-- n23&#45;&gt;n13 -->
<g id="e37" class="edge">
<title>n23:s&#45;&gt;n13:n</title>
<path fill="none" stroke="black" d="M281,-18C281,-12.65 289.12,-15.32 293,-19 316.61,-41.37 303,-58.97 303,-91.5 303,-549.5 303,-549.5 303,-549.5 303,-583.6 337.12,-579.52 347.5,-612 350.82,-622.37 355.05,-628.65 347.5,-636.5 341.11,-643.14 328.27,-647.14 323.68,-642.32"/>
<polygon fill="black" stroke="black" points="325.3,-641.65 322,-637.5 321.99,-642.8 325.3,-641.65"/>
</g>
<!-- n24&#45;&gt;n1 -->
<g id="e5" class="edge">
<title>n24:s&#45;&gt;n1:n</title>
<path fill="none" stroke="black" d="M347,-534.5C347,-522.24 305.04,-522.56 331,-561 334.93,-566.83 796.57,-744.17 800.5,-750 806.59,-759.02 808.03,-766.64 800.5,-774.5 794.74,-780.51 783.24,-784.22 778.8,-780.18"/>
<polygon fill="black" stroke="black" points="780.43,-779.54 777,-775.5 777.16,-780.79 780.43,-779.54"/>
</g>
<!-- n25 -->
<!-- Fail -->
<g id="n25" class="node">
<title>n25</title>
<polygon fill="red" stroke="transparent" points="519.5,-485 482.5,-485 482.5,-460 519.5,-460 519.5,-485"/>
<polygon fill="none" stroke="black" points="483,-459.5 483,-484.5 520,-484.5 520,-459.5 483,-459.5"/>
<text text-anchor="start" x="488" y="-468.3" font-family="Serif" font-size="14.00">Fail</text>
</g>
<!-- n24&#45;&gt;n25 -->
<g id="e3" class="edge">
<title>n24:s&#45;&gt;n25:n</title>
<path fill="none" stroke="black" d="M413,-536C413,-507.73 450.31,-533.42 474,-518 488.61,-508.49 499.74,-504.91 501.69,-490.01"/>
<polygon fill="black" stroke="black" points="503.44,-490.1 502,-485 499.95,-489.88 503.44,-490.1"/>
</g>
<!-- n26 -->
<!-- GrassIncrements -->
<g id="n26" class="node">
<title>n26</title>
<polygon fill="lightblue" stroke="transparent" points="464.5,-485 331.5,-485 331.5,-460 464.5,-460 464.5,-485"/>
<polygon fill="none" stroke="black" points="332,-459.5 332,-484.5 465,-484.5 465,-459.5 332,-459.5"/>
<text text-anchor="start" x="337" y="-468.3" font-family="Serif" font-size="14.00">GrassIncrements</text>
</g>
<!-- n24&#45;&gt;n26 -->
<!-- G -->
<g id="e8" class="edge">
<title>n24:s&#45;&gt;n26:n</title>
<path fill="none" stroke="black" d="M381,-536C381,-525 368.07,-528.23 364,-518 361.54,-511.8 360.53,-508.69 364,-503 372.04,-489.82 393.16,-499.51 398,-489.93"/>
<polygon fill="black" stroke="black" points="399.72,-490.25 399,-485 396.29,-489.55 399.72,-490.25"/>
<text text-anchor="middle" x="370" y="-506.8" font-family="Serif" font-size="14.00">G</text>
</g>
<!-- n26&#45;&gt;n24 -->
<!-- G -->
<g id="e4" class="edge">
<title>n26:s&#45;&gt;n24:n</title>
<path fill="none" stroke="black" d="M365,-458.5C365,-451.05 336.69,-454.16 331.5,-459.5 323.61,-467.63 325.06,-475.67 331.5,-485 344.33,-503.58 358.9,-492.72 379,-503 379.37,-503.19 428.8,-535.63 429,-536 434.16,-545.59 436.54,-552.64 429,-560.5 423.11,-566.64 411.37,-570.41 406.84,-566.28"/>
<polygon fill="black" stroke="black" points="408.43,-565.54 405,-561.5 405.16,-566.79 408.43,-565.54"/>
<text text-anchor="middle" x="406" y="-506.8" font-family="Serif" font-size="14.00">G</text>
</g>
<!-- n26&#45;&gt;n24 -->
<!-- G -->
<g id="e6" class="edge">
<title>n26:s&#45;&gt;n24:n</title>
<path fill="none" stroke="black" d="M432,-458.5C432,-451.27 459.47,-454.31 464.5,-459.5 472.39,-467.64 467.02,-473.95 464.5,-485 458.92,-509.52 450.6,-513.19 440,-536 434.97,-546.82 438.88,-553.81 429,-560.5 422.09,-565.18 411.33,-569.67 406.95,-566.32"/>
<polygon fill="black" stroke="black" points="408.5,-565.48 405,-561.5 405.25,-566.79 408.5,-565.48"/>
<text text-anchor="middle" x="464" y="-506.8" font-family="Serif" font-size="14.00">G</text>
</g>
</g>
</svg>
