<?xml version="1.0" encoding="UTF-8" standalone="no"?>
<!DOCTYPE svg PUBLIC "-//W3C//DTD SVG 1.1//EN"
 "http://www.w3.org/Graphics/SVG/1.1/DTD/svg11.dtd">
<!-- Generated by graphviz version 2.43.0 (0)
 -->
<!-- Title: G Pages: 1 -->
<svg width="952pt" height="844pt"
 viewBox="0.00 0.00 952.00 844.00" xmlns="http://www.w3.org/2000/svg" xmlns:xlink="http://www.w3.org/1999/xlink">
<g id="graph0" class="graph" transform="scale(1 1) rotate(0) translate(4 840)">
<title>G</title>
<polygon fill="white" stroke="transparent" points="-4,4 -4,-840 948,-840 948,4 -4,4"/>
<text text-anchor="middle" x="472" y="-820.8" font-family="Serif" font-size="14.00">[0.1, 0.9] </text>
<!-- n0in1 -->
<!-- n1 -->
<!-- while -->
<g id="n1" class="node">
<title>n1</title>
<polygon fill="lightpink" stroke="transparent" points="771.5,-775 722.5,-775 722.5,-750 771.5,-750 771.5,-775"/>
<polygon fill="none" stroke="black" points="723,-749.5 723,-774.5 772,-774.5 772,-749.5 723,-749.5"/>
<text text-anchor="start" x="728" y="-758.3" font-family="Serif" font-size="14.00">while</text>
</g>
<!-- n0in1&#45;&gt;n1 -->
<g id="e1" class="edge">
<title>n0in1:s&#45;&gt;n1:n</title>
<path fill="none" stroke="black" d="M748,-812C748,-797.48 748,-792.58 748,-780.31"/>
<polygon fill="black" stroke="black" points="749.75,-780 748,-775 746.25,-780 749.75,-780"/>
</g>
<!-- n0out1 -->
<!-- n1&#45;&gt;n0out1 -->
<g id="e50" class="edge">
<title>n1:s&#45;&gt;n0out1:n</title>
<path fill="none" stroke="black" d="M760,-750C760,-670.57 932,-780.93 932,-701.5 932,-701.5 932,-701.5 932,-53.5 932,-31.99 932,-25.35 932,-6.17"/>
<polygon fill="black" stroke="black" points="933.75,-6 932,-1 930.25,-6 933.75,-6"/>
</g>
<!-- n2 -->
<!-- Query sheep -->
<g id="n2" class="node">
<title>n2</title>
<polygon fill="yellow" stroke="transparent" points="810.5,-713 709.5,-713 709.5,-688 810.5,-688 810.5,-713"/>
<polygon fill="none" stroke="black" points="710,-687.5 710,-712.5 811,-712.5 811,-687.5 710,-687.5"/>
<text text-anchor="start" x="715" y="-696.3" font-family="Serif" font-size="14.00">Query sheep</text>
</g>
<!-- n1&#45;&gt;n2 -->
<g id="e7" class="edge">
<title>n1:s&#45;&gt;n2:n</title>
<path fill="none" stroke="black" d="M735,-750C735,-735.48 735,-730.58 735,-718.31"/>
<polygon fill="black" stroke="black" points="736.75,-718 735,-713 733.25,-718 736.75,-718"/>
</g>
<!-- n3 -->
<!-- Fail -->
<g id="n3" class="node">
<title>n3</title>
<polygon fill="red" stroke="transparent" points="903.5,-637 866.5,-637 866.5,-612 903.5,-612 903.5,-637"/>
<polygon fill="none" stroke="black" points="867,-611.5 867,-636.5 904,-636.5 904,-611.5 867,-611.5"/>
<text text-anchor="start" x="872" y="-620.3" font-family="Serif" font-size="14.00">Fail</text>
</g>
<!-- n2&#45;&gt;n3 -->
<g id="e17" class="edge">
<title>n2:s&#45;&gt;n3:n</title>
<path fill="none" stroke="black" d="M795,-688C795,-661.43 829.19,-683.62 852,-670 868.53,-660.13 883.25,-658.33 885.66,-642.01"/>
<polygon fill="black" stroke="black" points="887.4,-642.11 886,-637 883.91,-641.87 887.4,-642.11"/>
</g>
<!-- n4 -->
<!-- Sheep_eat -->
<g id="n4" class="node">
<title>n4</title>
<polygon fill="lightblue" stroke="transparent" points="723,-637 639,-637 639,-612 723,-612 723,-637"/>
<polygon fill="none" stroke="black" points="639,-611.5 639,-636.5 723,-636.5 723,-611.5 639,-611.5"/>
<text text-anchor="start" x="644" y="-620.3" font-family="Serif" font-size="14.00">Sheep_eat</text>
</g>
<!-- n2&#45;&gt;n4 -->
<!-- S -->
<g id="e19" class="edge">
<title>n2:s&#45;&gt;n4:n</title>
<path fill="none" stroke="black" d="M761,-688C761,-647.65 687.73,-676.44 681.43,-642.03"/>
<polygon fill="black" stroke="black" points="683.17,-641.83 681,-637 679.68,-642.13 683.17,-641.83"/>
<text text-anchor="middle" x="756" y="-658.8" font-family="Serif" font-size="14.00">S</text>
</g>
<!-- n13 -->
<!-- Query wolves -->
<g id="n13" class="node">
<title>n13</title>
<polygon fill="yellow" stroke="transparent" points="347.5,-637 240.5,-637 240.5,-612 347.5,-612 347.5,-637"/>
<polygon fill="none" stroke="black" points="241,-611.5 241,-636.5 348,-636.5 348,-611.5 241,-611.5"/>
<text text-anchor="start" x="246" y="-620.3" font-family="Serif" font-size="14.00">Query wolves</text>
</g>
<!-- n2&#45;&gt;n13 -->
<g id="e32" class="edge">
<title>n2:s&#45;&gt;n13:n</title>
<path fill="none" stroke="black" d="M727,-688C727,-663.65 313.43,-662.69 271.43,-640.71"/>
<polygon fill="black" stroke="black" points="272.68,-639.49 268,-637 270.11,-641.86 272.68,-639.49"/>
</g>
<!-- n5 -->
<!-- turn -->
<g id="n5" class="node">
<title>n5</title>
<polygon fill="lightpink" stroke="transparent" points="696,-561 624,-561 624,-536 696,-536 696,-561"/>
<polygon fill="none" stroke="black" points="624,-535.5 624,-560.5 696,-560.5 696,-535.5 624,-535.5"/>
<text text-anchor="start" x="644.5" y="-544.3" font-family="Serif" font-size="14.00">turn</text>
</g>
<!-- n4&#45;&gt;n5 -->
<!-- S -->
<g id="e24" class="edge">
<title>n4:s&#45;&gt;n5:n</title>
<path fill="none" stroke="black" d="M660,-612C660,-591.1 660,-584.66 660,-566.02"/>
<polygon fill="black" stroke="black" points="661.75,-566 660,-561 658.25,-566 661.75,-566"/>
<text text-anchor="middle" x="665" y="-582.8" font-family="Serif" font-size="14.00">S</text>
</g>
<!-- n4&#45;&gt;n5 -->
<!-- S -->
<g id="e25" class="edge">
<title>n4:s&#45;&gt;n5:n</title>
<path fill="none" stroke="black" d="M702,-612C702,-608.9 672.1,-577.34 662.76,-565.34"/>
<polygon fill="black" stroke="black" points="664.16,-564.28 660,-561 661.2,-566.16 664.16,-564.28"/>
<text text-anchor="middle" x="692" y="-582.8" font-family="Serif" font-size="14.00">S</text>
</g>
<!-- n6 -->
<!-- turn_left -->
<g id="n6" class="node">
<title>n6</title>
<polygon fill="lightblue" stroke="transparent" points="610,-485 538,-485 538,-460 610,-460 610,-485"/>
<polygon fill="none" stroke="black" points="538,-459.5 538,-484.5 610,-484.5 610,-459.5 538,-459.5"/>
<text text-anchor="start" x="543" y="-468.3" font-family="Serif" font-size="14.00">turn_left</text>
</g>
<!-- n5&#45;&gt;n6 -->
<!-- S -->
<g id="e22" class="edge">
<title>n5:s&#45;&gt;n6:n</title>
<path fill="none" stroke="black" d="M636,-536C636,-519.83 585.08,-505.73 575.53,-489.96"/>
<polygon fill="black" stroke="black" points="577.15,-489.26 574,-485 573.81,-490.29 577.15,-489.26"/>
<text text-anchor="middle" x="622" y="-506.8" font-family="Serif" font-size="14.00">S</text>
</g>
<!-- n7 -->
<!-- turn_right -->
<g id="n7" class="node">
<title>n7</title>
<polygon fill="lightblue" stroke="transparent" points="757.5,-485 674.5,-485 674.5,-460 757.5,-460 757.5,-485"/>
<polygon fill="none" stroke="black" points="675,-459.5 675,-484.5 758,-484.5 758,-459.5 675,-459.5"/>
<text text-anchor="start" x="680" y="-468.3" font-family="Serif" font-size="14.00">turn_right</text>
</g>
<!-- n5&#45;&gt;n7 -->
<!-- S -->
<g id="e21" class="edge">
<title>n5:s&#45;&gt;n7:n</title>
<path fill="none" stroke="black" d="M684,-536C684,-510.79 712.76,-511.73 716.58,-490"/>
<polygon fill="black" stroke="black" points="718.33,-490.13 717,-485 714.84,-489.84 718.33,-490.13"/>
<text text-anchor="middle" x="714" y="-506.8" font-family="Serif" font-size="14.00">S</text>
</g>
<!-- n8 -->
<!-- move_fwd -->
<g id="n8" class="node">
<title>n8</title>
<polygon fill="lightblue" stroke="transparent" points="687,-409 605,-409 605,-384 687,-384 687,-409"/>
<polygon fill="none" stroke="black" points="605,-383.5 605,-408.5 687,-408.5 687,-383.5 605,-383.5"/>
<text text-anchor="start" x="610" y="-392.3" font-family="Serif" font-size="14.00">move_fwd</text>
</g>
<!-- n5&#45;&gt;n8 -->
<!-- S -->
<g id="e26" class="edge">
<title>n5:s&#45;&gt;n8:n</title>
<path fill="none" stroke="black" d="M660,-536C660,-480.99 646.86,-466.67 646.04,-414.2"/>
<polygon fill="black" stroke="black" points="647.79,-413.99 646,-409 644.29,-414.01 647.79,-413.99"/>
<text text-anchor="middle" x="660" y="-468.8" font-family="Serif" font-size="14.00">S</text>
</g>
<!-- n6&#45;&gt;n8 -->
<!-- S -->
<g id="e27" class="edge">
<title>n6:s&#45;&gt;n8:n</title>
<path fill="none" stroke="black" d="M556,-460C556,-443.29 560.78,-437.22 574,-427 598.56,-408.01 640.69,-438.05 645.54,-414.12"/>
<polygon fill="black" stroke="black" points="647.3,-414.14 646,-409 643.81,-413.82 647.3,-414.14"/>
<text text-anchor="middle" x="579" y="-430.8" font-family="Serif" font-size="14.00">S</text>
</g>
<!-- n6&#45;&gt;n8 -->
<!-- S -->
<g id="e28" class="edge">
<title>n6:s&#45;&gt;n8:n</title>
<path fill="none" stroke="black" d="M592,-460C592,-440.18 607.34,-440.34 622,-427 630.32,-419.43 641.69,-421.31 645.03,-414.08"/>
<polygon fill="black" stroke="black" points="646.79,-414.24 646,-409 643.35,-413.59 646.79,-414.24"/>
<text text-anchor="middle" x="627" y="-430.8" font-family="Serif" font-size="14.00">S</text>
</g>
<!-- n7&#45;&gt;n8 -->
<!-- S -->
<g id="e13" class="edge">
<title>n7:s&#45;&gt;n8:n</title>
<path fill="none" stroke="black" d="M738,-460C738,-438.29 720.77,-437.91 702,-427 681.16,-414.89 651.15,-432.03 646.59,-414.3"/>
<polygon fill="black" stroke="black" points="648.29,-413.78 646,-409 644.81,-414.16 648.29,-413.78"/>
<text text-anchor="middle" x="735" y="-430.8" font-family="Serif" font-size="14.00">S</text>
</g>
<!-- n7&#45;&gt;n8 -->
<!-- S -->
<g id="e29" class="edge">
<title>n7:s&#45;&gt;n8:n</title>
<path fill="none" stroke="black" d="M696,-460C696,-445.74 655.64,-428.75 647.44,-413.93"/>
<polygon fill="black" stroke="black" points="649.08,-413.31 646,-409 645.72,-414.29 649.08,-413.31"/>
<text text-anchor="middle" x="686" y="-430.8" font-family="Serif" font-size="14.00">S</text>
</g>
<!-- n9 -->
<!-- reprod -->
<g id="n9" class="node">
<title>n9</title>
<polygon fill="lightpink" stroke="transparent" points="701.5,-333 642.5,-333 642.5,-308 701.5,-308 701.5,-333"/>
<polygon fill="none" stroke="black" points="643,-307.5 643,-332.5 702,-332.5 702,-307.5 643,-307.5"/>
<text text-anchor="start" x="648" y="-316.3" font-family="Serif" font-size="14.00">reprod</text>
</g>
<!-- n8&#45;&gt;n9 -->
<!-- S (in) -->
<g id="e11" class="edge">
<title>n8:s&#45;&gt;n9:n</title>
<path fill="none" stroke="black" d="M625,-384C625,-375.06 618.05,-374.71 616,-366 614.47,-359.51 612.06,-356.38 616,-351 630.48,-331.25 666.7,-355.19 672.28,-338.24"/>
<polygon fill="black" stroke="black" points="674.05,-338.19 673,-333 670.58,-337.71 674.05,-338.19"/>
<text text-anchor="middle" x="635.5" y="-354.8" font-family="Serif" font-size="14.00">S (in)</text>
</g>
<!-- n8&#45;&gt;n9 -->
<!-- S -->
<g id="e12" class="edge">
<title>n8:s&#45;&gt;n9:n</title>
<path fill="none" stroke="black" d="M667,-384C667,-362.96 672.1,-356.77 672.9,-338.05"/>
<polygon fill="black" stroke="black" points="674.65,-338.04 673,-333 671.15,-337.96 674.65,-338.04"/>
<text text-anchor="middle" x="676" y="-354.8" font-family="Serif" font-size="14.00">S</text>
</g>
<!-- n10 -->
<!-- reproduce -->
<g id="n10" class="node">
<title>n10</title>
<polygon fill="lightblue" stroke="transparent" points="686.5,-257 603.5,-257 603.5,-232 686.5,-232 686.5,-257"/>
<polygon fill="none" stroke="black" points="604,-231.5 604,-256.5 687,-256.5 687,-231.5 604,-231.5"/>
<text text-anchor="start" x="609" y="-240.3" font-family="Serif" font-size="14.00">reproduce</text>
</g>
<!-- n9&#45;&gt;n10 -->
<!-- S -->
<g id="e18" class="edge">
<title>n9:s&#45;&gt;n10:n</title>
<path fill="none" stroke="black" d="M658,-308C658,-286.53 647.8,-281.09 646.21,-262.13"/>
<polygon fill="black" stroke="black" points="647.95,-261.92 646,-257 644.45,-262.07 647.95,-261.92"/>
<text text-anchor="middle" x="659" y="-278.8" font-family="Serif" font-size="14.00">S</text>
</g>
<!-- n11 -->
<!-- starve -->
<g id="n11" class="node">
<title>n11</title>
<polygon fill="lightblue" stroke="transparent" points="764,-181 708,-181 708,-156 764,-156 764,-181"/>
<polygon fill="none" stroke="black" points="708,-155.5 708,-180.5 764,-180.5 764,-155.5 708,-155.5"/>
<text text-anchor="start" x="713" y="-164.3" font-family="Serif" font-size="14.00">starve</text>
</g>
<!-- n9&#45;&gt;n11 -->
<!-- S (out) -->
<g id="e23" class="edge">
<title>n9:s&#45;&gt;n11:n</title>
<path fill="none" stroke="black" d="M688,-308C688,-260.47 727.31,-260.07 739,-214 742.17,-201.51 737.5,-196.89 736.28,-186.06"/>
<polygon fill="black" stroke="black" points="738.02,-185.9 736,-181 734.53,-186.09 738.02,-185.9"/>
<text text-anchor="middle" x="755.5" y="-240.8" font-family="Serif" font-size="14.00">S (out)</text>
</g>
<!-- n10&#45;&gt;n11 -->
<!-- S -->
<g id="e16" class="edge">
<title>n10:s&#45;&gt;n11:n</title>
<path fill="none" stroke="black" d="M667,-232C667,-195.8 729.17,-216.73 735.48,-186.34"/>
<polygon fill="black" stroke="black" points="737.26,-186.15 736,-181 733.78,-185.81 737.26,-186.15"/>
<text text-anchor="middle" x="730" y="-202.8" font-family="Serif" font-size="14.00">S</text>
</g>
<!-- n10&#45;&gt;n11 -->
<!-- S -->
<g id="e20" class="edge">
<title>n10:s&#45;&gt;n11:n</title>
<path fill="none" stroke="black" d="M625,-232C625,-203.87 653.4,-210.65 679,-199 701.29,-188.85 730.92,-204.69 735.42,-186.42"/>
<polygon fill="black" stroke="black" points="737.21,-186.16 736,-181 733.73,-185.78 737.21,-186.16"/>
<text text-anchor="middle" x="684" y="-202.8" font-family="Serif" font-size="14.00">S</text>
</g>
<!-- n11&#45;&gt;n2 -->
<g id="e15" class="edge">
<title>n11:s&#45;&gt;n2:n</title>
<path fill="none" stroke="black" d="M722,-154.5C722,-148.26 712.25,-150.93 708,-155.5 700.28,-163.79 706.5,-169.77 708,-181 712.65,-215.73 712.02,-226.34 729,-257 747.21,-289.89 786,-281.91 786,-319.5 786,-625.5 786,-625.5 786,-625.5 786,-655.34 804.96,-658.68 810.5,-688 812.52,-698.7 818.04,-704.64 810.5,-712.5 804.49,-718.76 792.5,-722.6 787.88,-718.39"/>
<polygon fill="black" stroke="black" points="789.43,-717.54 786,-713.5 786.16,-718.8 789.43,-717.54"/>
</g>
<!-- n12 -->
<g id="n12" class="node">
<title>n12</title>
<polygon fill="lavender" stroke="transparent" points="838,-97.5 814,-97.5 814,-87.5 838,-87.5 838,-97.5"/>
<polygon fill="none" stroke="black" points="814,-87.5 814,-97.5 838,-97.5 838,-87.5 814,-87.5"/>
</g>
<!-- n11&#45;&gt;n12 -->
<!-- S -->
<g id="e10" class="edge">
<title>n11:s&#45;&gt;n12:n</title>
<path fill="none" stroke="black" d="M750,-156C750,-115.46 819.61,-138.65 825.59,-103.59"/>
<polygon fill="black" stroke="black" points="827.34,-103.62 826,-98.5 823.85,-103.34 827.34,-103.62"/>
<text text-anchor="middle" x="810" y="-126.8" font-family="Serif" font-size="14.00">S</text>
</g>
<!-- n12&#45;&gt;n2 -->
<g id="e14" class="edge">
<title>n12:s&#45;&gt;n2:n</title>
<path fill="none" stroke="black" d="M826,-86.5C826,-81.15 834.38,-83.56 838,-87.5 862.08,-113.66 838,-131.94 838,-167.5 838,-625.5 838,-625.5 838,-625.5 838,-666.05 842.72,-687.87 810.5,-712.5 803.6,-717.77 792.14,-722.2 787.77,-718.26"/>
<polygon fill="black" stroke="black" points="789.38,-717.58 786,-713.5 786.1,-718.8 789.38,-717.58"/>
</g>
<!-- n14 -->
<!-- Fail -->
<g id="n14" class="node">
<title>n14</title>
<polygon fill="red" stroke="transparent" points="484.5,-561 447.5,-561 447.5,-536 484.5,-536 484.5,-561"/>
<polygon fill="none" stroke="black" points="448,-535.5 448,-560.5 485,-560.5 485,-535.5 448,-535.5"/>
<text text-anchor="start" x="453" y="-544.3" font-family="Serif" font-size="14.00">Fail</text>
</g>
<!-- n13&#45;&gt;n14 -->
<g id="e40" class="edge">
<title>n13:s&#45;&gt;n14:n</title>
<path fill="none" stroke="black" d="M331,-612C331,-549.34 459.15,-621.1 466.66,-566.31"/>
<polygon fill="black" stroke="black" points="468.42,-566.1 467,-561 464.93,-565.88 468.42,-566.1"/>
</g>
<!-- n15 -->
<!-- Wolf_eat -->
<g id="n15" class="node">
<title>n15</title>
<polygon fill="lightblue" stroke="transparent" points="178.5,-561 107.5,-561 107.5,-536 178.5,-536 178.5,-561"/>
<polygon fill="none" stroke="black" points="108,-535.5 108,-560.5 179,-560.5 179,-535.5 108,-535.5"/>
<text text-anchor="start" x="113" y="-544.3" font-family="Serif" font-size="14.00">Wolf_eat</text>
</g>
<!-- n13&#45;&gt;n15 -->
<!-- W -->
<g id="e42" class="edge">
<title>n13:s&#45;&gt;n15:n</title>
<path fill="none" stroke="black" d="M295,-612C295,-579.45 254.9,-604.23 224,-594 189.2,-582.48 148.06,-597.88 144.28,-566.05"/>
<polygon fill="black" stroke="black" points="146.03,-565.89 144,-561 142.53,-566.09 146.03,-565.89"/>
<text text-anchor="middle" x="231.5" y="-582.8" font-family="Serif" font-size="14.00">W</text>
</g>
<!-- n24 -->
<!-- Query grass -->
<g id="n24" class="node">
<title>n24</title>
<polygon fill="yellow" stroke="transparent" points="429,-561 331,-561 331,-536 429,-536 429,-561"/>
<polygon fill="none" stroke="black" points="331,-535.5 331,-560.5 429,-560.5 429,-535.5 331,-535.5"/>
<text text-anchor="start" x="336" y="-544.3" font-family="Serif" font-size="14.00">Query grass</text>
</g>
<!-- n13&#45;&gt;n24 -->
<g id="e2" class="edge">
<title>n13:s&#45;&gt;n24:n</title>
<path fill="none" stroke="black" d="M259,-612C259,-565.57 347.65,-605.89 354.57,-566.24"/>
<polygon fill="black" stroke="black" points="356.34,-566.13 355,-561 352.85,-565.84 356.34,-566.13"/>
</g>
<!-- n16 -->
<!-- turn -->
<g id="n16" class="node">
<title>n16</title>
<polygon fill="lightpink" stroke="transparent" points="160,-485 88,-485 88,-460 160,-460 160,-485"/>
<polygon fill="none" stroke="black" points="88,-459.5 88,-484.5 160,-484.5 160,-459.5 88,-459.5"/>
<text text-anchor="start" x="108.5" y="-468.3" font-family="Serif" font-size="14.00">turn</text>
</g>
<!-- n15&#45;&gt;n16 -->
<!-- W -->
<g id="e47" class="edge">
<title>n15:s&#45;&gt;n16:n</title>
<path fill="none" stroke="black" d="M126,-536C126,-527.99 125.34,-526 125,-518 124.45,-505.17 124.1,-500.76 124.02,-490.03"/>
<polygon fill="black" stroke="black" points="125.77,-489.99 124,-485 122.27,-490.01 125.77,-489.99"/>
<text text-anchor="middle" x="132.5" y="-506.8" font-family="Serif" font-size="14.00">W</text>
</g>
<!-- n15&#45;&gt;n16 -->
<!-- W -->
<g id="e48" class="edge">
<title>n15:s&#45;&gt;n16:n</title>
<path fill="none" stroke="black" d="M162,-536C162,-518.37 150.77,-516.95 140,-503 134.79,-496.25 127.72,-495.62 125.07,-490.23"/>
<polygon fill="black" stroke="black" points="126.71,-489.55 124,-485 123.28,-490.25 126.71,-489.55"/>
<text text-anchor="middle" x="162.5" y="-506.8" font-family="Serif" font-size="14.00">W</text>
</g>
<!-- n17 -->
<!-- turn_left -->
<g id="n17" class="node">
<title>n17</title>
<polygon fill="lightblue" stroke="transparent" points="72,-409 0,-409 0,-384 72,-384 72,-409"/>
<polygon fill="none" stroke="black" points="0,-383.5 0,-408.5 72,-408.5 72,-383.5 0,-383.5"/>
<text text-anchor="start" x="5" y="-392.3" font-family="Serif" font-size="14.00">turn_left</text>
</g>
<!-- n16&#45;&gt;n17 -->
<!-- W -->
<g id="e45" class="edge">
<title>n16:s&#45;&gt;n17:n</title>
<path fill="none" stroke="black" d="M100,-460C100,-456.09 52.73,-424.59 39.44,-412.93"/>
<polygon fill="black" stroke="black" points="40.61,-411.61 36,-409 37.98,-413.91 40.61,-411.61"/>
<text text-anchor="middle" x="85.5" y="-430.8" font-family="Serif" font-size="14.00">W</text>
</g>
<!-- n18 -->
<!-- turn_right -->
<g id="n18" class="node">
<title>n18</title>
<polygon fill="lightblue" stroke="transparent" points="224.5,-409 141.5,-409 141.5,-384 224.5,-384 224.5,-409"/>
<polygon fill="none" stroke="black" points="142,-383.5 142,-408.5 225,-408.5 225,-383.5 142,-383.5"/>
<text text-anchor="start" x="147" y="-392.3" font-family="Serif" font-size="14.00">turn_right</text>
</g>
<!-- n16&#45;&gt;n18 -->
<!-- W -->
<g id="e44" class="edge">
<title>n16:s&#45;&gt;n18:n</title>
<path fill="none" stroke="black" d="M148,-460C148,-434.1 179.38,-436.29 183.54,-414.12"/>
<polygon fill="black" stroke="black" points="185.3,-414.14 184,-409 181.81,-413.83 185.3,-414.14"/>
<text text-anchor="middle" x="184.5" y="-430.8" font-family="Serif" font-size="14.00">W</text>
</g>
<!-- n19 -->
<!-- move_fwd -->
<g id="n19" class="node">
<title>n19</title>
<polygon fill="lightblue" stroke="transparent" points="180,-333 98,-333 98,-308 180,-308 180,-333"/>
<polygon fill="none" stroke="black" points="98,-307.5 98,-332.5 180,-332.5 180,-307.5 98,-307.5"/>
<text text-anchor="start" x="103" y="-316.3" font-family="Serif" font-size="14.00">move_fwd</text>
</g>
<!-- n16&#45;&gt;n19 -->
<!-- W -->
<g id="e49" class="edge">
<title>n16:s&#45;&gt;n19:n</title>
<path fill="none" stroke="black" d="M124,-460C124,-426.08 110.14,-417.22 117,-384 121.62,-361.62 136.54,-358.12 138.73,-338.14"/>
<polygon fill="black" stroke="black" points="140.49,-338.08 139,-333 136.99,-337.9 140.49,-338.08"/>
<text text-anchor="middle" x="124.5" y="-392.8" font-family="Serif" font-size="14.00">W</text>
</g>
<!-- n17&#45;&gt;n19 -->
<!-- W -->
<g id="e9" class="edge">
<title>n17:s&#45;&gt;n19:n</title>
<path fill="none" stroke="black" d="M54,-384C54,-365.6 63.89,-361.49 79,-351 100.26,-336.24 133.85,-357.43 138.47,-338.11"/>
<polygon fill="black" stroke="black" points="140.22,-338.15 139,-333 136.74,-337.79 140.22,-338.15"/>
<text text-anchor="middle" x="86.5" y="-354.8" font-family="Serif" font-size="14.00">W</text>
</g>
<!-- n17&#45;&gt;n19 -->
<!-- W -->
<g id="e31" class="edge">
<title>n17:s&#45;&gt;n19:n</title>
<path fill="none" stroke="black" d="M18,-384C18,-366.12 25.97,-360.68 41,-351 58.02,-340.05 125.81,-352.58 137.33,-337.9"/>
<polygon fill="black" stroke="black" points="139.04,-338.3 139,-333 135.73,-337.17 139.04,-338.3"/>
<text text-anchor="middle" x="48.5" y="-354.8" font-family="Serif" font-size="14.00">W</text>
</g>
<!-- n18&#45;&gt;n19 -->
<!-- W -->
<g id="e30" class="edge">
<title>n18:s&#45;&gt;n19:n</title>
<path fill="none" stroke="black" d="M163,-384C163,-360.81 142.43,-358.32 139.38,-338.2"/>
<polygon fill="black" stroke="black" points="141.11,-337.86 139,-333 137.62,-338.11 141.11,-337.86"/>
<text text-anchor="middle" x="165.5" y="-354.8" font-family="Serif" font-size="14.00">W</text>
</g>
<!-- n18&#45;&gt;n19 -->
<!-- W -->
<g id="e36" class="edge">
<title>n18:s&#45;&gt;n19:n</title>
<path fill="none" stroke="black" d="M205,-384C205,-364.77 192.26,-362.71 177,-351 163.8,-340.86 143.97,-349.33 139.79,-338.1"/>
<polygon fill="black" stroke="black" points="141.5,-337.67 139,-333 138.04,-338.21 141.5,-337.67"/>
<text text-anchor="middle" x="205.5" y="-354.8" font-family="Serif" font-size="14.00">W</text>
</g>
<!-- n20 -->
<!-- reprod -->
<g id="n20" class="node">
<title>n20</title>
<polygon fill="lightpink" stroke="transparent" points="188.5,-257 129.5,-257 129.5,-232 188.5,-232 188.5,-257"/>
<polygon fill="none" stroke="black" points="130,-231.5 130,-256.5 189,-256.5 189,-231.5 130,-231.5"/>
<text text-anchor="start" x="135" y="-240.3" font-family="Serif" font-size="14.00">reprod</text>
</g>
<!-- n19&#45;&gt;n20 -->
<!-- W -->
<g id="e34" class="edge">
<title>n19:s&#45;&gt;n20:n</title>
<path fill="none" stroke="black" d="M118,-308C118,-293.17 114.21,-286.95 123,-275 132.57,-262 154.08,-272.18 158.99,-262.16"/>
<polygon fill="black" stroke="black" points="160.76,-262.24 160,-257 157.32,-261.57 160.76,-262.24"/>
<text text-anchor="middle" x="130.5" y="-278.8" font-family="Serif" font-size="14.00">W</text>
</g>
<!-- n19&#45;&gt;n20 -->
<!-- W -->
<g id="e35" class="edge">
<title>n19:s&#45;&gt;n20:n</title>
<path fill="none" stroke="black" d="M160,-308C160,-287.1 160,-280.66 160,-262.02"/>
<polygon fill="black" stroke="black" points="161.75,-262 160,-257 158.25,-262 161.75,-262"/>
<text text-anchor="middle" x="167.5" y="-278.8" font-family="Serif" font-size="14.00">W</text>
</g>
<!-- n21 -->
<!-- reproduce -->
<g id="n21" class="node">
<title>n21</title>
<polygon fill="lightblue" stroke="transparent" points="185.5,-181 102.5,-181 102.5,-156 185.5,-156 185.5,-181"/>
<polygon fill="none" stroke="black" points="103,-155.5 103,-180.5 186,-180.5 186,-155.5 103,-155.5"/>
<text text-anchor="start" x="108" y="-164.3" font-family="Serif" font-size="14.00">reproduce</text>
</g>
<!-- n20&#45;&gt;n21 -->
<!-- W -->
<g id="e41" class="edge">
<title>n20:s&#45;&gt;n21:n</title>
<path fill="none" stroke="black" d="M145,-232C145,-211.1 145,-204.66 145,-186.02"/>
<polygon fill="black" stroke="black" points="146.75,-186 145,-181 143.25,-186 146.75,-186"/>
<text text-anchor="middle" x="152.5" y="-202.8" font-family="Serif" font-size="14.00">W</text>
</g>
<!-- n22 -->
<!-- starve -->
<g id="n22" class="node">
<title>n22</title>
<polygon fill="lightblue" stroke="transparent" points="258,-105 202,-105 202,-80 258,-80 258,-105"/>
<polygon fill="none" stroke="black" points="202,-79.5 202,-104.5 258,-104.5 258,-79.5 202,-79.5"/>
<text text-anchor="start" x="207" y="-88.3" font-family="Serif" font-size="14.00">starve</text>
</g>
<!-- n20&#45;&gt;n22 -->
<!-- W -->
<g id="e46" class="edge">
<title>n20:s&#45;&gt;n22:n</title>
<path fill="none" stroke="black" d="M175,-232C175,-181.46 224.12,-186.3 239,-138 240.96,-131.63 240.53,-129.49 239,-123 237.43,-116.34 232.99,-114.57 230.99,-110.09"/>
<polygon fill="black" stroke="black" points="232.67,-109.57 230,-105 229.24,-110.24 232.67,-109.57"/>
<text text-anchor="middle" x="237.5" y="-164.8" font-family="Serif" font-size="14.00">W</text>
</g>
<!-- n21&#45;&gt;n22 -->
<!-- W -->
<g id="e39" class="edge">
<title>n21:s&#45;&gt;n22:n</title>
<path fill="none" stroke="black" d="M166,-156C166,-121.48 223.67,-139.31 229.52,-110.11"/>
<polygon fill="black" stroke="black" points="231.28,-110.14 230,-105 227.79,-109.81 231.28,-110.14"/>
<text text-anchor="middle" x="227.5" y="-126.8" font-family="Serif" font-size="14.00">W</text>
</g>
<!-- n21&#45;&gt;n22 -->
<!-- W -->
<g id="e43" class="edge">
<title>n21:s&#45;&gt;n22:n</title>
<path fill="none" stroke="black" d="M124,-156C124,-131.56 146.13,-133.92 168,-123 191.97,-111.03 225.22,-130.73 229.53,-110.05"/>
<polygon fill="black" stroke="black" points="231.28,-110.14 230,-105 227.8,-109.82 231.28,-110.14"/>
<text text-anchor="middle" x="175.5" y="-126.8" font-family="Serif" font-size="14.00">W</text>
</g>
<!-- n22&#45;&gt;n13 -->
<g id="e38" class="edge">
<title>n22:s&#45;&gt;n13:n</title>
<path fill="none" stroke="black" d="M216,-78.5C216,-72.26 206.25,-74.93 202,-79.5 194.28,-87.79 200.5,-93.77 202,-105 204.02,-120.07 206.2,-123.58 211,-138 217.49,-157.5 220.41,-161.9 228,-181 239.06,-208.8 253,-213.58 253,-243.5 253,-549.5 253,-549.5 253,-549.5 253,-570.23 251.73,-579.97 267,-594 294,-618.8 324.58,-583.39 347.5,-612 354.31,-620.5 355.05,-628.65 347.5,-636.5 341.11,-643.14 328.27,-647.14 323.68,-642.32"/>
<polygon fill="black" stroke="black" points="325.3,-641.65 322,-637.5 321.99,-642.8 325.3,-641.65"/>
</g>
<!-- n23 -->
<g id="n23" class="node">
<title>n23</title>
<polygon fill="lavender" stroke="transparent" points="293,-29 269,-29 269,-19 293,-19 293,-29"/>
<polygon fill="none" stroke="black" points="269,-19 269,-29 293,-29 293,-19 269,-19"/>
</g>
<!-- n22&#45;&gt;n23 -->
<!-- W -->
<g id="e33" class="edge">
<title>n22:s&#45;&gt;n23:n</title>
<path fill="none" stroke="black" d="M244,-80C244,-53.86 276.25,-56.48 280.53,-34.16"/>
<polygon fill="black" stroke="black" points="282.29,-34.14 281,-29 278.81,-33.82 282.29,-34.14"/>
<text text-anchor="middle" x="281.5" y="-50.8" font-family="Serif" font-size="14.00">W</text>
</g>
<!-- n23&#45;&gt;n13 -->
<g id="e37" class="edge">
<title>n23:s&#45;&gt;n13:n</title>
<path fill="none" stroke="black" d="M281,-18C281,-12.65 289.12,-15.32 293,-19 316.61,-41.37 303,-58.97 303,-91.5 303,-549.5 303,-549.5 303,-549.5 303,-583.6 337.12,-579.52 347.5,-612 350.82,-622.37 355.05,-628.65 347.5,-636.5 341.11,-643.14 328.27,-647.14 323.68,-642.32"/>
<polygon fill="black" stroke="black" points="325.3,-641.65 322,-637.5 321.99,-642.8 325.3,-641.65"/>
</g>
<!-- n24&#45;&gt;n1 -->
<g id="e5" class="edge">
<title>n24:s&#45;&gt;n1:n</title>
<path fill="none" stroke="black" d="M347,-534.5C347,-527.38 335.88,-530.31 331,-535.5 323.24,-543.76 324.76,-551.54 331,-561 332.83,-563.78 769.67,-747.22 771.5,-750 777.49,-759.09 779.03,-766.64 771.5,-774.5 765.74,-780.51 754.24,-784.22 749.8,-780.18"/>
<polygon fill="black" stroke="black" points="751.43,-779.54 748,-775.5 748.16,-780.79 751.43,-779.54"/>
</g>
<!-- n25 -->
<!-- Fail -->
<g id="n25" class="node">
<title>n25</title>
<polygon fill="red" stroke="transparent" points="519.5,-485 482.5,-485 482.5,-460 519.5,-460 519.5,-485"/>
<polygon fill="none" stroke="black" points="483,-459.5 483,-484.5 520,-484.5 520,-459.5 483,-459.5"/>
<text text-anchor="start" x="488" y="-468.3" font-family="Serif" font-size="14.00">Fail</text>
</g>
<!-- n24&#45;&gt;n25 -->
<g id="e3" class="edge">
<title>n24:s&#45;&gt;n25:n</title>
<path fill="none" stroke="black" d="M413,-536C413,-507.73 450.31,-533.42 474,-518 488.61,-508.49 499.74,-504.91 501.69,-490.01"/>
<polygon fill="black" stroke="black" points="503.44,-490.1 502,-485 499.95,-489.88 503.44,-490.1"/>
</g>
<!-- n26 -->
<!-- GrassIncrements -->
<g id="n26" class="node">
<title>n26</title>
<polygon fill="lightblue" stroke="transparent" points="464.5,-485 331.5,-485 331.5,-460 464.5,-460 464.5,-485"/>
<polygon fill="none" stroke="black" points="332,-459.5 332,-484.5 465,-484.5 465,-459.5 332,-459.5"/>
<text text-anchor="start" x="337" y="-468.3" font-family="Serif" font-size="14.00">GrassIncrements</text>
</g>
<!-- n24&#45;&gt;n26 -->
<!-- G -->
<g id="e8" class="edge">
<title>n24:s&#45;&gt;n26:n</title>
<path fill="none" stroke="black" d="M381,-536C381,-525 368.07,-528.23 364,-518 361.54,-511.8 360.53,-508.69 364,-503 372.04,-489.82 393.16,-499.51 398,-489.93"/>
<polygon fill="black" stroke="black" points="399.72,-490.25 399,-485 396.29,-489.55 399.72,-490.25"/>
<text text-anchor="middle" x="370" y="-506.8" font-family="Serif" font-size="14.00">G</text>
</g>
<!-- n26&#45;&gt;n24 -->
<!-- G -->
<g id="e4" class="edge">
<title>n26:s&#45;&gt;n24:n</title>
<path fill="none" stroke="black" d="M365,-458.5C365,-451.05 336.69,-454.16 331.5,-459.5 323.61,-467.63 325.06,-475.67 331.5,-485 344.33,-503.58 358.9,-492.72 379,-503 379.37,-503.19 428.8,-535.63 429,-536 434.16,-545.59 436.54,-552.64 429,-560.5 423.11,-566.64 411.37,-570.41 406.84,-566.28"/>
<polygon fill="black" stroke="black" points="408.43,-565.54 405,-561.5 405.16,-566.79 408.43,-565.54"/>
<text text-anchor="middle" x="406" y="-506.8" font-family="Serif" font-size="14.00">G</text>
</g>
<!-- n26&#45;&gt;n24 -->
<!-- G -->
<g id="e6" class="edge">
<title>n26:s&#45;&gt;n24:n</title>
<path fill="none" stroke="black" d="M432,-458.5C432,-451.27 459.47,-454.31 464.5,-459.5 472.39,-467.64 467.02,-473.95 464.5,-485 458.92,-509.52 450.6,-513.19 440,-536 434.97,-546.82 438.88,-553.81 429,-560.5 422.09,-565.18 411.33,-569.67 406.95,-566.32"/>
<polygon fill="black" stroke="black" points="408.5,-565.48 405,-561.5 405.25,-566.79 408.5,-565.48"/>
<text text-anchor="middle" x="464" y="-506.8" font-family="Serif" font-size="14.00">G</text>
</g>
</g>
</svg>
