<?xml version="1.0" encoding="UTF-8" standalone="no"?>
<!DOCTYPE svg PUBLIC "-//W3C//DTD SVG 1.1//EN"
 "http://www.w3.org/Graphics/SVG/1.1/DTD/svg11.dtd">
<!-- Generated by graphviz version 2.43.0 (0)
 -->
<!-- Title: G Pages: 1 -->
<svg width="209pt" height="197pt"
 viewBox="0.00 0.00 208.89 197.50" xmlns="http://www.w3.org/2000/svg" xmlns:xlink="http://www.w3.org/1999/xlink">
<g id="graph0" class="graph" transform="scale(1 1) rotate(0) translate(4 193.5)">
<title>G</title>
<polygon fill="white" stroke="transparent" points="-4,4 -4,-193.5 204.89,-193.5 204.89,4 -4,4"/>
<!-- v1 -->
<g id="node1" class="node">
<title>v1</title>
<ellipse fill="tan" stroke="tan" cx="22.75" cy="-22.75" rx="23" ry="23"/>
<text text-anchor="middle" x="22.75" y="-19.05" font-family="Times,serif" font-size="14.00">30</text>
</g>
<!-- v2 -->
<g id="node2" class="node">
<title>v2</title>
<ellipse fill="tan" stroke="tan" cx="22.75" cy="-94.75" rx="23" ry="23"/>
<text text-anchor="middle" x="22.75" y="-91.05" font-family="Times,serif" font-size="14.00">13</text>
</g>
<!-- v3 -->
<g id="node3" class="node">
<title>v3</title>
<ellipse fill="lightgreen" stroke="lightgreen" cx="22.75" cy="-166.75" rx="18" ry="18"/>
</g>
<!-- v4 -->
<g id="node4" class="node">
<title>v4</title>
<ellipse fill="lightgreen" stroke="lightgreen" cx="94.75" cy="-22.75" rx="18" ry="18"/>
</g>
<!-- v5 -->
<g id="node5" class="node">
<title>v5</title>
<ellipse fill="tan" stroke="tan" cx="94.75" cy="-94.75" rx="18" ry="18"/>
<text text-anchor="middle" x="94.75" y="-91.05" font-family="Times,serif" font-size="14.00">5</text>
</g>
<!-- v6 -->
<g id="node6" class="node">
<title>v6</title>
<ellipse fill="lightgreen" stroke="lightgreen" cx="94.75" cy="-166.75" rx="18" ry="18"/>
</g>
<!-- v7 -->
<g id="node7" class="node">
<title>v7</title>
<ellipse fill="lightgreen" stroke="lightgreen" cx="166.75" cy="-22.75" rx="18" ry="18"/>
</g>
<!-- v8 -->
<g id="node8" class="node">
<title>v8</title>
<ellipse fill="lightgreen" stroke="lightgreen" cx="166.75" cy="-94.75" rx="18" ry="18"/>
</g>
<!-- v9 -->
<g id="node9" class="node">
<title>v9</title>
<ellipse fill="tan" stroke="tan" cx="166.75" cy="-166.75" rx="23" ry="23"/>
<text text-anchor="middle" x="166.75" y="-163.05" font-family="Times,serif" font-size="14.00">30</text>
</g>
<!-- w1 -->
<g id="node10" class="node">
<title>w1</title>
<polygon fill="red" stroke="red" points="37.76,-55.2 15.76,-55.2 15.76,-33.2 37.76,-33.2 37.76,-55.2"/>
<text text-anchor="middle" x="26.76" y="-40.5" font-family="Times,serif" font-size="14.00">1⁵</text>
</g>
<!-- w2 -->
<g id="node11" class="node">
<title>w2</title>
<polygon fill="red" stroke="red" points="200.89,-110.49 178.89,-110.49 178.89,-88.49 200.89,-88.49 200.89,-110.49"/>
<text text-anchor="middle" x="189.89" y="-95.79" font-family="Times,serif" font-size="14.00">2⁵</text>
</g>
<!-- s5 -->
<g id="node12" class="node">
<title>s5</title>
<polygon fill="lightblue" stroke="lightblue" points="179.03,-93.07 157.03,-93.07 157.03,-71.07 179.03,-71.07 179.03,-93.07"/>
<text text-anchor="middle" x="168.03" y="-78.37" font-family="Times,serif" font-size="14.00">5⁸</text>
</g>
<!-- s7 -->
<g id="node13" class="node">
<title>s7</title>
<polygon fill="lightblue" stroke="lightblue" points="35.68,-130.1 13.68,-130.1 13.68,-108.1 35.68,-108.1 35.68,-130.1"/>
<text text-anchor="middle" x="24.68" y="-115.4" font-family="Times,serif" font-size="14.00">7⁸*</text>
</g>
</g>
</svg>
