<?xml version="1.0" encoding="UTF-8" standalone="no"?>
<!DOCTYPE svg PUBLIC "-//W3C//DTD SVG 1.1//EN"
 "http://www.w3.org/Graphics/SVG/1.1/DTD/svg11.dtd">
<!-- Generated by graphviz version 2.43.0 (0)
 -->
<!-- Title: G Pages: 1 -->
<svg width="209pt" height="197pt"
 viewBox="0.00 0.00 209.12 197.50" xmlns="http://www.w3.org/2000/svg" xmlns:xlink="http://www.w3.org/1999/xlink">
<g id="graph0" class="graph" transform="scale(1 1) rotate(0) translate(4 193.5)">
<title>G</title>
<polygon fill="white" stroke="transparent" points="-4,4 -4,-193.5 205.12,-193.5 205.12,4 -4,4"/>
<!-- v1 -->
<g id="node1" class="node">
<title>v1</title>
<ellipse fill="tan" stroke="tan" cx="22.75" cy="-22.75" rx="23" ry="23"/>
<text text-anchor="middle" x="22.75" y="-19.05" font-family="Times,serif" font-size="14.00">30</text>
</g>
<!-- v2 -->
<g id="node2" class="node">
<title>v2</title>
<ellipse fill="tan" stroke="tan" cx="22.75" cy="-94.75" rx="23" ry="23"/>
<text text-anchor="middle" x="22.75" y="-91.05" font-family="Times,serif" font-size="14.00">13</text>
</g>
<!-- v3 -->
<g id="node3" class="node">
<title>v3</title>
<ellipse fill="lightgreen" stroke="lightgreen" cx="22.75" cy="-166.75" rx="18" ry="18"/>
</g>
<!-- v4 -->
<g id="node4" class="node">
<title>v4</title>
<ellipse fill="lightgreen" stroke="lightgreen" cx="94.75" cy="-22.75" rx="18" ry="18"/>
</g>
<!-- v5 -->
<g id="node5" class="node">
<title>v5</title>
<ellipse fill="tan" stroke="tan" cx="94.75" cy="-94.75" rx="18" ry="18"/>
<text text-anchor="middle" x="94.75" y="-91.05" font-family="Times,serif" font-size="14.00">5</text>
</g>
<!-- v6 -->
<g id="node6" class="node">
<title>v6</title>
<ellipse fill="lightgreen" stroke="lightgreen" cx="94.75" cy="-166.75" rx="18" ry="18"/>
</g>
<!-- v7 -->
<g id="node7" class="node">
<title>v7</title>
<ellipse fill="lightgreen" stroke="lightgreen" cx="166.75" cy="-22.75" rx="18" ry="18"/>
</g>
<!-- v8 -->
<g id="node8" class="node">
<title>v8</title>
<ellipse fill="lightgreen" stroke="lightgreen" cx="166.75" cy="-94.75" rx="18" ry="18"/>
</g>
<!-- v9 -->
<g id="node9" class="node">
<title>v9</title>
<ellipse fill="tan" stroke="tan" cx="166.75" cy="-166.75" rx="23" ry="23"/>
<text text-anchor="middle" x="166.75" y="-163.05" font-family="Times,serif" font-size="14.00">30</text>
</g>
<!-- w1 -->
<g id="node10" class="node">
<title>w1</title>
<polygon fill="red" stroke="red" points="37.56,-53.39 15.56,-53.39 15.56,-31.39 37.56,-31.39 37.56,-53.39"/>
<text text-anchor="middle" x="26.56" y="-38.69" font-family="Times,serif" font-size="14.00">1⁵</text>
</g>
<!-- w2 -->
<g id="node11" class="node">
<title>w2</title>
<polygon fill="red" stroke="red" points="201.12,-110.65 179.12,-110.65 179.12,-88.65 201.12,-88.65 201.12,-110.65"/>
<text text-anchor="middle" x="190.12" y="-95.95" font-family="Times,serif" font-size="14.00">2⁵</text>
</g>
<!-- s5 -->
<g id="node12" class="node">
<title>s5</title>
<polygon fill="lightblue" stroke="lightblue" points="183.02,-92.9 161.02,-92.9 161.02,-70.9 183.02,-70.9 183.02,-92.9"/>
<text text-anchor="middle" x="172.02" y="-78.2" font-family="Times,serif" font-size="14.00">5⁸</text>
</g>
<!-- s7 -->
<g id="node13" class="node">
<title>s7</title>
<polygon fill="lightblue" stroke="lightblue" points="35.16,-126.7 13.16,-126.7 13.16,-104.7 35.16,-104.7 35.16,-126.7"/>
<text text-anchor="middle" x="24.16" y="-112" font-family="Times,serif" font-size="14.00">7⁸</text>
</g>
</g>
</svg>
