<?xml version="1.0" encoding="UTF-8" standalone="no"?>
<!DOCTYPE svg PUBLIC "-//W3C//DTD SVG 1.1//EN"
 "http://www.w3.org/Graphics/SVG/1.1/DTD/svg11.dtd">
<!-- Generated by graphviz version 2.43.0 (0)
 -->
<!-- Title: G Pages: 1 -->
<svg width="448pt" height="453pt"
 viewBox="0.00 0.00 447.50 453.00" xmlns="http://www.w3.org/2000/svg" xmlns:xlink="http://www.w3.org/1999/xlink">
<g id="graph0" class="graph" transform="scale(1 1) rotate(0) translate(4 449)">
<title>G</title>
<polygon fill="white" stroke="transparent" points="-4,4 -4,-449 443.5,-449 443.5,4 -4,4"/>
<text text-anchor="middle" x="219.75" y="-413.8" font-family="Serif" font-size="14.00">New agent (19 remaining )</text>
<!-- n0in1 -->
<!-- n1 -->
<!-- for 1:1 -->
<g id="n1" class="node">
<title>n1</title>
<polygon fill="lightpink" stroke="transparent" points="160,-368 102,-368 102,-343 160,-343 160,-368"/>
<polygon fill="none" stroke="black" points="102,-342.5 102,-367.5 160,-367.5 160,-342.5 102,-342.5"/>
<text text-anchor="start" x="107" y="-351.3" font-family="Serif" font-size="14.00">for 1:1</text>
</g>
<!-- n0in1&#45;&gt;n1 -->
<g id="e1" class="edge">
<title>n0in1:s&#45;&gt;n1:n</title>
<path fill="none" stroke="black" d="M131,-405C131,-390.48 131,-385.58 131,-373.31"/>
<polygon fill="black" stroke="black" points="132.75,-373 131,-368 129.25,-373 132.75,-373"/>
</g>
<!-- n0out1 -->
<!-- n1&#45;&gt;n0out1 -->
<g id="e19" class="edge">
<title>n1:s&#45;&gt;n0out1:n</title>
<path fill="none" stroke="black" d="M116,-343C116,-292 12,-345.5 12,-294.5 12,-294.5 12,-294.5 12,-62 12,-36.69 12,-29.1 12,-6.14"/>
<polygon fill="black" stroke="black" points="13.75,-6 12,-1 10.25,-6 13.75,-6"/>
</g>
<!-- n2 -->
<!-- Query Cell -->
<g id="n2" class="node">
<title>n2</title>
<polygon fill="yellow" stroke="transparent" points="254,-306 168,-306 168,-281 254,-281 254,-306"/>
<polygon fill="none" stroke="black" points="168,-280.5 168,-305.5 254,-305.5 254,-280.5 168,-280.5"/>
<text text-anchor="start" x="173" y="-289.3" font-family="Serif" font-size="14.00">Query Cell</text>
</g>
<!-- n1&#45;&gt;n2 -->
<g id="e7" class="edge">
<title>n1:s&#45;&gt;n2:n</title>
<path fill="none" stroke="black" d="M146,-343C146,-319.76 182.54,-329.35 188.25,-311.24"/>
<polygon fill="black" stroke="black" points="190.03,-311.2 189,-306 186.56,-310.7 190.03,-311.2"/>
</g>
<!-- n3 -->
<!-- Fail -->
<g id="n3" class="node">
<title>n3</title>
<polygon fill="red" stroke="transparent" points="439.5,-230 402.5,-230 402.5,-205 439.5,-205 439.5,-230"/>
<polygon fill="none" stroke="black" points="403,-204.5 403,-229.5 440,-229.5 440,-204.5 403,-204.5"/>
<text text-anchor="start" x="408" y="-213.3" font-family="Serif" font-size="14.00">Fail</text>
</g>
<!-- n2&#45;&gt;n3 -->
<g id="e12" class="edge">
<title>n2:s&#45;&gt;n3:n</title>
<path fill="none" stroke="black" d="M240,-281C240,-252.06 341.79,-272.86 369,-263 393.35,-254.17 418.43,-257.25 421.65,-235.12"/>
<polygon fill="black" stroke="black" points="423.41,-235.11 422,-230 419.91,-234.87 423.41,-235.11"/>
</g>
<!-- n4 -->
<!-- Birth -->
<g id="n4" class="node">
<title>n4</title>
<polygon fill="lightblue" stroke="transparent" points="319,-230 271,-230 271,-205 319,-205 319,-230"/>
<polygon fill="none" stroke="black" points="271,-204.5 271,-229.5 319,-229.5 319,-204.5 271,-204.5"/>
<text text-anchor="start" x="276.5" y="-213.3" font-family="Serif" font-size="14.00">Birth</text>
</g>
<!-- n2&#45;&gt;n4 -->
<!--  (out) -->
<g id="e9" class="edge">
<title>n2:s&#45;&gt;n4:n</title>
<path fill="none" stroke="black" d="M212,-281C212,-239.56 288.02,-270.38 294.55,-235.16"/>
<polygon fill="black" stroke="black" points="296.31,-235.13 295,-230 292.83,-234.83 296.31,-235.13"/>
<text text-anchor="middle" x="303.5" y="-251.8" font-family="Serif" font-size="14.00"> (out)</text>
</g>
<!-- n6 -->
<!-- Query Cell -->
<g id="n6" class="node">
<title>n6</title>
<polygon fill="yellow" stroke="transparent" points="206,-230 120,-230 120,-205 206,-205 206,-230"/>
<polygon fill="none" stroke="black" points="120,-204.5 120,-229.5 206,-229.5 206,-204.5 120,-204.5"/>
<text text-anchor="start" x="125" y="-213.3" font-family="Serif" font-size="14.00">Query Cell</text>
</g>
<!-- n2&#45;&gt;n6 -->
<g id="e17" class="edge">
<title>n2:s&#45;&gt;n6:n</title>
<path fill="none" stroke="black" d="M182,-281C182,-268.05 149.48,-249.25 142.36,-235.02"/>
<polygon fill="black" stroke="black" points="144,-234.37 141,-230 140.62,-235.28 144,-234.37"/>
</g>
<!-- n5 -->
<!-- Persist -->
<g id="n5" class="node">
<title>n5</title>
<polygon fill="lightblue" stroke="transparent" points="335,-168 275,-168 275,-143 335,-143 335,-168"/>
<polygon fill="none" stroke="black" points="275,-142.5 275,-167.5 335,-167.5 335,-142.5 275,-142.5"/>
<text text-anchor="start" x="280" y="-151.3" font-family="Serif" font-size="14.00">Persist</text>
</g>
<!-- n4&#45;&gt;n5 -->
<g id="e10" class="edge">
<title>n4:s&#45;&gt;n5:n</title>
<path fill="none" stroke="black" d="M307,-205C307,-190.46 305.44,-185.59 305.08,-173.32"/>
<polygon fill="black" stroke="black" points="306.82,-172.97 305,-168 303.32,-173.02 306.82,-172.97"/>
</g>
<!-- n4&#45;&gt;n5 -->
<g id="e11" class="edge">
<title>n4:s&#45;&gt;n5:n</title>
<path fill="none" stroke="black" d="M283,-205C283,-187.81 300.76,-187.09 304.37,-173.24"/>
<polygon fill="black" stroke="black" points="306.14,-173.17 305,-168 302.66,-172.75 306.14,-173.17"/>
</g>
<!-- n5&#45;&gt;n2 -->
<g id="e13" class="edge">
<title>n5:s&#45;&gt;n2:n</title>
<path fill="none" stroke="black" d="M290,-141.5C290,-134.82 280.04,-138.11 275,-142.5 253.6,-161.13 266.02,-176.91 262,-205 255.65,-249.36 286.18,-274.32 254,-305.5 248.97,-310.38 239.67,-313.76 235.34,-311.2"/>
<polygon fill="black" stroke="black" points="236.79,-310.2 233,-306.5 233.66,-311.76 236.79,-310.2"/>
</g>
<!-- n5&#45;&gt;n2 -->
<!--  (in) -->
<g id="e14" class="edge">
<title>n5:s&#45;&gt;n2:n</title>
<path fill="none" stroke="black" d="M320,-141.5C320,-134.82 330.44,-137.62 335,-142.5 361.65,-170.99 344.75,-194.77 328,-230 298.29,-292.46 247.84,-316.76 235.69,-310.86"/>
<polygon fill="black" stroke="black" points="237.12,-309.83 233,-306.5 234.14,-311.67 237.12,-309.83"/>
<text text-anchor="middle" x="354.5" y="-213.8" font-family="Serif" font-size="14.00"> (in)</text>
</g>
<!-- n6&#45;&gt;n1 -->
<g id="e5" class="edge">
<title>n6:s&#45;&gt;n1:n</title>
<path fill="none" stroke="black" d="M134,-203.5C134,-197.26 124.25,-199.93 120,-204.5 112.28,-212.79 118.08,-218.83 120,-230 129.02,-282.51 150.98,-290.49 160,-343 161.84,-353.73 167.57,-359.67 160,-367.5 152.58,-375.18 137.56,-379.67 132.62,-373.66"/>
<polygon fill="black" stroke="black" points="134.17,-372.75 131,-368.5 130.83,-373.79 134.17,-372.75"/>
</g>
<!-- n7 -->
<!-- Fail -->
<g id="n7" class="node">
<title>n7</title>
<polygon fill="red" stroke="transparent" points="253.5,-168 216.5,-168 216.5,-143 253.5,-143 253.5,-168"/>
<polygon fill="none" stroke="black" points="217,-142.5 217,-167.5 254,-167.5 254,-142.5 217,-142.5"/>
<text text-anchor="start" x="222" y="-151.3" font-family="Serif" font-size="14.00">Fail</text>
</g>
<!-- n6&#45;&gt;n7 -->
<g id="e15" class="edge">
<title>n6:s&#45;&gt;n7:n</title>
<path fill="none" stroke="black" d="M192,-205C192,-181.45 229.39,-191.59 235.24,-173.3"/>
<polygon fill="black" stroke="black" points="237.02,-173.2 236,-168 233.55,-172.7 237.02,-173.2"/>
</g>
<!-- n8 -->
<!-- ClearCurr -->
<g id="n8" class="node">
<title>n8</title>
<polygon fill="lightblue" stroke="transparent" points="122,-168 40,-168 40,-143 122,-143 122,-168"/>
<polygon fill="none" stroke="black" points="40,-142.5 40,-167.5 122,-167.5 122,-142.5 40,-142.5"/>
<text text-anchor="start" x="45" y="-151.3" font-family="Serif" font-size="14.00">ClearCurr</text>
</g>
<!-- n6&#45;&gt;n8 -->
<g id="e8" class="edge">
<title>n6:s&#45;&gt;n8:n</title>
<path fill="none" stroke="black" d="M164,-205C164,-186.54 94.65,-187.79 82.73,-172.71"/>
<polygon fill="black" stroke="black" points="84.37,-172.09 81,-168 81.08,-173.3 84.37,-172.09"/>
</g>
<!-- n9 -->
<!-- CopyNext -->
<g id="n9" class="node">
<title>n9</title>
<polygon fill="lightblue" stroke="transparent" points="121.5,-106 40.5,-106 40.5,-81 121.5,-81 121.5,-106"/>
<polygon fill="none" stroke="black" points="41,-80.5 41,-105.5 122,-105.5 122,-80.5 41,-80.5"/>
<text text-anchor="start" x="46" y="-89.3" font-family="Serif" font-size="14.00">CopyNext</text>
</g>
<!-- n8&#45;&gt;n9 -->
<g id="e2" class="edge">
<title>n8:s&#45;&gt;n9:n</title>
<path fill="none" stroke="black" d="M102,-143C102,-126.21 85.86,-124.81 82.58,-111.15"/>
<polygon fill="black" stroke="black" points="84.3,-110.77 82,-106 80.82,-111.16 84.3,-110.77"/>
</g>
<!-- n8&#45;&gt;n9 -->
<g id="e6" class="edge">
<title>n8:s&#45;&gt;n9:n</title>
<path fill="none" stroke="black" d="M60,-143C60,-125.81 77.76,-125.09 81.37,-111.24"/>
<polygon fill="black" stroke="black" points="83.14,-111.17 82,-106 79.66,-110.75 83.14,-111.17"/>
</g>
<!-- n10 -->
<!-- ClearNext -->
<g id="n10" class="node">
<title>n10</title>
<polygon fill="lightblue" stroke="transparent" points="190.5,-44 107.5,-44 107.5,-19 190.5,-19 190.5,-44"/>
<polygon fill="none" stroke="black" points="108,-18.5 108,-43.5 191,-43.5 191,-18.5 108,-18.5"/>
<text text-anchor="start" x="113" y="-27.3" font-family="Serif" font-size="14.00">ClearNext</text>
</g>
<!-- n9&#45;&gt;n10 -->
<g id="e4" class="edge">
<title>n9:s&#45;&gt;n10:n</title>
<path fill="none" stroke="black" d="M61,-81C61,-40 142.52,-82.82 149.52,-49.03"/>
<polygon fill="black" stroke="black" points="151.27,-49.14 150,-44 147.78,-48.81 151.27,-49.14"/>
</g>
<!-- n9&#45;&gt;n10 -->
<g id="e18" class="edge">
<title>n9:s&#45;&gt;n10:n</title>
<path fill="none" stroke="black" d="M102,-81C102,-55.96 143.49,-68.78 149.32,-49.06"/>
<polygon fill="black" stroke="black" points="151.07,-49.19 150,-44 147.6,-48.72 151.07,-49.19"/>
</g>
<!-- n10&#45;&gt;n6 -->
<g id="e3" class="edge">
<title>n10:s&#45;&gt;n6:n</title>
<path fill="none" stroke="black" d="M171,-17.5C171,-8.82 184.27,-12.46 190.5,-18.5 220.37,-47.44 204.28,-163.45 206,-205 206.45,-215.88 213.51,-221.62 206,-229.5 201.16,-234.57 191.77,-237.85 187.37,-235.24"/>
<polygon fill="black" stroke="black" points="188.81,-234.19 185,-230.5 185.68,-235.75 188.81,-234.19"/>
</g>
<!-- n10&#45;&gt;n6 -->
<g id="e16" class="edge">
<title>n10:s&#45;&gt;n6:n</title>
<path fill="none" stroke="black" d="M129,-17.5C129,-7.93 114.11,-11.58 107.5,-18.5 99.67,-26.7 104.34,-33.12 107.5,-44 112.94,-62.71 120.74,-64.44 131,-81 164.93,-135.74 188.7,-142.96 206,-205 208.93,-215.49 213.51,-221.62 206,-229.5 201.16,-234.57 191.77,-237.85 187.37,-235.24"/>
<polygon fill="black" stroke="black" points="188.81,-234.19 185,-230.5 185.68,-235.75 188.81,-234.19"/>
</g>
</g>
</svg>
