<?xml version="1.0" encoding="UTF-8" standalone="no"?>
<!DOCTYPE svg PUBLIC "-//W3C//DTD SVG 1.1//EN"
 "http://www.w3.org/Graphics/SVG/1.1/DTD/svg11.dtd">
<!-- Generated by graphviz version 2.43.0 (0)
 -->
<!-- Title: G Pages: 1 -->
<svg width="938pt" height="872pt"
 viewBox="0.00 0.00 938.00 872.00" xmlns="http://www.w3.org/2000/svg" xmlns:xlink="http://www.w3.org/1999/xlink">
<g id="graph0" class="graph" transform="scale(1 1) rotate(0) translate(4 868)">
<title>G</title>
<polygon fill="white" stroke="transparent" points="-4,4 -4,-868 934,-868 934,4 -4,4"/>
<text text-anchor="middle" x="465" y="-848.8" font-family="Serif" font-size="14.00">[1, 0] </text>
<!-- n0in1 -->
<!-- n1 -->
<!-- while -->
<g id="n1" class="node">
<title>n1</title>
<polygon fill="lightpink" stroke="transparent" points="771.5,-789 722.5,-789 722.5,-764 771.5,-764 771.5,-789"/>
<polygon fill="none" stroke="black" points="723,-763.5 723,-788.5 772,-788.5 772,-763.5 723,-763.5"/>
<text text-anchor="start" x="728" y="-772.3" font-family="Serif" font-size="14.00">while</text>
</g>
<!-- n0in1&#45;&gt;n1 -->
<!--  (in) -->
<g id="e1" class="edge">
<title>n0in1:s&#45;&gt;n1:n</title>
<path fill="none" stroke="black" d="M748,-840C748,-819.1 748,-812.66 748,-794.02"/>
<polygon fill="black" stroke="black" points="749.75,-794 748,-789 746.25,-794 749.75,-794"/>
<text text-anchor="middle" x="762.5" y="-810.8" font-family="Serif" font-size="14.00"> (in)</text>
</g>
<!-- n0out1 -->
<!-- n1&#45;&gt;n0out1 -->
<g id="e50" class="edge">
<title>n1:s&#45;&gt;n0out1:n</title>
<path fill="none" stroke="black" d="M760,-764C760,-745.12 918,-720.38 918,-701.5 918,-701.5 918,-701.5 918,-53.5 918,-31.99 918,-25.35 918,-6.17"/>
<polygon fill="black" stroke="black" points="919.75,-6 918,-1 916.25,-6 919.75,-6"/>
</g>
<!-- n2 -->
<!-- Query sheep -->
<g id="n2" class="node">
<title>n2</title>
<polygon fill="yellow" stroke="transparent" points="810.5,-713 709.5,-713 709.5,-688 810.5,-688 810.5,-713"/>
<polygon fill="none" stroke="black" points="710,-687.5 710,-712.5 811,-712.5 811,-687.5 710,-687.5"/>
<text text-anchor="start" x="715" y="-696.3" font-family="Serif" font-size="14.00">Query sheep</text>
</g>
<!-- n1&#45;&gt;n2 -->
<!--  (out) -->
<g id="e7" class="edge">
<title>n1:s&#45;&gt;n2:n</title>
<path fill="none" stroke="black" d="M735,-764C735,-743.1 735,-736.66 735,-718.02"/>
<polygon fill="black" stroke="black" points="736.75,-718 735,-713 733.25,-718 736.75,-718"/>
<text text-anchor="middle" x="754.5" y="-734.8" font-family="Serif" font-size="14.00"> (out)</text>
</g>
<!-- n3 -->
<!-- Fail -->
<g id="n3" class="node">
<title>n3</title>
<polygon fill="red" stroke="transparent" points="889.5,-637 852.5,-637 852.5,-612 889.5,-612 889.5,-637"/>
<polygon fill="none" stroke="black" points="853,-611.5 853,-636.5 890,-636.5 890,-611.5 853,-611.5"/>
<text text-anchor="start" x="858" y="-620.3" font-family="Serif" font-size="14.00">Fail</text>
</g>
<!-- n2&#45;&gt;n3 -->
<g id="e17" class="edge">
<title>n2:s&#45;&gt;n3:n</title>
<path fill="none" stroke="black" d="M795,-688C795,-667.28 820.71,-681.41 838,-670 854.06,-659.4 869.17,-658.2 871.65,-641.99"/>
<polygon fill="black" stroke="black" points="873.39,-642.11 872,-637 869.9,-641.86 873.39,-642.11"/>
</g>
<!-- n4 -->
<!-- Sheep_eat -->
<g id="n4" class="node">
<title>n4</title>
<polygon fill="lightblue" stroke="transparent" points="733,-637 649,-637 649,-612 733,-612 733,-637"/>
<polygon fill="none" stroke="black" points="649,-611.5 649,-636.5 733,-636.5 733,-611.5 649,-611.5"/>
<text text-anchor="start" x="654" y="-620.3" font-family="Serif" font-size="14.00">Sheep_eat</text>
</g>
<!-- n2&#45;&gt;n4 -->
<!-- S -->
<g id="e19" class="edge">
<title>n2:s&#45;&gt;n4:n</title>
<path fill="none" stroke="black" d="M761,-688C761,-651.31 697.41,-673.2 691.45,-642"/>
<polygon fill="black" stroke="black" points="693.19,-641.82 691,-637 689.7,-642.14 693.19,-641.82"/>
<text text-anchor="middle" x="755" y="-658.8" font-family="Serif" font-size="14.00">S</text>
</g>
<!-- n13 -->
<!-- Query wolves -->
<g id="n13" class="node">
<title>n13</title>
<polygon fill="yellow" stroke="transparent" points="347.5,-637 240.5,-637 240.5,-612 347.5,-612 347.5,-637"/>
<polygon fill="none" stroke="black" points="241,-611.5 241,-636.5 348,-636.5 348,-611.5 241,-611.5"/>
<text text-anchor="start" x="246" y="-620.3" font-family="Serif" font-size="14.00">Query wolves</text>
</g>
<!-- n2&#45;&gt;n13 -->
<g id="e32" class="edge">
<title>n2:s&#45;&gt;n13:n</title>
<path fill="none" stroke="black" d="M727,-688C727,-638.39 297.97,-685 269.48,-641.78"/>
<polygon fill="black" stroke="black" points="271.15,-641.26 268,-637 267.81,-642.29 271.15,-641.26"/>
</g>
<!-- n5 -->
<!-- turn -->
<g id="n5" class="node">
<title>n5</title>
<polygon fill="lightpink" stroke="transparent" points="706,-561 634,-561 634,-536 706,-536 706,-561"/>
<polygon fill="none" stroke="black" points="634,-535.5 634,-560.5 706,-560.5 706,-535.5 634,-535.5"/>
<text text-anchor="start" x="654.5" y="-544.3" font-family="Serif" font-size="14.00">turn</text>
</g>
<!-- n4&#45;&gt;n5 -->
<!-- S -->
<g id="e24" class="edge">
<title>n4:s&#45;&gt;n5:n</title>
<path fill="none" stroke="black" d="M670,-612C670,-591.1 670,-584.66 670,-566.02"/>
<polygon fill="black" stroke="black" points="671.75,-566 670,-561 668.25,-566 671.75,-566"/>
<text text-anchor="middle" x="675" y="-582.8" font-family="Serif" font-size="14.00">S</text>
</g>
<!-- n4&#45;&gt;n5 -->
<!-- S -->
<g id="e25" class="edge">
<title>n4:s&#45;&gt;n5:n</title>
<path fill="none" stroke="black" d="M712,-612C712,-608.9 682.1,-577.34 672.76,-565.34"/>
<polygon fill="black" stroke="black" points="674.16,-564.28 670,-561 671.2,-566.16 674.16,-564.28"/>
<text text-anchor="middle" x="702" y="-582.8" font-family="Serif" font-size="14.00">S</text>
</g>
<!-- n6 -->
<!-- turn_left -->
<g id="n6" class="node">
<title>n6</title>
<polygon fill="lightblue" stroke="transparent" points="610,-485 538,-485 538,-460 610,-460 610,-485"/>
<polygon fill="none" stroke="black" points="538,-459.5 538,-484.5 610,-484.5 610,-459.5 538,-459.5"/>
<text text-anchor="start" x="543" y="-468.3" font-family="Serif" font-size="14.00">turn_left</text>
</g>
<!-- n5&#45;&gt;n6 -->
<!-- S -->
<g id="e22" class="edge">
<title>n5:s&#45;&gt;n6:n</title>
<path fill="none" stroke="black" d="M646,-536C646,-531.75 591.85,-500.2 577.47,-488.7"/>
<polygon fill="black" stroke="black" points="578.7,-487.45 574,-485 576.14,-489.84 578.7,-487.45"/>
<text text-anchor="middle" x="625" y="-506.8" font-family="Serif" font-size="14.00">S</text>
</g>
<!-- n7 -->
<!-- turn_right -->
<g id="n7" class="node">
<title>n7</title>
<polygon fill="lightblue" stroke="transparent" points="757.5,-485 674.5,-485 674.5,-460 757.5,-460 757.5,-485"/>
<polygon fill="none" stroke="black" points="675,-459.5 675,-484.5 758,-484.5 758,-459.5 675,-459.5"/>
<text text-anchor="start" x="680" y="-468.3" font-family="Serif" font-size="14.00">turn_right</text>
</g>
<!-- n5&#45;&gt;n7 -->
<!-- S -->
<g id="e21" class="edge">
<title>n5:s&#45;&gt;n7:n</title>
<path fill="none" stroke="black" d="M694,-536C694,-512.98 713.71,-510.18 716.64,-490.17"/>
<polygon fill="black" stroke="black" points="718.4,-490.11 717,-485 714.91,-489.87 718.4,-490.11"/>
<text text-anchor="middle" x="716" y="-506.8" font-family="Serif" font-size="14.00">S</text>
</g>
<!-- n8 -->
<!-- move_fwd -->
<g id="n8" class="node">
<title>n8</title>
<polygon fill="lightblue" stroke="transparent" points="706,-409 624,-409 624,-384 706,-384 706,-409"/>
<polygon fill="none" stroke="black" points="624,-383.5 624,-408.5 706,-408.5 706,-383.5 624,-383.5"/>
<text text-anchor="start" x="629" y="-392.3" font-family="Serif" font-size="14.00">move_fwd</text>
</g>
<!-- n5&#45;&gt;n8 -->
<!-- S -->
<g id="e26" class="edge">
<title>n5:s&#45;&gt;n8:n</title>
<path fill="none" stroke="black" d="M670,-536C670,-512.49 659.14,-508.29 656,-485 651.71,-453.13 663.57,-444 664.88,-414.36"/>
<polygon fill="black" stroke="black" points="666.64,-414.04 665,-409 663.14,-413.96 666.64,-414.04"/>
<text text-anchor="middle" x="661" y="-468.8" font-family="Serif" font-size="14.00">S</text>
</g>
<!-- n6&#45;&gt;n8 -->
<!-- S -->
<g id="e27" class="edge">
<title>n6:s&#45;&gt;n8:n</title>
<path fill="none" stroke="black" d="M556,-460C556,-443.29 560.53,-436.89 574,-427 605.67,-403.74 659.64,-445.92 664.63,-414.23"/>
<polygon fill="black" stroke="black" points="666.39,-414.11 665,-409 662.9,-413.86 666.39,-414.11"/>
<text text-anchor="middle" x="579" y="-430.8" font-family="Serif" font-size="14.00">S</text>
</g>
<!-- n6&#45;&gt;n8 -->
<!-- S -->
<g id="e28" class="edge">
<title>n6:s&#45;&gt;n8:n</title>
<path fill="none" stroke="black" d="M592,-460C592,-440.18 605.81,-438.43 622,-427 637.21,-416.26 659.8,-427.01 664.23,-414.28"/>
<polygon fill="black" stroke="black" points="666.01,-414.2 665,-409 662.55,-413.7 666.01,-414.2"/>
<text text-anchor="middle" x="627" y="-430.8" font-family="Serif" font-size="14.00">S</text>
</g>
<!-- n7&#45;&gt;n8 -->
<!-- S -->
<g id="e13" class="edge">
<title>n7:s&#45;&gt;n8:n</title>
<path fill="none" stroke="black" d="M738,-460C738,-438.29 719.95,-439.21 702,-427 688.53,-417.84 669.71,-425.22 665.75,-414.03"/>
<polygon fill="black" stroke="black" points="667.47,-413.69 665,-409 664,-414.2 667.47,-413.69"/>
<text text-anchor="middle" x="734" y="-430.8" font-family="Serif" font-size="14.00">S</text>
</g>
<!-- n7&#45;&gt;n8 -->
<!-- S -->
<g id="e29" class="edge">
<title>n7:s&#45;&gt;n8:n</title>
<path fill="none" stroke="black" d="M696,-460C696,-448.29 671.84,-427.85 666.18,-414.09"/>
<polygon fill="black" stroke="black" points="667.83,-413.48 665,-409 664.42,-414.27 667.83,-413.48"/>
<text text-anchor="middle" x="690" y="-430.8" font-family="Serif" font-size="14.00">S</text>
</g>
<!-- n9 -->
<!-- reprod -->
<g id="n9" class="node">
<title>n9</title>
<polygon fill="lightpink" stroke="transparent" points="714.5,-333 655.5,-333 655.5,-308 714.5,-308 714.5,-333"/>
<polygon fill="none" stroke="black" points="656,-307.5 656,-332.5 715,-332.5 715,-307.5 656,-307.5"/>
<text text-anchor="start" x="661" y="-316.3" font-family="Serif" font-size="14.00">reprod</text>
</g>
<!-- n8&#45;&gt;n9 -->
<!-- S -->
<g id="e11" class="edge">
<title>n8:s&#45;&gt;n9:n</title>
<path fill="none" stroke="black" d="M644,-384C644,-368.67 644.41,-362.95 654,-351 662.94,-339.86 680.73,-346.93 685.04,-337.94"/>
<polygon fill="black" stroke="black" points="686.77,-338.24 686,-333 683.33,-337.58 686.77,-338.24"/>
<text text-anchor="middle" x="659" y="-354.8" font-family="Serif" font-size="14.00">S</text>
</g>
<!-- n8&#45;&gt;n9 -->
<!-- S -->
<g id="e12" class="edge">
<title>n8:s&#45;&gt;n9:n</title>
<path fill="none" stroke="black" d="M686,-384C686,-363.1 686,-356.66 686,-338.02"/>
<polygon fill="black" stroke="black" points="687.75,-338 686,-333 684.25,-338 687.75,-338"/>
<text text-anchor="middle" x="691" y="-354.8" font-family="Serif" font-size="14.00">S</text>
</g>
<!-- n10 -->
<!-- reproduce -->
<g id="n10" class="node">
<title>n10</title>
<polygon fill="lightblue" stroke="transparent" points="711.5,-257 628.5,-257 628.5,-232 711.5,-232 711.5,-257"/>
<polygon fill="none" stroke="black" points="629,-231.5 629,-256.5 712,-256.5 712,-231.5 629,-231.5"/>
<text text-anchor="start" x="634" y="-240.3" font-family="Serif" font-size="14.00">reproduce</text>
</g>
<!-- n9&#45;&gt;n10 -->
<!-- S -->
<g id="e18" class="edge">
<title>n9:s&#45;&gt;n10:n</title>
<path fill="none" stroke="black" d="M671,-308C671,-287.1 671,-280.66 671,-262.02"/>
<polygon fill="black" stroke="black" points="672.75,-262 671,-257 669.25,-262 672.75,-262"/>
<text text-anchor="middle" x="676" y="-278.8" font-family="Serif" font-size="14.00">S</text>
</g>
<!-- n11 -->
<!-- starve -->
<g id="n11" class="node">
<title>n11</title>
<polygon fill="lightblue" stroke="transparent" points="789,-181 733,-181 733,-156 789,-156 789,-181"/>
<polygon fill="none" stroke="black" points="733,-155.5 733,-180.5 789,-180.5 789,-155.5 733,-155.5"/>
<text text-anchor="start" x="738" y="-164.3" font-family="Serif" font-size="14.00">starve</text>
</g>
<!-- n9&#45;&gt;n11 -->
<!-- S -->
<g id="e23" class="edge">
<title>n9:s&#45;&gt;n11:n</title>
<path fill="none" stroke="black" d="M701,-308C701,-257.71 749.37,-262.12 764,-214 767.75,-201.67 762.64,-196.93 761.3,-186.07"/>
<polygon fill="black" stroke="black" points="763.05,-185.89 761,-181 759.55,-186.1 763.05,-185.89"/>
<text text-anchor="middle" x="760" y="-240.8" font-family="Serif" font-size="14.00">S</text>
</g>
<!-- n10&#45;&gt;n11 -->
<!-- S -->
<g id="e16" class="edge">
<title>n10:s&#45;&gt;n11:n</title>
<path fill="none" stroke="black" d="M692,-232C692,-195.8 754.17,-216.73 760.48,-186.34"/>
<polygon fill="black" stroke="black" points="762.26,-186.15 761,-181 758.78,-185.81 762.26,-186.15"/>
<text text-anchor="middle" x="755" y="-202.8" font-family="Serif" font-size="14.00">S</text>
</g>
<!-- n10&#45;&gt;n11 -->
<!-- S -->
<g id="e20" class="edge">
<title>n10:s&#45;&gt;n11:n</title>
<path fill="none" stroke="black" d="M650,-232C650,-203.87 678.4,-210.65 704,-199 726.29,-188.85 755.92,-204.69 760.42,-186.42"/>
<polygon fill="black" stroke="black" points="762.21,-186.16 761,-181 758.73,-185.78 762.21,-186.16"/>
<text text-anchor="middle" x="709" y="-202.8" font-family="Serif" font-size="14.00">S</text>
</g>
<!-- n11&#45;&gt;n2 -->
<g id="e15" class="edge">
<title>n11:s&#45;&gt;n2:n</title>
<path fill="none" stroke="black" d="M747,-154.5C747,-148.26 737.25,-150.93 733,-155.5 725.28,-163.79 731.5,-169.77 733,-181 735.02,-196.07 737.96,-199.35 742,-214 747.28,-233.13 746.78,-238.52 754,-257 765.36,-286.06 786,-288.29 786,-319.5 786,-625.5 786,-625.5 786,-625.5 786,-655.34 804.96,-658.68 810.5,-688 812.52,-698.7 818.04,-704.64 810.5,-712.5 804.49,-718.76 792.5,-722.6 787.88,-718.39"/>
<polygon fill="black" stroke="black" points="789.43,-717.54 786,-713.5 786.16,-718.8 789.43,-717.54"/>
</g>
<!-- n12 -->
<g id="n12" class="node">
<title>n12</title>
<polygon fill="lavender" stroke="transparent" points="824,-97.5 800,-97.5 800,-87.5 824,-87.5 824,-97.5"/>
<polygon fill="none" stroke="black" points="800,-87.5 800,-97.5 824,-97.5 824,-87.5 800,-87.5"/>
</g>
<!-- n11&#45;&gt;n12 -->
<!-- S -->
<g id="e10" class="edge">
<title>n11:s&#45;&gt;n12:n</title>
<path fill="none" stroke="black" d="M775,-156C775,-127.39 807.79,-128.62 811.63,-103.51"/>
<polygon fill="black" stroke="black" points="813.38,-103.61 812,-98.5 809.89,-103.36 813.38,-103.61"/>
<text text-anchor="middle" x="803" y="-126.8" font-family="Serif" font-size="14.00">S</text>
</g>
<!-- n12&#45;&gt;n2 -->
<g id="e14" class="edge">
<title>n12:s&#45;&gt;n2:n</title>
<path fill="none" stroke="black" d="M812,-86.5C812,-81.15 820.38,-83.56 824,-87.5 848.08,-113.66 824,-131.94 824,-167.5 824,-625.5 824,-625.5 824,-625.5 824,-664.63 839.69,-686.44 810.5,-712.5 804.02,-718.28 792.31,-722.4 787.82,-718.33"/>
<polygon fill="black" stroke="black" points="789.4,-717.56 786,-713.5 786.13,-718.8 789.4,-717.56"/>
</g>
<!-- n14 -->
<!-- Fail -->
<g id="n14" class="node">
<title>n14</title>
<polygon fill="red" stroke="transparent" points="484.5,-561 447.5,-561 447.5,-536 484.5,-536 484.5,-561"/>
<polygon fill="none" stroke="black" points="448,-535.5 448,-560.5 485,-560.5 485,-535.5 448,-535.5"/>
<text text-anchor="start" x="453" y="-544.3" font-family="Serif" font-size="14.00">Fail</text>
</g>
<!-- n13&#45;&gt;n14 -->
<g id="e40" class="edge">
<title>n13:s&#45;&gt;n14:n</title>
<path fill="none" stroke="black" d="M331,-612C331,-549.34 459.15,-621.1 466.66,-566.31"/>
<polygon fill="black" stroke="black" points="468.42,-566.1 467,-561 464.93,-565.88 468.42,-566.1"/>
</g>
<!-- n15 -->
<!-- Wolf_eat -->
<g id="n15" class="node">
<title>n15</title>
<polygon fill="lightblue" stroke="transparent" points="177.5,-561 106.5,-561 106.5,-536 177.5,-536 177.5,-561"/>
<polygon fill="none" stroke="black" points="107,-535.5 107,-560.5 178,-560.5 178,-535.5 107,-535.5"/>
<text text-anchor="start" x="112" y="-544.3" font-family="Serif" font-size="14.00">Wolf_eat</text>
</g>
<!-- n13&#45;&gt;n15 -->
<!-- W -->
<g id="e42" class="edge">
<title>n13:s&#45;&gt;n15:n</title>
<path fill="none" stroke="black" d="M295,-612C295,-579.45 254.93,-604.17 224,-594 188.8,-582.43 147.12,-598.25 143.29,-566.1"/>
<polygon fill="black" stroke="black" points="145.03,-565.89 143,-561 141.53,-566.09 145.03,-565.89"/>
<text text-anchor="middle" x="231.5" y="-582.8" font-family="Serif" font-size="14.00">W</text>
</g>
<!-- n24 -->
<!-- Query grass -->
<g id="n24" class="node">
<title>n24</title>
<polygon fill="yellow" stroke="transparent" points="429,-561 331,-561 331,-536 429,-536 429,-561"/>
<polygon fill="none" stroke="black" points="331,-535.5 331,-560.5 429,-560.5 429,-535.5 331,-535.5"/>
<text text-anchor="start" x="336" y="-544.3" font-family="Serif" font-size="14.00">Query grass</text>
</g>
<!-- n13&#45;&gt;n24 -->
<g id="e2" class="edge">
<title>n13:s&#45;&gt;n24:n</title>
<path fill="none" stroke="black" d="M259,-612C259,-565.57 347.65,-605.89 354.57,-566.24"/>
<polygon fill="black" stroke="black" points="356.34,-566.13 355,-561 352.85,-565.84 356.34,-566.13"/>
</g>
<!-- n16 -->
<!-- turn -->
<g id="n16" class="node">
<title>n16</title>
<polygon fill="lightpink" stroke="transparent" points="159,-485 87,-485 87,-460 159,-460 159,-485"/>
<polygon fill="none" stroke="black" points="87,-459.5 87,-484.5 159,-484.5 159,-459.5 87,-459.5"/>
<text text-anchor="start" x="107.5" y="-468.3" font-family="Serif" font-size="14.00">turn</text>
</g>
<!-- n15&#45;&gt;n16 -->
<!-- W -->
<g id="e47" class="edge">
<title>n15:s&#45;&gt;n16:n</title>
<path fill="none" stroke="black" d="M125,-536C125,-527.99 124.34,-526 124,-518 123.45,-505.17 123.1,-500.76 123.02,-490.03"/>
<polygon fill="black" stroke="black" points="124.77,-489.99 123,-485 121.27,-490.01 124.77,-489.99"/>
<text text-anchor="middle" x="131.5" y="-506.8" font-family="Serif" font-size="14.00">W</text>
</g>
<!-- n15&#45;&gt;n16 -->
<!-- W -->
<g id="e48" class="edge">
<title>n15:s&#45;&gt;n16:n</title>
<path fill="none" stroke="black" d="M161,-536C161,-518.37 149.77,-516.95 139,-503 133.79,-496.25 126.72,-495.62 124.07,-490.23"/>
<polygon fill="black" stroke="black" points="125.71,-489.55 123,-485 122.28,-490.25 125.71,-489.55"/>
<text text-anchor="middle" x="161.5" y="-506.8" font-family="Serif" font-size="14.00">W</text>
</g>
<!-- n17 -->
<!-- turn_left -->
<g id="n17" class="node">
<title>n17</title>
<polygon fill="lightblue" stroke="transparent" points="72,-409 0,-409 0,-384 72,-384 72,-409"/>
<polygon fill="none" stroke="black" points="0,-383.5 0,-408.5 72,-408.5 72,-383.5 0,-383.5"/>
<text text-anchor="start" x="5" y="-392.3" font-family="Serif" font-size="14.00">turn_left</text>
</g>
<!-- n16&#45;&gt;n17 -->
<!-- W -->
<g id="e45" class="edge">
<title>n16:s&#45;&gt;n17:n</title>
<path fill="none" stroke="black" d="M99,-460C99,-452.12 50.77,-425.88 38.71,-413.41"/>
<polygon fill="black" stroke="black" points="40.11,-412.34 36,-409 37.13,-414.18 40.11,-412.34"/>
<text text-anchor="middle" x="86.5" y="-430.8" font-family="Serif" font-size="14.00">W</text>
</g>
<!-- n18 -->
<!-- turn_right -->
<g id="n18" class="node">
<title>n18</title>
<polygon fill="lightblue" stroke="transparent" points="224.5,-409 141.5,-409 141.5,-384 224.5,-384 224.5,-409"/>
<polygon fill="none" stroke="black" points="142,-383.5 142,-408.5 225,-408.5 225,-383.5 142,-383.5"/>
<text text-anchor="start" x="147" y="-392.3" font-family="Serif" font-size="14.00">turn_right</text>
</g>
<!-- n16&#45;&gt;n18 -->
<!-- W -->
<g id="e44" class="edge">
<title>n16:s&#45;&gt;n18:n</title>
<path fill="none" stroke="black" d="M147,-460C147,-433.86 179.25,-436.48 183.53,-414.16"/>
<polygon fill="black" stroke="black" points="185.29,-414.14 184,-409 181.81,-413.82 185.29,-414.14"/>
<text text-anchor="middle" x="184.5" y="-430.8" font-family="Serif" font-size="14.00">W</text>
</g>
<!-- n19 -->
<!-- move_fwd -->
<g id="n19" class="node">
<title>n19</title>
<polygon fill="lightblue" stroke="transparent" points="180,-333 98,-333 98,-308 180,-308 180,-333"/>
<polygon fill="none" stroke="black" points="98,-307.5 98,-332.5 180,-332.5 180,-307.5 98,-307.5"/>
<text text-anchor="start" x="103" y="-316.3" font-family="Serif" font-size="14.00">move_fwd</text>
</g>
<!-- n16&#45;&gt;n19 -->
<!-- W -->
<g id="e49" class="edge">
<title>n16:s&#45;&gt;n19:n</title>
<path fill="none" stroke="black" d="M123,-460C123,-426.12 110.15,-417.18 117,-384 121.62,-361.62 136.54,-358.12 138.73,-338.14"/>
<polygon fill="black" stroke="black" points="140.49,-338.08 139,-333 136.99,-337.9 140.49,-338.08"/>
<text text-anchor="middle" x="124.5" y="-392.8" font-family="Serif" font-size="14.00">W</text>
</g>
<!-- n17&#45;&gt;n19 -->
<!-- W -->
<g id="e9" class="edge">
<title>n17:s&#45;&gt;n19:n</title>
<path fill="none" stroke="black" d="M54,-384C54,-365.6 63.89,-361.49 79,-351 100.26,-336.24 133.85,-357.43 138.47,-338.11"/>
<polygon fill="black" stroke="black" points="140.22,-338.15 139,-333 136.74,-337.79 140.22,-338.15"/>
<text text-anchor="middle" x="86.5" y="-354.8" font-family="Serif" font-size="14.00">W</text>
</g>
<!-- n17&#45;&gt;n19 -->
<!-- W -->
<g id="e31" class="edge">
<title>n17:s&#45;&gt;n19:n</title>
<path fill="none" stroke="black" d="M18,-384C18,-366.12 25.97,-360.68 41,-351 58.02,-340.05 125.81,-352.58 137.33,-337.9"/>
<polygon fill="black" stroke="black" points="139.04,-338.3 139,-333 135.73,-337.17 139.04,-338.3"/>
<text text-anchor="middle" x="48.5" y="-354.8" font-family="Serif" font-size="14.00">W</text>
</g>
<!-- n18&#45;&gt;n19 -->
<!-- W -->
<g id="e30" class="edge">
<title>n18:s&#45;&gt;n19:n</title>
<path fill="none" stroke="black" d="M163,-384C163,-360.81 142.43,-358.32 139.38,-338.2"/>
<polygon fill="black" stroke="black" points="141.11,-337.86 139,-333 137.62,-338.11 141.11,-337.86"/>
<text text-anchor="middle" x="165.5" y="-354.8" font-family="Serif" font-size="14.00">W</text>
</g>
<!-- n18&#45;&gt;n19 -->
<!-- W -->
<g id="e36" class="edge">
<title>n18:s&#45;&gt;n19:n</title>
<path fill="none" stroke="black" d="M205,-384C205,-364.47 191.53,-362.84 176,-351 163.05,-341.13 143.82,-349.07 139.77,-338"/>
<polygon fill="black" stroke="black" points="141.49,-337.68 139,-333 138.03,-338.21 141.49,-337.68"/>
<text text-anchor="middle" x="205.5" y="-354.8" font-family="Serif" font-size="14.00">W</text>
</g>
<!-- n20 -->
<!-- reprod -->
<g id="n20" class="node">
<title>n20</title>
<polygon fill="lightpink" stroke="transparent" points="188.5,-257 129.5,-257 129.5,-232 188.5,-232 188.5,-257"/>
<polygon fill="none" stroke="black" points="130,-231.5 130,-256.5 189,-256.5 189,-231.5 130,-231.5"/>
<text text-anchor="start" x="135" y="-240.3" font-family="Serif" font-size="14.00">reprod</text>
</g>
<!-- n19&#45;&gt;n20 -->
<!-- W -->
<g id="e34" class="edge">
<title>n19:s&#45;&gt;n20:n</title>
<path fill="none" stroke="black" d="M118,-308C118,-293.17 114.21,-286.95 123,-275 132.57,-262 154.08,-272.18 158.99,-262.16"/>
<polygon fill="black" stroke="black" points="160.76,-262.24 160,-257 157.32,-261.57 160.76,-262.24"/>
<text text-anchor="middle" x="130.5" y="-278.8" font-family="Serif" font-size="14.00">W</text>
</g>
<!-- n19&#45;&gt;n20 -->
<!-- W -->
<g id="e35" class="edge">
<title>n19:s&#45;&gt;n20:n</title>
<path fill="none" stroke="black" d="M160,-308C160,-287.1 160,-280.66 160,-262.02"/>
<polygon fill="black" stroke="black" points="161.75,-262 160,-257 158.25,-262 161.75,-262"/>
<text text-anchor="middle" x="167.5" y="-278.8" font-family="Serif" font-size="14.00">W</text>
</g>
<!-- n21 -->
<!-- reproduce -->
<g id="n21" class="node">
<title>n21</title>
<polygon fill="lightblue" stroke="transparent" points="185.5,-181 102.5,-181 102.5,-156 185.5,-156 185.5,-181"/>
<polygon fill="none" stroke="black" points="103,-155.5 103,-180.5 186,-180.5 186,-155.5 103,-155.5"/>
<text text-anchor="start" x="108" y="-164.3" font-family="Serif" font-size="14.00">reproduce</text>
</g>
<!-- n20&#45;&gt;n21 -->
<!-- W -->
<g id="e41" class="edge">
<title>n20:s&#45;&gt;n21:n</title>
<path fill="none" stroke="black" d="M145,-232C145,-211.1 145,-204.66 145,-186.02"/>
<polygon fill="black" stroke="black" points="146.75,-186 145,-181 143.25,-186 146.75,-186"/>
<text text-anchor="middle" x="152.5" y="-202.8" font-family="Serif" font-size="14.00">W</text>
</g>
<!-- n22 -->
<!-- starve -->
<g id="n22" class="node">
<title>n22</title>
<polygon fill="lightblue" stroke="transparent" points="258,-105 202,-105 202,-80 258,-80 258,-105"/>
<polygon fill="none" stroke="black" points="202,-79.5 202,-104.5 258,-104.5 258,-79.5 202,-79.5"/>
<text text-anchor="start" x="207" y="-88.3" font-family="Serif" font-size="14.00">starve</text>
</g>
<!-- n20&#45;&gt;n22 -->
<!-- W -->
<g id="e46" class="edge">
<title>n20:s&#45;&gt;n22:n</title>
<path fill="none" stroke="black" d="M175,-232C175,-181.46 224.12,-186.3 239,-138 240.96,-131.63 240.53,-129.49 239,-123 237.43,-116.34 232.99,-114.57 230.99,-110.09"/>
<polygon fill="black" stroke="black" points="232.67,-109.57 230,-105 229.24,-110.24 232.67,-109.57"/>
<text text-anchor="middle" x="237.5" y="-164.8" font-family="Serif" font-size="14.00">W</text>
</g>
<!-- n21&#45;&gt;n22 -->
<!-- W -->
<g id="e39" class="edge">
<title>n21:s&#45;&gt;n22:n</title>
<path fill="none" stroke="black" d="M166,-156C166,-121.48 223.67,-139.31 229.52,-110.11"/>
<polygon fill="black" stroke="black" points="231.28,-110.14 230,-105 227.79,-109.81 231.28,-110.14"/>
<text text-anchor="middle" x="227.5" y="-126.8" font-family="Serif" font-size="14.00">W</text>
</g>
<!-- n21&#45;&gt;n22 -->
<!-- W -->
<g id="e43" class="edge">
<title>n21:s&#45;&gt;n22:n</title>
<path fill="none" stroke="black" d="M124,-156C124,-131.56 146.13,-133.92 168,-123 191.97,-111.03 225.22,-130.73 229.53,-110.05"/>
<polygon fill="black" stroke="black" points="231.28,-110.14 230,-105 227.8,-109.82 231.28,-110.14"/>
<text text-anchor="middle" x="175.5" y="-126.8" font-family="Serif" font-size="14.00">W</text>
</g>
<!-- n22&#45;&gt;n13 -->
<g id="e38" class="edge">
<title>n22:s&#45;&gt;n13:n</title>
<path fill="none" stroke="black" d="M216,-78.5C216,-72.26 206.25,-74.93 202,-79.5 194.28,-87.79 200.5,-93.77 202,-105 204.02,-120.07 206.2,-123.58 211,-138 217.49,-157.5 220.41,-161.9 228,-181 239.06,-208.8 253,-213.58 253,-243.5 253,-549.5 253,-549.5 253,-549.5 253,-570.23 251.73,-579.97 267,-594 294,-618.8 324.58,-583.39 347.5,-612 354.31,-620.5 355.05,-628.65 347.5,-636.5 341.11,-643.14 328.27,-647.14 323.68,-642.32"/>
<polygon fill="black" stroke="black" points="325.3,-641.65 322,-637.5 321.99,-642.8 325.3,-641.65"/>
</g>
<!-- n23 -->
<g id="n23" class="node">
<title>n23</title>
<polygon fill="lavender" stroke="transparent" points="293,-29 269,-29 269,-19 293,-19 293,-29"/>
<polygon fill="none" stroke="black" points="269,-19 269,-29 293,-29 293,-19 269,-19"/>
</g>
<!-- n22&#45;&gt;n23 -->
<!-- W -->
<g id="e33" class="edge">
<title>n22:s&#45;&gt;n23:n</title>
<path fill="none" stroke="black" d="M244,-80C244,-53.86 276.25,-56.48 280.53,-34.16"/>
<polygon fill="black" stroke="black" points="282.29,-34.14 281,-29 278.81,-33.82 282.29,-34.14"/>
<text text-anchor="middle" x="281.5" y="-50.8" font-family="Serif" font-size="14.00">W</text>
</g>
<!-- n23&#45;&gt;n13 -->
<g id="e37" class="edge">
<title>n23:s&#45;&gt;n13:n</title>
<path fill="none" stroke="black" d="M281,-18C281,-12.65 289.12,-15.32 293,-19 316.61,-41.37 303,-58.97 303,-91.5 303,-549.5 303,-549.5 303,-549.5 303,-583.6 337.12,-579.52 347.5,-612 350.82,-622.37 355.05,-628.65 347.5,-636.5 341.11,-643.14 328.27,-647.14 323.68,-642.32"/>
<polygon fill="black" stroke="black" points="325.3,-641.65 322,-637.5 321.99,-642.8 325.3,-641.65"/>
</g>
<!-- n24&#45;&gt;n1 -->
<g id="e5" class="edge">
<title>n24:s&#45;&gt;n1:n</title>
<path fill="none" stroke="black" d="M347,-534.5C347,-527.38 335.88,-530.31 331,-535.5 323.24,-543.76 324.9,-551.45 331,-561 436.5,-726.03 552.61,-665.11 731,-746 748.94,-754.13 760.77,-747.48 771.5,-764 777.43,-773.13 779.03,-780.64 771.5,-788.5 765.74,-794.51 754.24,-798.22 749.8,-794.18"/>
<polygon fill="black" stroke="black" points="751.43,-793.54 748,-789.5 748.16,-794.79 751.43,-793.54"/>
</g>
<!-- n25 -->
<!-- Fail -->
<g id="n25" class="node">
<title>n25</title>
<polygon fill="red" stroke="transparent" points="519.5,-485 482.5,-485 482.5,-460 519.5,-460 519.5,-485"/>
<polygon fill="none" stroke="black" points="483,-459.5 483,-484.5 520,-484.5 520,-459.5 483,-459.5"/>
<text text-anchor="start" x="488" y="-468.3" font-family="Serif" font-size="14.00">Fail</text>
</g>
<!-- n24&#45;&gt;n25 -->
<g id="e3" class="edge">
<title>n24:s&#45;&gt;n25:n</title>
<path fill="none" stroke="black" d="M413,-536C413,-507.73 450.31,-533.42 474,-518 488.61,-508.49 499.74,-504.91 501.69,-490.01"/>
<polygon fill="black" stroke="black" points="503.44,-490.1 502,-485 499.95,-489.88 503.44,-490.1"/>
</g>
<!-- n26 -->
<!-- GrassIncrements -->
<g id="n26" class="node">
<title>n26</title>
<polygon fill="lightblue" stroke="transparent" points="464.5,-485 331.5,-485 331.5,-460 464.5,-460 464.5,-485"/>
<polygon fill="none" stroke="black" points="332,-459.5 332,-484.5 465,-484.5 465,-459.5 332,-459.5"/>
<text text-anchor="start" x="337" y="-468.3" font-family="Serif" font-size="14.00">GrassIncrements</text>
</g>
<!-- n24&#45;&gt;n26 -->
<!-- G -->
<g id="e8" class="edge">
<title>n24:s&#45;&gt;n26:n</title>
<path fill="none" stroke="black" d="M381,-536C381,-525 368.07,-528.23 364,-518 361.54,-511.8 360.53,-508.69 364,-503 372.04,-489.82 393.16,-499.51 398,-489.93"/>
<polygon fill="black" stroke="black" points="399.72,-490.25 399,-485 396.29,-489.55 399.72,-490.25"/>
<text text-anchor="middle" x="370" y="-506.8" font-family="Serif" font-size="14.00">G</text>
</g>
<!-- n26&#45;&gt;n24 -->
<!-- G -->
<g id="e4" class="edge">
<title>n26:s&#45;&gt;n24:n</title>
<path fill="none" stroke="black" d="M365,-458.5C365,-451.05 336.69,-454.16 331.5,-459.5 323.61,-467.63 325.06,-475.67 331.5,-485 344.33,-503.58 358.9,-492.72 379,-503 379.37,-503.19 428.8,-535.63 429,-536 434.16,-545.59 436.54,-552.64 429,-560.5 423.11,-566.64 411.37,-570.41 406.84,-566.28"/>
<polygon fill="black" stroke="black" points="408.43,-565.54 405,-561.5 405.16,-566.79 408.43,-565.54"/>
<text text-anchor="middle" x="407" y="-506.8" font-family="Serif" font-size="14.00">G</text>
</g>
<!-- n26&#45;&gt;n24 -->
<!-- G -->
<g id="e6" class="edge">
<title>n26:s&#45;&gt;n24:n</title>
<path fill="none" stroke="black" d="M432,-458.5C432,-451.27 459.47,-454.31 464.5,-459.5 472.39,-467.64 467.02,-473.95 464.5,-485 458.92,-509.52 450.6,-513.19 440,-536 434.97,-546.82 438.88,-553.81 429,-560.5 422.09,-565.18 411.33,-569.67 406.95,-566.32"/>
<polygon fill="black" stroke="black" points="408.5,-565.48 405,-561.5 405.25,-566.79 408.5,-565.48"/>
<text text-anchor="middle" x="464" y="-506.8" font-family="Serif" font-size="14.00">G</text>
</g>
</g>
</svg>
