<?xml version="1.0" encoding="UTF-8" standalone="no"?>
<!DOCTYPE svg PUBLIC "-//W3C//DTD SVG 1.1//EN"
 "http://www.w3.org/Graphics/SVG/1.1/DTD/svg11.dtd">
<!-- Generated by graphviz version 2.43.0 (0)
 -->
<!-- Title: G Pages: 1 -->
<svg width="439pt" height="453pt"
 viewBox="0.00 0.00 438.50 453.00" xmlns="http://www.w3.org/2000/svg" xmlns:xlink="http://www.w3.org/1999/xlink">
<g id="graph0" class="graph" transform="scale(1 1) rotate(0) translate(4 449)">
<title>G</title>
<polygon fill="white" stroke="transparent" points="-4,4 -4,-449 434.5,-449 434.5,4 -4,4"/>
<text text-anchor="middle" x="215.25" y="-413.8" font-family="Serif" font-size="14.00">New agent (18 remaining )</text>
<!-- n0in1 -->
<!-- n1 -->
<!-- for 1:1 -->
<g id="n1" class="node">
<title>n1</title>
<polygon fill="lightpink" stroke="transparent" points="159,-368 101,-368 101,-343 159,-343 159,-368"/>
<polygon fill="none" stroke="black" points="101,-342.5 101,-367.5 159,-367.5 159,-342.5 101,-342.5"/>
<text text-anchor="start" x="106" y="-351.3" font-family="Serif" font-size="14.00">for 1:1</text>
</g>
<!-- n0in1&#45;&gt;n1 -->
<g id="e1" class="edge">
<title>n0in1:s&#45;&gt;n1:n</title>
<path fill="none" stroke="black" d="M130,-405C130,-390.48 130,-385.58 130,-373.31"/>
<polygon fill="black" stroke="black" points="131.75,-373 130,-368 128.25,-373 131.75,-373"/>
</g>
<!-- n0out1 -->
<!-- n1&#45;&gt;n0out1 -->
<g id="e19" class="edge">
<title>n1:s&#45;&gt;n0out1:n</title>
<path fill="none" stroke="black" d="M115,-343C115,-292.4 12,-345.1 12,-294.5 12,-294.5 12,-294.5 12,-62 12,-36.69 12,-29.1 12,-6.14"/>
<polygon fill="black" stroke="black" points="13.75,-6 12,-1 10.25,-6 13.75,-6"/>
</g>
<!-- n2 -->
<!-- Query Cell -->
<g id="n2" class="node">
<title>n2</title>
<polygon fill="yellow" stroke="transparent" points="253,-306 167,-306 167,-281 253,-281 253,-306"/>
<polygon fill="none" stroke="black" points="167,-280.5 167,-305.5 253,-305.5 253,-280.5 167,-280.5"/>
<text text-anchor="start" x="172" y="-289.3" font-family="Serif" font-size="14.00">Query Cell</text>
</g>
<!-- n1&#45;&gt;n2 -->
<g id="e7" class="edge">
<title>n1:s&#45;&gt;n2:n</title>
<path fill="none" stroke="black" d="M145,-343C145,-319.76 181.54,-329.35 187.25,-311.24"/>
<polygon fill="black" stroke="black" points="189.03,-311.2 188,-306 185.56,-310.7 189.03,-311.2"/>
</g>
<!-- n3 -->
<!-- Fail -->
<g id="n3" class="node">
<title>n3</title>
<polygon fill="red" stroke="transparent" points="430.5,-230 393.5,-230 393.5,-205 430.5,-205 430.5,-230"/>
<polygon fill="none" stroke="black" points="394,-204.5 394,-229.5 431,-229.5 431,-204.5 394,-204.5"/>
<text text-anchor="start" x="399" y="-213.3" font-family="Serif" font-size="14.00">Fail</text>
</g>
<!-- n2&#45;&gt;n3 -->
<g id="e12" class="edge">
<title>n2:s&#45;&gt;n3:n</title>
<path fill="none" stroke="black" d="M239,-281C239,-249.63 350.74,-276.62 379,-263 396.34,-254.64 410.39,-251.59 412.67,-235.04"/>
<polygon fill="black" stroke="black" points="414.42,-235.1 413,-230 410.93,-234.88 414.42,-235.1"/>
</g>
<!-- n4 -->
<!-- Birth -->
<g id="n4" class="node">
<title>n4</title>
<polygon fill="lightblue" stroke="transparent" points="337,-230 289,-230 289,-205 337,-205 337,-230"/>
<polygon fill="none" stroke="black" points="289,-204.5 289,-229.5 337,-229.5 337,-204.5 289,-204.5"/>
<text text-anchor="start" x="294.5" y="-213.3" font-family="Serif" font-size="14.00">Birth</text>
</g>
<!-- n2&#45;&gt;n4 -->
<!--  (out) -->
<g id="e9" class="edge">
<title>n2:s&#45;&gt;n4:n</title>
<path fill="none" stroke="black" d="M211,-281C211,-232.2 305.57,-277.09 312.59,-235.24"/>
<polygon fill="black" stroke="black" points="314.35,-235.12 313,-230 310.86,-234.85 314.35,-235.12"/>
<text text-anchor="middle" x="323.5" y="-251.8" font-family="Serif" font-size="14.00"> (out)</text>
</g>
<!-- n6 -->
<!-- Query Cell -->
<g id="n6" class="node">
<title>n6</title>
<polygon fill="yellow" stroke="transparent" points="204,-230 118,-230 118,-205 204,-205 204,-230"/>
<polygon fill="none" stroke="black" points="118,-204.5 118,-229.5 204,-229.5 204,-204.5 118,-204.5"/>
<text text-anchor="start" x="123" y="-213.3" font-family="Serif" font-size="14.00">Query Cell</text>
</g>
<!-- n2&#45;&gt;n6 -->
<g id="e17" class="edge">
<title>n2:s&#45;&gt;n6:n</title>
<path fill="none" stroke="black" d="M181,-281C181,-267.92 147.69,-249.33 140.4,-235.05"/>
<polygon fill="black" stroke="black" points="142.02,-234.35 139,-230 138.65,-235.29 142.02,-234.35"/>
</g>
<!-- n5 -->
<!-- Persist -->
<g id="n5" class="node">
<title>n5</title>
<polygon fill="lightblue" stroke="transparent" points="344,-168 284,-168 284,-143 344,-143 344,-168"/>
<polygon fill="none" stroke="black" points="284,-142.5 284,-167.5 344,-167.5 344,-142.5 284,-142.5"/>
<text text-anchor="start" x="289" y="-151.3" font-family="Serif" font-size="14.00">Persist</text>
</g>
<!-- n4&#45;&gt;n5 -->
<g id="e10" class="edge">
<title>n4:s&#45;&gt;n5:n</title>
<path fill="none" stroke="black" d="M325,-205C325,-189.72 316.27,-185.92 314.37,-173.15"/>
<polygon fill="black" stroke="black" points="316.1,-172.86 314,-168 312.61,-173.11 316.1,-172.86"/>
</g>
<!-- n4&#45;&gt;n5 -->
<g id="e11" class="edge">
<title>n4:s&#45;&gt;n5:n</title>
<path fill="none" stroke="black" d="M301,-205C301,-189.48 311.31,-186.08 313.57,-173.21"/>
<polygon fill="black" stroke="black" points="315.33,-173.13 314,-168 311.84,-172.84 315.33,-173.13"/>
</g>
<!-- n5&#45;&gt;n2 -->
<!--  (in) -->
<g id="e13" class="edge">
<title>n5:s&#45;&gt;n2:n</title>
<path fill="none" stroke="black" d="M299,-141.5C299,-134.82 289.6,-138.86 284,-142.5 270.83,-151.05 254.78,-189.76 251,-205 240.25,-248.36 283.83,-273.17 253,-305.5 248.16,-310.57 238.77,-313.85 234.37,-311.24"/>
<polygon fill="black" stroke="black" points="235.81,-310.19 232,-306.5 232.68,-311.75 235.81,-310.19"/>
<text text-anchor="middle" x="265.5" y="-213.8" font-family="Serif" font-size="14.00"> (in)</text>
</g>
<!-- n5&#45;&gt;n2 -->
<g id="e14" class="edge">
<title>n5:s&#45;&gt;n2:n</title>
<path fill="none" stroke="black" d="M329,-141.5C329,-134.82 339.36,-137.69 344,-142.5 360.62,-159.71 353.85,-213.51 346,-230 309.12,-307.45 247.51,-321.2 234.47,-311.19"/>
<polygon fill="black" stroke="black" points="235.88,-310.11 232,-306.5 232.78,-311.74 235.88,-310.11"/>
</g>
<!-- n6&#45;&gt;n1 -->
<g id="e5" class="edge">
<title>n6:s&#45;&gt;n1:n</title>
<path fill="none" stroke="black" d="M132,-203.5C132,-197.26 122.25,-199.93 118,-204.5 110.28,-212.79 116.04,-218.84 118,-230 127.25,-282.62 149.75,-290.38 159,-343 160.89,-353.72 166.57,-359.67 159,-367.5 151.58,-375.18 136.56,-379.67 131.62,-373.66"/>
<polygon fill="black" stroke="black" points="133.17,-372.75 130,-368.5 129.83,-373.79 133.17,-372.75"/>
</g>
<!-- n7 -->
<!-- Fail -->
<g id="n7" class="node">
<title>n7</title>
<polygon fill="red" stroke="transparent" points="253.5,-168 216.5,-168 216.5,-143 253.5,-143 253.5,-168"/>
<polygon fill="none" stroke="black" points="217,-142.5 217,-167.5 254,-167.5 254,-142.5 217,-142.5"/>
<text text-anchor="start" x="222" y="-151.3" font-family="Serif" font-size="14.00">Fail</text>
</g>
<!-- n6&#45;&gt;n7 -->
<g id="e15" class="edge">
<title>n6:s&#45;&gt;n7:n</title>
<path fill="none" stroke="black" d="M190,-205C190,-180.81 229.09,-192.07 235.2,-173.43"/>
<polygon fill="black" stroke="black" points="237,-173.2 236,-168 233.54,-172.69 237,-173.2"/>
</g>
<!-- n8 -->
<!-- ClearCurr -->
<g id="n8" class="node">
<title>n8</title>
<polygon fill="lightblue" stroke="transparent" points="122,-168 40,-168 40,-143 122,-143 122,-168"/>
<polygon fill="none" stroke="black" points="40,-142.5 40,-167.5 122,-167.5 122,-142.5 40,-142.5"/>
<text text-anchor="start" x="45" y="-151.3" font-family="Serif" font-size="14.00">ClearCurr</text>
</g>
<!-- n6&#45;&gt;n8 -->
<g id="e8" class="edge">
<title>n6:s&#45;&gt;n8:n</title>
<path fill="none" stroke="black" d="M162,-205C162,-187.07 95.48,-187.5 83,-173.01"/>
<polygon fill="black" stroke="black" points="84.48,-171.99 81,-168 81.23,-173.29 84.48,-171.99"/>
</g>
<!-- n9 -->
<!-- CopyNext -->
<g id="n9" class="node">
<title>n9</title>
<polygon fill="lightblue" stroke="transparent" points="121.5,-106 40.5,-106 40.5,-81 121.5,-81 121.5,-106"/>
<polygon fill="none" stroke="black" points="41,-80.5 41,-105.5 122,-105.5 122,-80.5 41,-80.5"/>
<text text-anchor="start" x="46" y="-89.3" font-family="Serif" font-size="14.00">CopyNext</text>
</g>
<!-- n8&#45;&gt;n9 -->
<g id="e2" class="edge">
<title>n8:s&#45;&gt;n9:n</title>
<path fill="none" stroke="black" d="M102,-143C102,-126.21 85.86,-124.81 82.58,-111.15"/>
<polygon fill="black" stroke="black" points="84.3,-110.77 82,-106 80.82,-111.16 84.3,-110.77"/>
</g>
<!-- n8&#45;&gt;n9 -->
<g id="e6" class="edge">
<title>n8:s&#45;&gt;n9:n</title>
<path fill="none" stroke="black" d="M60,-143C60,-125.81 77.76,-125.09 81.37,-111.24"/>
<polygon fill="black" stroke="black" points="83.14,-111.17 82,-106 79.66,-110.75 83.14,-111.17"/>
</g>
<!-- n10 -->
<!-- ClearNext -->
<g id="n10" class="node">
<title>n10</title>
<polygon fill="lightblue" stroke="transparent" points="190.5,-44 107.5,-44 107.5,-19 190.5,-19 190.5,-44"/>
<polygon fill="none" stroke="black" points="108,-18.5 108,-43.5 191,-43.5 191,-18.5 108,-18.5"/>
<text text-anchor="start" x="113" y="-27.3" font-family="Serif" font-size="14.00">ClearNext</text>
</g>
<!-- n9&#45;&gt;n10 -->
<g id="e4" class="edge">
<title>n9:s&#45;&gt;n10:n</title>
<path fill="none" stroke="black" d="M61,-81C61,-40 142.52,-82.82 149.52,-49.03"/>
<polygon fill="black" stroke="black" points="151.27,-49.14 150,-44 147.78,-48.81 151.27,-49.14"/>
</g>
<!-- n9&#45;&gt;n10 -->
<g id="e18" class="edge">
<title>n9:s&#45;&gt;n10:n</title>
<path fill="none" stroke="black" d="M102,-81C102,-55.96 143.49,-68.78 149.32,-49.06"/>
<polygon fill="black" stroke="black" points="151.07,-49.19 150,-44 147.6,-48.72 151.07,-49.19"/>
</g>
<!-- n10&#45;&gt;n6 -->
<g id="e3" class="edge">
<title>n10:s&#45;&gt;n6:n</title>
<path fill="none" stroke="black" d="M171,-17.5C171,-8.82 184.3,-12.43 190.5,-18.5 220.19,-47.57 202.5,-163.47 204,-205 204.39,-215.88 211.51,-221.62 204,-229.5 199.16,-234.57 189.77,-237.85 185.37,-235.24"/>
<polygon fill="black" stroke="black" points="186.81,-234.19 183,-230.5 183.68,-235.75 186.81,-234.19"/>
</g>
<!-- n10&#45;&gt;n6 -->
<g id="e16" class="edge">
<title>n10:s&#45;&gt;n6:n</title>
<path fill="none" stroke="black" d="M129,-17.5C129,-7.93 114.11,-11.58 107.5,-18.5 99.67,-26.7 104.34,-33.12 107.5,-44 112.94,-62.71 120.83,-64.38 131,-81 164.37,-135.56 187.19,-143.3 204,-205 206.86,-215.51 211.51,-221.62 204,-229.5 199.16,-234.57 189.77,-237.85 185.37,-235.24"/>
<polygon fill="black" stroke="black" points="186.81,-234.19 183,-230.5 183.68,-235.75 186.81,-234.19"/>
</g>
</g>
</svg>
