<?xml version="1.0" encoding="UTF-8" standalone="no"?>
<!DOCTYPE svg PUBLIC "-//W3C//DTD SVG 1.1//EN"
 "http://www.w3.org/Graphics/SVG/1.1/DTD/svg11.dtd">
<!-- Generated by graphviz version 2.43.0 (0)
 -->
<!-- Title: G Pages: 1 -->
<svg width="208pt" height="188pt"
 viewBox="0.00 0.00 208.17 188.00" xmlns="http://www.w3.org/2000/svg" xmlns:xlink="http://www.w3.org/1999/xlink">
<g id="graph0" class="graph" transform="scale(1 1) rotate(0) translate(4 184)">
<title>G</title>
<polygon fill="white" stroke="transparent" points="-4,4 -4,-184 204.17,-184 204.17,4 -4,4"/>
<!-- v1 -->
<g id="node1" class="node">
<title>v1</title>
<ellipse fill="lightgreen" stroke="lightgreen" cx="22.75" cy="-18" rx="18" ry="18"/>
</g>
<!-- v2 -->
<g id="node2" class="node">
<title>v2</title>
<ellipse fill="tan" stroke="tan" cx="22.75" cy="-90" rx="23" ry="23"/>
<text text-anchor="middle" x="22.75" y="-86.3" font-family="Times,serif" font-size="14.00">13</text>
</g>
<!-- v3 -->
<g id="node3" class="node">
<title>v3</title>
<ellipse fill="lightgreen" stroke="lightgreen" cx="22.75" cy="-162" rx="18" ry="18"/>
</g>
<!-- v4 -->
<g id="node4" class="node">
<title>v4</title>
<ellipse fill="lightgreen" stroke="lightgreen" cx="94.75" cy="-18" rx="18" ry="18"/>
</g>
<!-- v5 -->
<g id="node5" class="node">
<title>v5</title>
<ellipse fill="tan" stroke="tan" cx="94.75" cy="-90" rx="18" ry="18"/>
<text text-anchor="middle" x="94.75" y="-86.3" font-family="Times,serif" font-size="14.00">5</text>
</g>
<!-- v6 -->
<g id="node6" class="node">
<title>v6</title>
<ellipse fill="lightgreen" stroke="lightgreen" cx="94.75" cy="-162" rx="18" ry="18"/>
</g>
<!-- v7 -->
<g id="node7" class="node">
<title>v7</title>
<ellipse fill="lightgreen" stroke="lightgreen" cx="166.75" cy="-18" rx="18" ry="18"/>
</g>
<!-- v8 -->
<g id="node8" class="node">
<title>v8</title>
<ellipse fill="lightgreen" stroke="lightgreen" cx="166.75" cy="-90" rx="18" ry="18"/>
</g>
<!-- v9 -->
<g id="node9" class="node">
<title>v9</title>
<ellipse fill="lightgreen" stroke="lightgreen" cx="166.75" cy="-162" rx="18" ry="18"/>
</g>
<!-- w1 -->
<g id="node10" class="node">
<title>w1</title>
<polygon fill="red" stroke="red" points="34.08,-54.02 12.08,-54.02 12.08,-32.02 34.08,-32.02 34.08,-54.02"/>
<text text-anchor="middle" x="23.08" y="-39.32" font-family="Times,serif" font-size="14.00">1⁵</text>
</g>
<!-- w2 -->
<g id="node11" class="node">
<title>w2</title>
<polygon fill="red" stroke="red" points="200.17,-105.37 178.17,-105.37 178.17,-83.37 200.17,-83.37 200.17,-105.37"/>
<text text-anchor="middle" x="189.17" y="-90.67" font-family="Times,serif" font-size="14.00">2⁵</text>
</g>
<!-- s1 -->
<g id="node12" class="node">
<title>s1</title>
<polygon fill="lightblue" stroke="lightblue" points="38.95,-52.36 16.95,-52.36 16.95,-30.36 38.95,-30.36 38.95,-52.36"/>
<text text-anchor="middle" x="27.95" y="-37.66" font-family="Times,serif" font-size="14.00">1⁵</text>
</g>
<!-- s2 -->
<g id="node13" class="node">
<title>s2</title>
<polygon fill="lightblue" stroke="lightblue" points="196.38,-177.49 174.38,-177.49 174.38,-155.49 196.38,-155.49 196.38,-177.49"/>
<text text-anchor="middle" x="185.38" y="-162.79" font-family="Times,serif" font-size="14.00">2⁵*</text>
</g>
</g>
</svg>
