<?xml version="1.0" encoding="UTF-8" standalone="no"?>
<!DOCTYPE svg PUBLIC "-//W3C//DTD SVG 1.1//EN"
 "http://www.w3.org/Graphics/SVG/1.1/DTD/svg11.dtd">
<!-- Generated by graphviz version 2.43.0 (0)
 -->
<!-- Title: G Pages: 1 -->
<svg width="210pt" height="193pt"
 viewBox="0.00 0.00 209.62 192.75" xmlns="http://www.w3.org/2000/svg" xmlns:xlink="http://www.w3.org/1999/xlink">
<g id="graph0" class="graph" transform="scale(1 1) rotate(0) translate(4 188.75)">
<title>G</title>
<polygon fill="white" stroke="transparent" points="-4,4 -4,-188.75 205.62,-188.75 205.62,4 -4,4"/>
<!-- v1 -->
<g id="node1" class="node">
<title>v1</title>
<ellipse fill="lightgreen" stroke="lightgreen" cx="22.75" cy="-18" rx="18" ry="18"/>
</g>
<!-- v2 -->
<g id="node2" class="node">
<title>v2</title>
<ellipse fill="tan" stroke="tan" cx="22.75" cy="-90" rx="23" ry="23"/>
<text text-anchor="middle" x="22.75" y="-86.3" font-family="Times,serif" font-size="14.00">13</text>
</g>
<!-- v3 -->
<g id="node3" class="node">
<title>v3</title>
<ellipse fill="lightgreen" stroke="lightgreen" cx="22.75" cy="-162" rx="18" ry="18"/>
</g>
<!-- v4 -->
<g id="node4" class="node">
<title>v4</title>
<ellipse fill="lightgreen" stroke="lightgreen" cx="94.75" cy="-18" rx="18" ry="18"/>
</g>
<!-- v5 -->
<g id="node5" class="node">
<title>v5</title>
<ellipse fill="tan" stroke="tan" cx="94.75" cy="-90" rx="18" ry="18"/>
<text text-anchor="middle" x="94.75" y="-86.3" font-family="Times,serif" font-size="14.00">5</text>
</g>
<!-- v6 -->
<g id="node6" class="node">
<title>v6</title>
<ellipse fill="lightgreen" stroke="lightgreen" cx="94.75" cy="-162" rx="18" ry="18"/>
</g>
<!-- v7 -->
<g id="node7" class="node">
<title>v7</title>
<ellipse fill="lightgreen" stroke="lightgreen" cx="166.75" cy="-18" rx="18" ry="18"/>
</g>
<!-- v8 -->
<g id="node8" class="node">
<title>v8</title>
<ellipse fill="lightgreen" stroke="lightgreen" cx="166.75" cy="-90" rx="18" ry="18"/>
</g>
<!-- v9 -->
<g id="node9" class="node">
<title>v9</title>
<ellipse fill="tan" stroke="tan" cx="166.75" cy="-162" rx="23" ry="23"/>
<text text-anchor="middle" x="166.75" y="-158.3" font-family="Times,serif" font-size="14.00">30</text>
</g>
<!-- w1 -->
<g id="node10" class="node">
<title>w1</title>
<polygon fill="red" stroke="red" points="40.46,-47.26 18.46,-47.26 18.46,-25.26 40.46,-25.26 40.46,-47.26"/>
<text text-anchor="middle" x="29.46" y="-32.56" font-family="Times,serif" font-size="14.00">1⁵</text>
</g>
<!-- w2 -->
<g id="node11" class="node">
<title>w2</title>
<polygon fill="red" stroke="red" points="195.9,-104.99 173.9,-104.99 173.9,-82.99 195.9,-82.99 195.9,-104.99"/>
<text text-anchor="middle" x="184.9" y="-90.29" font-family="Times,serif" font-size="14.00">2⁵</text>
</g>
<!-- s1 -->
<g id="node12" class="node">
<title>s1</title>
<polygon fill="lightblue" stroke="lightblue" points="37.98,-51.83 15.98,-51.83 15.98,-29.83 37.98,-29.83 37.98,-51.83"/>
<text text-anchor="middle" x="26.98" y="-37.13" font-family="Times,serif" font-size="14.00">1⁵</text>
</g>
<!-- s3 -->
<g id="node13" class="node">
<title>s3</title>
<polygon fill="lightblue" stroke="lightblue" points="201.62,-174.28 179.62,-174.28 179.62,-152.28 201.62,-152.28 201.62,-174.28"/>
<text text-anchor="middle" x="190.62" y="-159.58" font-family="Times,serif" font-size="14.00">3⁹*</text>
</g>
</g>
</svg>
