<?xml version="1.0" encoding="UTF-8" standalone="no"?>
<!DOCTYPE svg PUBLIC "-//W3C//DTD SVG 1.1//EN"
 "http://www.w3.org/Graphics/SVG/1.1/DTD/svg11.dtd">
<!-- Generated by graphviz version 2.43.0 (0)
 -->
<!-- Title: G Pages: 1 -->
<svg width="208pt" height="193pt"
 viewBox="0.00 0.00 208.26 192.75" xmlns="http://www.w3.org/2000/svg" xmlns:xlink="http://www.w3.org/1999/xlink">
<g id="graph0" class="graph" transform="scale(1 1) rotate(0) translate(4 188.75)">
<title>G</title>
<polygon fill="white" stroke="transparent" points="-4,4 -4,-188.75 204.26,-188.75 204.26,4 -4,4"/>
<!-- v1 -->
<g id="node1" class="node">
<title>v1</title>
<ellipse fill="lightgreen" stroke="lightgreen" cx="22.75" cy="-18" rx="18" ry="18"/>
</g>
<!-- v2 -->
<g id="node2" class="node">
<title>v2</title>
<ellipse fill="tan" stroke="tan" cx="22.75" cy="-90" rx="23" ry="23"/>
<text text-anchor="middle" x="22.75" y="-86.3" font-family="Times,serif" font-size="14.00">13</text>
</g>
<!-- v3 -->
<g id="node3" class="node">
<title>v3</title>
<ellipse fill="lightgreen" stroke="lightgreen" cx="22.75" cy="-162" rx="18" ry="18"/>
</g>
<!-- v4 -->
<g id="node4" class="node">
<title>v4</title>
<ellipse fill="lightgreen" stroke="lightgreen" cx="94.75" cy="-18" rx="18" ry="18"/>
</g>
<!-- v5 -->
<g id="node5" class="node">
<title>v5</title>
<ellipse fill="tan" stroke="tan" cx="94.75" cy="-90" rx="18" ry="18"/>
<text text-anchor="middle" x="94.75" y="-86.3" font-family="Times,serif" font-size="14.00">5</text>
</g>
<!-- v6 -->
<g id="node6" class="node">
<title>v6</title>
<ellipse fill="lightgreen" stroke="lightgreen" cx="94.75" cy="-162" rx="18" ry="18"/>
</g>
<!-- v7 -->
<g id="node7" class="node">
<title>v7</title>
<ellipse fill="lightgreen" stroke="lightgreen" cx="166.75" cy="-18" rx="18" ry="18"/>
</g>
<!-- v8 -->
<g id="node8" class="node">
<title>v8</title>
<ellipse fill="lightgreen" stroke="lightgreen" cx="166.75" cy="-90" rx="18" ry="18"/>
</g>
<!-- v9 -->
<g id="node9" class="node">
<title>v9</title>
<ellipse fill="tan" stroke="tan" cx="166.75" cy="-162" rx="23" ry="23"/>
<text text-anchor="middle" x="166.75" y="-158.3" font-family="Times,serif" font-size="14.00">30</text>
</g>
<!-- w1 -->
<g id="node10" class="node">
<title>w1</title>
<polygon fill="red" stroke="red" points="34.17,-50.35 12.17,-50.35 12.17,-28.35 34.17,-28.35 34.17,-50.35"/>
<text text-anchor="middle" x="23.17" y="-35.65" font-family="Times,serif" font-size="14.00">1⁵</text>
</g>
<!-- w2 -->
<g id="node11" class="node">
<title>w2</title>
<polygon fill="red" stroke="red" points="200.26,-101.17 178.26,-101.17 178.26,-79.17 200.26,-79.17 200.26,-101.17"/>
<text text-anchor="middle" x="189.26" y="-86.47" font-family="Times,serif" font-size="14.00">2⁵</text>
</g>
<!-- s1 -->
<g id="node12" class="node">
<title>s1</title>
<polygon fill="lightblue" stroke="lightblue" points="35.95,-52.25 13.95,-52.25 13.95,-30.25 35.95,-30.25 35.95,-52.25"/>
<text text-anchor="middle" x="24.95" y="-37.55" font-family="Times,serif" font-size="14.00">1⁵</text>
</g>
<!-- s5 -->
<g id="node13" class="node">
<title>s5</title>
<polygon fill="lightblue" stroke="lightblue" points="181.21,-84.46 159.21,-84.46 159.21,-62.46 181.21,-62.46 181.21,-84.46"/>
<text text-anchor="middle" x="170.21" y="-69.76" font-family="Times,serif" font-size="14.00">5⁸*</text>
</g>
</g>
</svg>
